<svg xmlns="http://www.w3.org/2000/svg" xmlns:xlink="http://www.w3.org/1999/xlink" viewBox="0 0 1200 1200"><defs><clipPath id="clip-path"><polygon points="456.27 235.4 345.53 301.82 345.53 326.19 567.01 326.19 567.01 301.82 456.27 235.4" fill="none"/></clipPath><clipPath id="clip-path-2"><polygon points="705.98 235.4 595.24 301.82 595.24 326.19 816.73 326.19 816.73 301.82 705.98 235.4" fill="none"/></clipPath><clipPath id="clip-path-3"><polygon points="955.7 235.4 844.96 301.82 844.96 326.19 1066.44 326.19 1066.44 301.82 955.7 235.4" fill="none"/></clipPath><clipPath id="clip-path-4"><path d="M937.37,769.57V976.28H826.63V769.57H937.37" fill="none"/></clipPath><clipPath id="clip-path-5"><path d="M937.37,721.59v22.14H826.63V721.59H937.37" fill="none"/></clipPath><clipPath id="clip-path-6"><path d="M734.06,721.67v221.4H217.65V721.67Z" fill="none"/></clipPath></defs><g style="isolation:isolate"><g id="Layer_3" data-name="Layer 3"><rect x="454.02" y="295.06" width="4.5" height="143.97" fill="#726f75"/><g clip-path="url(#clip-path)"><rect x="345.53" y="199.94" width="44.3" height="132.89" fill="#a62c32"/><rect x="389.83" y="199.94" width="44.3" height="132.89" fill="#e9e5e5"/><rect x="434.12" y="191.1" width="44.3" height="141.73" fill="#a62c32"/><rect x="478.42" y="199.94" width="44.3" height="132.89" fill="#e9e5e5"/><rect x="522.72" y="199.94" width="44.3" height="132.89" fill="#a62c32"/><rect x="345.53" y="301.82" width="221.48" height="8.86" fill="#393939" opacity="0.2" style="mix-blend-mode:multiply"/></g><rect x="703.73" y="295.06" width="4.5" height="143.97" fill="#726f75"/><g clip-path="url(#clip-path-2)"><rect x="595.24" y="199.94" width="44.3" height="132.89" fill="#a62c32"/><rect x="639.54" y="199.94" width="44.3" height="132.89" fill="#e9e5e5"/><rect x="683.84" y="191.1" width="44.3" height="141.73" fill="#a62c32"/><rect x="728.13" y="199.94" width="44.3" height="132.89" fill="#e9e5e5"/><rect x="772.43" y="199.94" width="44.3" height="132.89" fill="#a62c32"/><rect x="595.24" y="301.82" width="221.48" height="8.86" fill="#393939" opacity="0.2" style="mix-blend-mode:multiply"/></g><rect x="953.45" y="295.06" width="4.5" height="199.34" fill="#726f75"/><g clip-path="url(#clip-path-3)"><rect x="844.96" y="199.94" width="44.3" height="132.89" fill="#a62c32"/><rect x="889.25" y="199.94" width="44.3" height="132.89" fill="#e9e5e5"/><rect x="933.55" y="191.1" width="44.3" height="141.73" fill="#a62c32"/><rect x="977.85" y="199.94" width="44.3" height="132.89" fill="#e9e5e5"/><rect x="1022.14" y="199.94" width="44.3" height="132.89" fill="#a62c32"/><rect x="844.96" y="301.82" width="221.48" height="8.86" fill="#393939" opacity="0.2" style="mix-blend-mode:multiply"/></g><rect x="143.59" y="677.28" width="922.99" height="387.59" transform="translate(1210.17 1742.16) rotate(180)" fill="#9b6127"/><rect x="143.59" y="264.1" width="219.45" height="228.61" transform="translate(506.63 756.81) rotate(180)" fill="#9b6127"/><rect x="143.59" y="250.04" width="219.45" height="18.46" transform="translate(506.63 518.54) rotate(180)" fill="#eae2cb"/><rect x="143.59" y="268.5" width="219.45" height="8.79" transform="translate(506.63 545.79) rotate(180)" fill="#393939" opacity="0.4" style="mix-blend-mode:multiply"/><rect x="189.37" y="351.83" width="127.89" height="53.15" fill="#4eb8d0"/><path d="M315.26,353.83V403H191.37V353.83H315.26m4-4H187.37V407H319.26V349.83Z" fill="#3c413a"/><polygon points="205.11 367.07 205.11 389.17 264.52 389.17 282.76 367.07 205.11 367.07" fill="#fff" opacity="0.3" style="mix-blend-mode:overlay"/><polygon points="294.54 367.07 276.42 389.17 301.65 389.17 301.65 389.17 301.65 367.07 294.54 367.07" fill="#fff" opacity="0.3" style="mix-blend-mode:overlay"/><rect x="363.04" y="352.03" width="703.4" height="140.68" fill="#4eb8d0" opacity="0.5"/><rect x="363.04" y="344.65" width="703.4" height="7.38" transform="translate(1429.48 696.68) rotate(180)" fill="#161919"/><rect x="363.04" y="352.03" width="703.4" height="8.79" transform="translate(1429.48 712.85) rotate(180)" fill="#393939" opacity="0.2" style="mix-blend-mode:multiply"/><rect x="883.99" y="352.03" width="8.79" height="140.68" fill="#161919"/><rect x="536.69" y="352.03" width="8.79" height="140.68" fill="#161919"/><rect x="1057.65" y="352.03" width="8.79" height="140.68" fill="#161919"/><rect x="363.04" y="352.03" width="8.79" height="140.68" fill="#161919"/><rect x="710.34" y="352.03" width="8.79" height="140.68" fill="#161919"/><rect x="143.59" y="1002.12" width="627.67" height="62.75" fill="#eae2cb"/><rect x="992.74" y="1002.12" width="73.83" height="62.75" fill="#eae2cb"/><g opacity="0.2" style="mix-blend-mode:multiply"><path d="M752.5,1020.89v25.22H203v-25.22H752.5m4-4H199v33.22H756.5v-33.22Z" fill="#393939"/></g><g opacity="0.2" style="mix-blend-mode:multiply"><path d="M1047.81,1020.89v25.22h-36.3v-25.22h36.3m4-4h-44.3v33.22h44.3v-33.22Z" fill="#393939"/></g><rect x="808.17" y="751.11" width="147.66" height="313.77" fill="#784026"/><rect x="821.25" y="764.18" width="121.51" height="217.48" fill="#161919"/><path d="M940.76,766.18V979.67H823.25V766.18H940.76m4-4H819.25V983.67H944.76V762.18Z" fill="#5a331c"/><path d="M940.76,1006.12v36.3H823.25v-36.3H940.76m4-4H819.25v44.3H944.76v-44.3Z" fill="#5a331c"/><g opacity="0.08"><g clip-path="url(#clip-path-4)"><path d="M796.37,924.94a9.67,9.67,0,0,1-13.69,0,9.7,9.7,0,0,1,0-13.69L931.21,762.73a9.68,9.68,0,0,1,13.69,13.69h0Z" fill="#f4f4f5"/><path d="M837.44,991.82a25.81,25.81,0,0,1-18.25-44.06L1013.35,753.6a25.81,25.81,0,0,1,36.5,36.51L855.7,984.26A25.76,25.76,0,0,1,837.44,991.82Z" fill="#f4f4f5"/></g></g><rect x="808.17" y="703.13" width="147.66" height="59.05" fill="#784026"/><rect x="821.25" y="716.21" width="121.51" height="32.9" fill="#161919"/><path d="M940.76,718.21v28.9H823.25v-28.9H940.76m4-4H819.25v36.9H944.76v-36.9Z" fill="#5a331c"/><g opacity="0.08"><g clip-path="url(#clip-path-5)"><path d="M796.37,877a9.69,9.69,0,0,1-13.69,0,9.7,9.7,0,0,1,0-13.69L931.21,714.75a9.68,9.68,0,1,1,13.69,13.7h0Z" fill="#f4f4f5"/><path d="M837.44,943.85a25.82,25.82,0,0,1-18.25-44.07l194.16-194.15a25.81,25.81,0,0,1,36.5,36.5L855.7,936.29A25.76,25.76,0,0,1,837.44,943.85Z" fill="#f4f4f5"/></g></g><rect x="826.63" y="935.68" width="110.74" height="7.38" fill="#d5bca1"/><path d="M815.84,932h12.61a0,0,0,0,1,0,0v14.77a0,0,0,0,1,0,0H815.84a4,4,0,0,1-4-4V936A4,4,0,0,1,815.84,932Z" fill="#d5bca1"/><path d="M939.55,932h12.61a0,0,0,0,1,0,0v14.77a0,0,0,0,1,0,0H939.55a4,4,0,0,1-4-4V936A4,4,0,0,1,939.55,932Z" transform="translate(1887.71 1878.73) rotate(180)" fill="#d5bca1"/><rect x="854.32" y="842.78" width="55.37" height="36.91" fill="#f4f4f5"/><rect x="199.09" y="961.53" width="553.71" height="18.46" transform="translate(951.89 1941.52) rotate(180)" fill="#efd9b2"/><rect x="199.09" y="979.99" width="553.71" height="7.38" transform="translate(951.89 1967.36) rotate(180)" fill="#393939" opacity="0.2" style="mix-blend-mode:multiply"/><rect x="199.09" y="703.13" width="553.71" height="258.4" fill="#784026"/><rect x="207.09" y="711.13" width="537.71" height="242.4" fill="#161919"/><path d="M742.8,713.13v238.4H209.09V713.13H742.8m4-4H205.09v246.4H746.8V709.13Z" fill="#5a331c"/><g opacity="0.08"><g clip-path="url(#clip-path-6)"><path d="M170.21,910.65A9.68,9.68,0,1,1,156.52,897l279-279.05a9.68,9.68,0,0,1,13.69,13.7h0Z" fill="#f4f4f5"/><path d="M211.28,977.53A25.82,25.82,0,0,1,193,933.46L517.7,608.79a25.81,25.81,0,0,1,36.5,36.5L229.53,970A25.74,25.74,0,0,1,211.28,977.53Z" fill="#f4f4f5"/><path d="M804.07,680.42a9.67,9.67,0,0,1,13.69,0,9.7,9.7,0,0,1,0,13.69l-279,279A9.68,9.68,0,1,1,525,959.46h0Z" fill="#f4f4f5"/><path d="M763,613.54a25.81,25.81,0,0,1,18.25,44.06L456.58,982.27a25.81,25.81,0,0,1-36.51-36.5L744.75,621.1A25.72,25.72,0,0,1,763,613.54Z" fill="#f4f4f5"/></g></g><rect x="678.69" y="906.16" width="36.91" height="18.46" fill="#065d90"/><rect x="678.69" y="869.24" width="36.91" height="18.46" fill="#f4f4f5"/><rect x="697.14" y="832.33" width="18.46" height="18.46" rx="5" fill="#2db050"/><rect x="771.26" y="677.28" width="36.91" height="387.59" fill="#af8152"/><rect x="808.17" y="677.28" width="25.84" height="387.59" fill="#393939" opacity="0.2" style="mix-blend-mode:multiply"/><rect x="763.88" y="677.28" width="7.38" height="387.59" fill="#393939" opacity="0.2" style="mix-blend-mode:multiply"/><path d="M785.89,963.54V717.9a3.69,3.69,0,0,1,3.69-3.69h0a3.7,3.7,0,0,1,3.7,3.69V963.54a3.7,3.7,0,0,1-3.7,3.69h0A3.69,3.69,0,0,1,785.89,963.54Z" fill="#393939" opacity="0.2" style="mix-blend-mode:multiply"/><rect x="771.26" y="1002.12" width="36.91" height="62.75" fill="#eae2cb"/><rect x="143.59" y="677.28" width="36.91" height="387.59" fill="#af8152"/><path d="M158.36,963.36V717.72a3.69,3.69,0,0,1,3.69-3.69h0a3.69,3.69,0,0,1,3.69,3.69V963.36a3.69,3.69,0,0,1-3.69,3.69h0A3.69,3.69,0,0,1,158.36,963.36Z" fill="#393939" opacity="0.2" style="mix-blend-mode:multiply"/><rect x="180.5" y="677.28" width="25.84" height="387.59" fill="#393939" opacity="0.2" style="mix-blend-mode:multiply"/><rect x="143.59" y="1002.12" width="36.91" height="62.75" fill="#eae2cb"/><rect x="955.83" y="677.28" width="36.91" height="387.59" transform="translate(1948.57 1742.16) rotate(180)" fill="#af8152"/><rect x="143.59" y="677.28" width="922.99" height="7.38" fill="#393939" opacity="0.2" style="mix-blend-mode:multiply"/><rect x="929.99" y="677.28" width="25.84" height="387.59" transform="translate(1885.82 1742.16) rotate(180)" fill="#393939" opacity="0.2" style="mix-blend-mode:multiply"/><rect x="992.74" y="677.28" width="25.84" height="387.59" transform="translate(2011.33 1742.16) rotate(180)" fill="#393939" opacity="0.2" style="mix-blend-mode:multiply"/><rect x="955.83" y="1002.12" width="36.91" height="62.75" transform="translate(1948.57 2067) rotate(180)" fill="#eae2cb"/><path d="M970.6,963.54V717.9a3.69,3.69,0,0,1,3.69-3.69h0A3.69,3.69,0,0,1,978,717.9V963.54a3.69,3.69,0,0,1-3.69,3.69h0A3.69,3.69,0,0,1,970.6,963.54Z" fill="#393939" opacity="0.2" style="mix-blend-mode:multiply"/><rect x="143.59" y="640.37" width="922.99" height="36.91" fill="#eae2cb"/><rect x="143.59" y="529.62" width="922.99" height="110.75" fill="#9b6127"/><rect x="143.59" y="492.71" width="922.99" height="36.91" fill="#eae2cb"/><path d="M781.33,714.2S796.51,658.83,882,658.83,982.68,714.2,982.68,714.2v20.13H781.33Z" fill="#a62c32"/><rect x="180.54" y="734.33" width="590.62" height="73.83" fill="#393939" opacity="0.4" style="mix-blend-mode:multiply"/><rect x="808.17" y="734.33" width="147.66" height="73.83" fill="#393939" opacity="0.4" style="mix-blend-mode:multiply"/><rect x="143.59" y="529.62" width="922.99" height="7.38" fill="#393939" opacity="0.2" style="mix-blend-mode:multiply"/><rect x="180.54" y="623.59" width="36.91" height="110.74" fill="#a62c32"/><rect x="217.46" y="623.59" width="36.91" height="110.74" fill="#e9e5e5"/><rect x="254.37" y="623.59" width="36.91" height="110.74" fill="#a62c32"/><rect x="291.29" y="623.59" width="36.91" height="110.74" fill="#e9e5e5"/><rect x="328.2" y="623.59" width="36.91" height="110.74" fill="#a62c32"/><rect x="365.11" y="623.59" width="36.91" height="110.74" fill="#e9e5e5"/><rect x="402.03" y="623.59" width="36.91" height="110.74" fill="#a62c32"/><rect x="438.94" y="623.59" width="36.91" height="110.74" fill="#e9e5e5"/><rect x="475.85" y="623.59" width="36.91" height="110.74" fill="#a62c32"/><rect x="512.77" y="623.59" width="36.91" height="110.74" fill="#e9e5e5"/><rect x="549.68" y="623.59" width="36.91" height="110.74" fill="#a62c32"/><rect x="586.6" y="623.59" width="36.91" height="110.74" fill="#e9e5e5"/><rect x="623.51" y="623.59" width="36.91" height="110.74" fill="#a62c32"/><rect x="660.42" y="623.59" width="36.91" height="110.74" fill="#e9e5e5"/><rect x="697.34" y="623.59" width="36.91" height="110.74" fill="#a62c32"/><rect x="734.25" y="623.59" width="36.91" height="110.74" fill="#e9e5e5"/><rect x="180.54" y="708.49" width="590.72" height="7.38" fill="#393939" opacity="0.2" style="mix-blend-mode:multiply"/><rect x="201.5" y="441.52" width="548.71" height="179.57" fill="#fff"/><path d="M747.71,444V618.59H204V444H747.71m5-5H199V623.59H752.71V439Z" fill="#d66d45"/><polygon points="266.94 1027.53 339.18 1027.53 326.58 919.14 254.34 919.14 266.94 1027.53" fill="#784026"/><polygon points="272.28 1021.53 261.08 925.14 321.24 925.14 332.44 1021.53 272.28 1021.53" fill="#161919"/><polygon points="338.62 1085.1 345.84 1085.1 339.15 1027.53 331.93 1027.53 338.62 1085.1" fill="#784026"/><polygon points="273.63 1085.1 280.85 1085.1 274.16 1027.53 266.94 1027.53 273.63 1085.1" fill="#784026"/><polygon points="266.94 1027.53 339.18 1027.53 326.58 919.14 254.34 919.14 266.94 1027.53" fill="#5a331c"/><polygon points="272.28 1021.53 261.08 925.14 321.24 925.14 332.44 1021.53 272.28 1021.53" fill="#161919"/><polygon points="338.62 1085.1 345.84 1085.1 339.15 1027.53 331.93 1027.53 338.62 1085.1" fill="#5a331c"/><polygon points="273.63 1085.1 280.85 1085.1 274.16 1027.53 266.94 1027.53 273.63 1085.1" fill="#5a331c"/><polygon points="314.01 1027.53 241.76 1027.53 254.36 919.14 326.61 919.14 314.01 1027.53" fill="#784026"/><polygon points="248.5 1021.53 259.7 925.14 319.87 925.14 308.67 1021.53 248.5 1021.53" fill="#161919"/><polygon points="242.33 1085.1 235.1 1085.1 241.79 1027.53 249.02 1027.53 242.33 1085.1" fill="#784026"/><polygon points="307.32 1085.1 300.09 1085.1 306.78 1027.53 314.01 1027.53 307.32 1085.1" fill="#784026"/><path d="M144.47,1006.21a20,20,0,0,0-2.33.14,29.26,29.26,0,0,0-54.6,3.86,21.22,21.22,0,1,0,20.51,36.67,28.75,28.75,0,0,0,7.53,1,29.18,29.18,0,0,0,15.16-4.26,21.24,21.24,0,1,0,13.73-37.43Z" fill="#50a80b"/><polygon points="165.72 1066.25 73.95 1066.25 68.85 1030.57 170.81 1030.57 165.72 1066.25" fill="#065d90"/><path d="M627.83,1006.21a19.84,19.84,0,0,0-2.33.14,29.26,29.26,0,0,0-54.61,3.86,21.22,21.22,0,1,0,20.51,36.67,28.83,28.83,0,0,0,7.54,1,29.14,29.14,0,0,0,15.15-4.26,21.24,21.24,0,1,0,13.74-37.43Z" fill="#50a80b"/><polygon points="649.07 1066.25 557.3 1066.25 552.2 1030.57 654.16 1030.57 649.07 1066.25" fill="#065d90"/><path d="M1111.18,1006.21a19.84,19.84,0,0,0-2.33.14,29.26,29.26,0,0,0-54.6,3.86,21.22,21.22,0,1,0,20.5,36.67,28.84,28.84,0,0,0,22.69-3.24,21.24,21.24,0,1,0,13.74-37.43Z" fill="#50a80b"/><polygon points="1132.42 1066.25 1040.66 1066.25 1035.56 1030.57 1137.52 1030.57 1132.42 1066.25" fill="#065d90"/><text transform="translate(223.46 554.29)" font-size="77.71" fill="#a62c32" font-family="Poppins-Bold, Poppins" font-weight="700">RESTAURANT</text></g></g></svg>