<svg xmlns="http://www.w3.org/2000/svg" xmlns:xlink="http://www.w3.org/1999/xlink" viewBox="0 0 1200 1200"><defs><linearGradient id="linear-gradient" x1="887.73" y1="855.2" x2="317.62" y2="484.97" gradientUnits="userSpaceOnUse"><stop offset="0" stopColor="#b8a78b"/><stop offset="0.2" stopColor="#cebda1"/><stop offset="0.42" stopColor="#decdb1"/><stop offset="0.67" stopColor="#e8d7bb"/><stop offset="1" stopColor="#ebdabe"/></linearGradient><linearGradient id="linear-gradient-2" x1="828.39" y1="690.76" x2="375.14" y2="396.42" gradientUnits="userSpaceOnUse"><stop offset="0" stopColor="#df958f"/><stop offset="1" stopColor="#e5d5d2"/></linearGradient><linearGradient id="linear-gradient-3" x1="1082.98" y1="777.42" x2="1082.98" y2="546.19" xlink:href="#linear-gradient"/><linearGradient id="linear-gradient-4" x1="1082.98" y1="883.73" x2="1082.98" y2="883.72" xlink:href="#linear-gradient"/><linearGradient id="linear-gradient-5" x1="124.32" y1="862.73" x2="124.32" y2="541.87" xlink:href="#linear-gradient"/><linearGradient id="linear-gradient-6" x1="820.04" y1="588.58" x2="416.08" y2="326.25" gradientUnits="userSpaceOnUse"><stop offset="0" stopColor="#f13f33"/><stop offset="1" stopColor="#f78b79"/></linearGradient><linearGradient id="linear-gradient-7" x1="714.08" y1="663.76" x2="714.08" y2="576.96" gradientUnits="userSpaceOnUse"><stop offset="0" stopColor="#fc664b"/><stop offset="1" stopColor="#fdb591"/></linearGradient><linearGradient id="linear-gradient-8" x1="740.51" y1="661.1" x2="740.51" y2="593.84" gradientUnits="userSpaceOnUse"><stop offset="0" stopColor="#fcb1a1"/><stop offset="0.03" stopColor="#fcb4a4"/><stop offset="0.44" stopColor="#fed5c4"/><stop offset="0.77" stopColor="#ffead8"/><stop offset="1" stopColor="#fff1df"/></linearGradient><linearGradient id="linear-gradient-9" x1="768.2" y1="663.76" x2="768.2" y2="576.96" xlink:href="#linear-gradient-7"/><linearGradient id="linear-gradient-10" x1="795.9" y1="661.1" x2="795.9" y2="593.84" xlink:href="#linear-gradient-8"/><linearGradient id="linear-gradient-11" x1="823.59" y1="663.76" x2="823.59" y2="576.96" xlink:href="#linear-gradient-7"/><linearGradient id="linear-gradient-12" x1="849.98" y1="661.1" x2="849.98" y2="593.84" xlink:href="#linear-gradient-8"/><linearGradient id="linear-gradient-13" x1="338.56" y1="663.76" x2="338.56" y2="576.96" xlink:href="#linear-gradient-7"/><linearGradient id="linear-gradient-14" x1="364.19" y1="661.1" x2="364.19" y2="593.84" xlink:href="#linear-gradient-8"/><linearGradient id="linear-gradient-15" x1="391.88" y1="663.76" x2="391.88" y2="576.96" xlink:href="#linear-gradient-7"/><linearGradient id="linear-gradient-16" x1="419.58" y1="661.1" x2="419.58" y2="593.84" xlink:href="#linear-gradient-8"/><linearGradient id="linear-gradient-17" x1="447.27" y1="663.76" x2="447.27" y2="576.96" xlink:href="#linear-gradient-7"/><linearGradient id="linear-gradient-18" x1="474.46" y1="661.1" x2="474.46" y2="593.84" xlink:href="#linear-gradient-8"/></defs><g style="isolation:isolate"><g id="Layer_4" data-name="Layer 4"><rect x="65.19" y="347.36" width="203.78" height="547.05" fill="#d1e3ee"/><rect x="887.36" y="347.36" width="203.78" height="547.05" fill="#d1e3ee"/><rect x="305.7" y="279.99" width="203.78" height="614.42" fill="#d1e3ee"/><rect x="598.39" y="508.07" width="203.78" height="386.34" fill="#d1e3ee"/><rect y="774.98" width="1199.67" height="118.61" fill="#a8c8e0"/><path d="M384.19,385.07a2,2,0,0,1-2.05-2.05V350.75a2.05,2.05,0,0,1,4.1,0V383A2.05,2.05,0,0,1,384.19,385.07Z" fill="#bdb0aa"/><path d="M419.4,385.07a2.05,2.05,0,0,1-2-2.05V350.75a2.05,2.05,0,1,1,4.1,0V383A2.05,2.05,0,0,1,419.4,385.07Z" fill="#bdb0aa"/><path d="M454.61,385.07a2.05,2.05,0,0,1-2.05-2.05V350.75a2.05,2.05,0,0,1,4.1,0V383A2,2,0,0,1,454.61,385.07Z" fill="#bdb0aa"/><path d="M489.83,385.07a2,2,0,0,1-2.05-2.05V350.75a2.05,2.05,0,0,1,4.1,0V383A2.05,2.05,0,0,1,489.83,385.07Z" fill="#bdb0aa"/><path d="M525,385.07a2.05,2.05,0,0,1-2-2.05V350.75a2.05,2.05,0,0,1,4.1,0V383A2.05,2.05,0,0,1,525,385.07Z" fill="#bdb0aa"/><path d="M560.25,385.07a2.05,2.05,0,0,1-2-2.05V350.75a2.06,2.06,0,0,1,4.11,0V383A2.05,2.05,0,0,1,560.25,385.07Z" fill="#bdb0aa"/><path d="M595.47,385.07a2.05,2.05,0,0,1-2.05-2.05V350.75a2,2,0,1,1,4.1,0V383A2.05,2.05,0,0,1,595.47,385.07Z" fill="#bdb0aa"/><path d="M630.68,385.07a2.05,2.05,0,0,1-2-2.05V350.75a2,2,0,0,1,4.1,0V383A2.05,2.05,0,0,1,630.68,385.07Z" fill="#bdb0aa"/><path d="M665.9,385.07a2,2,0,0,1-2-2.05V350.75a2.05,2.05,0,0,1,4.1,0V383A2.05,2.05,0,0,1,665.9,385.07Z" fill="#bdb0aa"/><path d="M701.11,385.07a2.05,2.05,0,0,1-2.05-2.05V350.75a2.05,2.05,0,1,1,4.1,0V383A2.05,2.05,0,0,1,701.11,385.07Z" fill="#bdb0aa"/><path d="M736.32,385.07a2.05,2.05,0,0,1-2.05-2.05V350.75a2.05,2.05,0,1,1,4.1,0V383A2,2,0,0,1,736.32,385.07Z" fill="#bdb0aa"/><path d="M771.54,385.07a2.05,2.05,0,0,1-2-2.05V350.75a2.05,2.05,0,0,1,4.1,0V383A2.05,2.05,0,0,1,771.54,385.07Z" fill="#bdb0aa"/><path d="M806.75,385.07a2.05,2.05,0,0,1-2-2.05V350.75a2,2,0,0,1,4.1,0V383A2.05,2.05,0,0,1,806.75,385.07Z" fill="#bdb0aa"/><path d="M844,350.75V383a2.05,2.05,0,1,1-4.1,0V350.75a2.05,2.05,0,1,1,4.1,0Z" fill="#bdb0aa"/><path d="M874.49,350.75V383a2.05,2.05,0,1,1-4.1,0V350.75a2.05,2.05,0,1,1,4.1,0Z" fill="#bdb0aa"/><path d="M844,350.75V383a2.05,2.05,0,1,1-4.1,0V350.75a2.05,2.05,0,1,1,4.1,0Z" fill="#7f7774"/><path d="M874.49,350.75V383a2.05,2.05,0,1,1-4.1,0V350.75a2.05,2.05,0,1,1,4.1,0Z" fill="#7f7774"/><path d="M282,650.71a96,96,0,0,1-161.24,70.41,94.87,94.87,0,0,0,94.77-161.81A96.06,96.06,0,0,1,282,650.71Z" fill="#547b66"/><path d="M250.57,632.92a94.86,94.86,0,0,1-129.78,88.2,96,96,0,0,1,94.77-161.81A94.7,94.7,0,0,1,250.57,632.92Z" fill="#5b8b75"/><path d="M214.82,893.73H160.66c16.77-8.6,21.47-77.9,22.13-120.52.16-10.54.07-19.44-.14-25.4-1.08-30-44-65.45-44-65.45,13.67,3.89,51.74,56.87,55,59.14s16.22-20,16.22-20c2.15,1.2,5-.54,5-.54l-20.38,26.82c-1.16,14.86-1.83,28.22-2.1,40.23h0C190.09,886.91,214.82,893.73,214.82,893.73Z" fill="#8c6e66"/><path d="M214.82,721l-20.38,26.82c-1.16,14.86-1.83,28.22-2.1,40.23l-9.55-14.83c.16-10.54.07-19.44-.14-25.4-1.08-30-44-65.45-44-65.45,13.67,3.89,51.74,56.87,55,59.14s16.22-20,16.22-20C212,722.73,214.82,721,214.82,721Z" fill="#6b4a43"/><path d="M103.6,601.53c6.73,2,10.82,8.2,10.82,8.2s-6.81,3-13.54,1.06-10.81-8.2-10.81-8.2S96.88,599.55,103.6,601.53Z" fill="#547b66"/><path d="M114.87,599.31a14.8,14.8,0,0,1,1.23,9,12.84,12.84,0,0,1-8.16-15A14.83,14.83,0,0,1,114.87,599.31Z" fill="#547b66"/><path d="M173.56,554.71a14.8,14.8,0,0,1-3.32,8.5,12.86,12.86,0,0,1,.15-17.06A14.83,14.83,0,0,1,173.56,554.71Z" fill="#547b66"/><path d="M254,647c-4.78,5.13-12.18,6-12.18,6s.34-7.45,5.12-12.58,12.18-6,12.18-6S258.77,641.89,254,647Z" fill="#5b8b75"/><path d="M250.93,658.1a14.85,14.85,0,0,1-8.63-2.94,12.82,12.82,0,0,1,17-.6A14.83,14.83,0,0,1,250.93,658.1Z" fill="#5b8b75"/><path d="M96.86,697c7,.75,13.13-3.45,13.13-3.45s-5.13-5.4-12.1-6.15-13.13,3.45-13.13,3.45S89.89,696.26,96.86,697Z" fill="#5b8b75"/><path d="M106.43,703.36a14.81,14.81,0,0,0,4.59-7.88,14.79,14.79,0,0,0-8.66,2.84,14.78,14.78,0,0,0-4.6,7.88A14.82,14.82,0,0,0,106.43,703.36Z" fill="#5b8b75"/><path d="M1187.79,650.71a96,96,0,0,1-161.23,70.41,94.87,94.87,0,0,0,94.77-161.81A96.05,96.05,0,0,1,1187.79,650.71Z" fill="#547b66"/><path d="M1156.34,632.92a94.86,94.86,0,0,1-129.78,88.2,96,96,0,0,1,94.77-161.81A94.7,94.7,0,0,1,1156.34,632.92Z" fill="#5b8b75"/><path d="M1120.59,893.73h-54.16c16.77-8.6,21.47-77.9,22.12-120.52.16-10.54.08-19.44-.14-25.4-1.07-30-44-65.45-44-65.45,13.67,3.89,51.74,56.87,55,59.14s16.22-20,16.22-20c2.15,1.2,5-.54,5-.54l-20.38,26.82c-1.16,14.86-1.83,28.22-2.1,40.23h0C1095.86,886.91,1120.59,893.73,1120.59,893.73Z" fill="#8c6e66"/><path d="M1120.59,721l-20.38,26.82c-1.16,14.86-1.83,28.22-2.1,40.23l-9.56-14.83c.16-10.54.08-19.44-.14-25.4-1.07-30-44-65.45-44-65.45,13.67,3.89,51.74,56.87,55,59.14s16.22-20,16.22-20C1117.78,722.73,1120.59,721,1120.59,721Z" fill="#6b4a43"/><path d="M1009.37,601.53c6.72,2,10.82,8.2,10.82,8.2s-6.81,3-13.54,1.06-10.82-8.2-10.82-8.2S1002.64,599.55,1009.37,601.53Z" fill="#547b66"/><path d="M1020.64,599.31a14.8,14.8,0,0,1,1.23,9,12.84,12.84,0,0,1-8.16-15A14.83,14.83,0,0,1,1020.64,599.31Z" fill="#547b66"/><path d="M1079.33,554.71a14.8,14.8,0,0,1-3.32,8.5,12.86,12.86,0,0,1,.15-17.06A14.83,14.83,0,0,1,1079.33,554.71Z" fill="#547b66"/><path d="M1159.76,647c-4.78,5.13-12.18,6-12.18,6s.34-7.45,5.11-12.58,12.18-6,12.18-6S1164.53,641.89,1159.76,647Z" fill="#5b8b75"/><path d="M1156.7,658.1a14.81,14.81,0,0,1-8.63-2.94,12.82,12.82,0,0,1,17-.6A14.83,14.83,0,0,1,1156.7,658.1Z" fill="#5b8b75"/><path d="M1002.63,697c7,.75,13.13-3.45,13.13-3.45s-5.13-5.4-12.1-6.15-13.13,3.45-13.13,3.45S995.66,696.26,1002.63,697Z" fill="#5b8b75"/><path d="M1012.2,703.36a14.81,14.81,0,0,0,4.59-7.88,12.83,12.83,0,0,0-13.26,10.72A14.82,14.82,0,0,0,1012.2,703.36Z" fill="#5b8b75"/><path d="M699.43,630.38c.43-3.22.43-3.27,1-6.51.21-1.07.41-2.15.67-3.22l4.49-19.53H491.91l18.29,52.49H688.81V769.49h15.31V660.33l-5-26.73C699.17,632.52,699.28,631.45,699.43,630.38Zm187.19-29.26V486.06H316.91V601.12h-8V847.71H510.2V653.61H688.81v194.1H892.59V601.12ZM769.09,587.34v-80h96.5v80Zm-436.56-80H429v80h-96.5ZM866.36,656.11V818.69H704.12V660.33l-5-26.73c.07-1.08.18-2.15.33-3.22.43-3.22.43-3.27,1-6.51.21-1.07.41-2.15.67-3.22l4.49-19.53H491.91l-4.5,19.53a94.19,94.19,0,0,0-2,13l-1.78,22.51h8V818.69h-162V656.11l-5.21-22.51v0a91.85,91.85,0,0,1,2-12.89l4.49-19.56H444.19V509.83H748.27v91.29H866.64l-4.49,19.53a88.46,88.46,0,0,0-2,13l-1.81,22.51Z" fill="url(#linear-gradient)"/><rect x="379.4" y="816.85" width="21.15" height="10.31" rx="1.64" fill="#dac9af"/><rect x="316.92" y="486.06" width="569.68" height="115.05" fill="url(#linear-gradient-2)"/><polygon points="329.6 818.69 329.6 646.38 338.8 646.38 338.8 809.38 344.05 809.38 481.16 809.38 481.16 646.38 482.73 646.38 483.63 656.12 490.37 656.12 490.37 818.69 329.6 818.69" fill="#faac68"/><rect x="344.05" y="646.38" width="137.11" height="163" fill="#856f97"/><rect x="338.8" y="646.38" width="5.25" height="163" fill="#944537"/><rect x="344.05" y="646.38" width="137.11" height="91.02" fill="#beb5c7"/><rect x="344.05" y="711.99" width="137.11" height="10.9" fill="#a192b0"/><rect x="344.05" y="689.8" width="137.11" height="10.9" fill="#a192b0"/><rect x="344.05" y="646.38" width="137.11" height="31.77" fill="#a192b0"/><polygon points="856.21 667.25 856.21 809.89 718.27 809.89 718.27 663.24 856.21 667.25" fill="#856f97"/><rect x="719.1" y="667.25" width="137.11" height="70.15" fill="#beb5c7"/><rect x="719.1" y="711.99" width="137.11" height="10.9" fill="#a192b0"/><rect x="719.1" y="689.8" width="137.11" height="10.9" fill="#a192b0"/><rect x="719.1" y="649.88" width="137.11" height="28.27" fill="#a192b0"/><rect x="864.31" y="507.31" width="1.27" height="80.03" fill="#406780"/><rect x="427.76" y="507.31" width="1.27" height="80.03" fill="#406780"/><rect x="747.19" y="509.82" width="1.09" height="91.29" fill="#406780"/><path d="M444.19,509.83v91.29h303V509.83ZM702.44,545,713,571.71h-7.22l-1.09-2.91-1.56-4.06H691.52l-2.53,7h-7l1.86-4.82,10-25.92h7Zm-22.71,26.68h-6.68V541h6.68Zm-13.52-6-1.92-3,0-.08-.41-.53-1.12-1.41-1.45-1.35-1.84-1.22H660l1.81,1.22,1.48,1.35,1,1.31.49.63.46.72,1.5,2.32,3.73,6h-.54Zm-17-11.74h-.53v-7.79h.53Zm0,4.93v12.81h-.53V558.9ZM637.32,541v5.21h-16.4V553H636.2v5.18H620.92v8.35h17v5.18H614.26V541Zm-26.48,5.21h-9v25.53h-6.69V546.18h-9V541h24.7Zm-27.79,0H566.67V553h15.26v5.18H566.67v8.35h17v5.18H560V541h23.07ZM555.47,541v5.21h-14.7v7.28h12.68v5.18H540.77v13.07h-6.69V541ZM528,563.34l3.32,8.37h-7.22L523,568.8l-1.56-4.06H509.84l-2.5,7h-7.07l.08-.2v0l2-5.21,9.74-25.3h7l1.6,4.06Zm-30.75-17.13,1.31,3.24L493,550.78l-.51.13h-.56l-.31-.77v0l-.51-1.32-1.42-1.64-1.89-1-2-.31-1.28.1-1.45.46-1.31.77-1.12,1.07-.92,1.43-.66,1.79-.41,2.19-.13,2.55.13,2.71.41,2.27.64,1.87.89,1.45,1.12,1.07,1.28.8.59.17.84.28,1.22.11,2.1-.33,1.93-1.2.82-.9.69-1.12,1-2.94h.54l5.94,1.92-.79,2.35-.08.15-.94,1.89-1.25,1.71-1.48,1.38-1.71,1.07-1.91.77-2.12.45-2.35.16h-.53l-2.89-.28L480,571.2l-1.83-1.05-.51-.28-2.1-1.81-1.71-2.3-1.22-2.65-.71-3.06-.26-3.43.26-3.62.71-3.19.18-.39,1-2.4,1.74-2.32,2.09-1.86,1.51-.82.92-.51,2.73-.79,3.06-.28h.53l2.66.23,2.4.61,2.14,1.05,1.86,1.45,1,1.1.84,1.3ZM656.05,541h-.53l4.21.21h.53Z" fill="#d66d45"/><rect x="553.54" y="407.97" width="83.8" height="294.99" transform="translate(1150.9 -39.97) rotate(90)" fill="#a62c32"/><path d="M479.59,538.9a11.52,11.52,0,1,1-11.52-11.52A11.52,11.52,0,0,1,479.59,538.9Z" fill="#870e19"/><path d="M737.45,583.6a11.52,11.52,0,1,1-11.51-11.52A11.51,11.51,0,0,1,737.45,583.6Z" fill="#870e19"/><ellipse cx="713.46" cy="534.5" rx="11.51" ry="11.52" fill="#870e19"/><ellipse cx="520.1" cy="571.7" rx="11.51" ry="11.52" fill="#870e19"/><path d="M481.61,581.05a11.52,11.52,0,1,1-11.52-11.52A11.52,11.52,0,0,1,481.61,581.05Z" fill="#870e19"/><path d="M648.88,540.45a11.52,11.52,0,1,1-11.51-11.52A11.51,11.51,0,0,1,648.88,540.45Z" fill="#870e19"/><path d="M566.43,539.06a11.52,11.52,0,1,1-11.51-11.52A11.51,11.51,0,0,1,566.43,539.06Z" fill="#870e19"/><polygon points="892.6 633.6 892.6 601.11 944.65 601.11 981.64 601.11 981.64 698.65 952.7 698.65 892.6 698.65 892.6 633.6" fill="#faac68"/><rect x="896.34" y="604.86" width="81.55" height="90.05" fill="#43384d"/><polygon points="688.82 653.6 688.82 847.7 688.82 865.08 685.42 865.08 685.42 660.33 606.2 660.33 523.54 660.33 520.1 660.33 520.1 893.74 513.45 893.74 513.45 653.6 688.82 653.6" fill="#b8a78b"/><polygon points="688.82 865.08 688.82 847.7 892.6 847.7 892.6 865.08 886.08 865.08 688.82 865.08" fill="#d6c2a1"/><polygon points="513.45 893.74 503.67 893.74 503.67 865.08 510.19 865.08 510.19 847.7 510.19 653.6 513.45 653.6 513.45 893.74" fill="#818e85"/><rect x="981.64" y="601.11" width="4.26" height="97.54" fill="#944537"/><polygon points="682.3 893.74 682.3 865.08 685.42 865.08 688.82 865.08 886.08 865.08 886.08 893.74 682.3 893.74" fill="#b8a78b"/><path d="M606.19,660.33V893.74h76.12V865.07h3.11V660.33Zm18.27,134.15v31.28h-8.34V794.48Zm54.23-11.08H616.37V670.61h62.32Z" fill="#0d89a1"/><path d="M523.55,660.33V893.74h82.64V660.33Zm65.37,134.15h8.32v31.28h-8.32Zm7.81-10.39H533V669.92h63.69Z" fill="#0d89a1"/><rect x="533.03" y="784.1" width="63.69" height="4.45" fill="#0b6f83"/><rect x="616.41" y="783.41" width="62.28" height="4.45" fill="#0b6f83"/><rect x="616.13" y="794.49" width="62.56" height="88.47" fill="#0b6f83"/><rect x="533.51" y="794.49" width="62.56" height="88.47" fill="#0b6f83"/><rect x="520.1" y="660.33" width="3.44" height="233.41" fill="#09637e"/><polygon points="308.88 847.7 510.19 847.7 510.19 865.08 503.67 865.08 308.88 865.08 308.88 847.7" fill="#d6c2a1"/><rect x="864.91" y="656.12" width="1.45" height="162.57" fill="#944537"/><rect x="490.37" y="656.12" width="1.27" height="162.57" fill="#944537"/><polygon points="944.66 543.59 944.66 486.06 886.61 486.06 886.61 543.59 886.61 601.11 944.66 601.11 944.66 543.59" fill="#6e6553"/><polygon points="952.7 791.22 952.7 698.65 892.6 698.65 892.6 865.08 886.08 865.08 886.08 893.74 914.5 893.74 914.5 889.69 933.64 889.69 933.64 795.13 895.81 795.13 895.81 791.22 952.7 791.22" fill="#6e6553"/><polygon points="858.35 656.12 864.91 656.12 864.91 818.69 704.14 818.69 704.14 662.37 712.84 662.37 712.84 809.89 718.27 809.89 856.21 809.89 856.21 667.25 855.77 659.75 858.35 656.12" fill="#faac68"/><polygon points="712.84 809.89 712.84 667.25 718.27 653.6 718.27 809.89 712.84 809.89" fill="#944537"/><rect x="769.08" y="507.31" width="95.23" height="80.03" fill="#14a19b"/><rect x="772.83" y="511.06" width="87.74" height="72.54" fill="#43384d"/><rect x="332.53" y="507.31" width="95.23" height="80.03" fill="#14a19b"/><rect x="336.28" y="511.06" width="87.74" height="72.54" fill="#43384d"/><polygon points="302.36 893.74 302.36 865.08 308.88 865.08 503.67 865.08 503.67 893.74 302.36 893.74" fill="#b8a78b"/><polygon points="944.65 486.06 886.61 486.06 841.83 378.52 875.5 378.52 944.65 486.06" fill="#871940"/><rect x="929.95" y="791.22" width="79.41" height="3.91" fill="#944537"/><rect x="895.81" y="791.22" width="34.14" height="3.91" fill="#e9895a"/><rect x="952.95" y="889.69" width="37.71" height="4.04" fill="#944537"/><rect x="949.82" y="795.13" width="21.7" height="94.56" fill="#944537"/><rect x="933.64" y="795.13" width="16.18" height="94.56" fill="#e9895a"/><rect x="914.5" y="889.69" width="38.45" height="4.04" fill="#e9895a"/><rect x="616.37" y="670.61" width="62.32" height="8.32" fill="#beb5c7"/><rect x="616.37" y="678.93" width="62.32" height="11.24" fill="#a192b0"/><polygon points="678.69 690.17 678.69 704.84 617.82 704.84 616.37 704.84 616.37 690.17 678.69 690.17" fill="#beb5c7"/><rect x="617.82" y="704.84" width="60.87" height="78.57" fill="#856f97"/><rect x="616.37" y="704.84" width="1.45" height="78.57" fill="#09637e"/><rect x="623.55" y="794.49" width="0.9" height="31.26" fill="#993d46"/><rect x="616.13" y="794.49" width="7.42" height="31.26" fill="#b69429"/><rect x="533.03" y="669.92" width="63.69" height="9.01" fill="#beb5c7"/><polygon points="596.72 690.17 596.72 704.84 534.47 704.84 533.03 704.84 533.03 690.17 596.72 690.17" fill="#beb5c7"/><rect x="533.03" y="704.84" width="1.45" height="79.26" fill="#09637e"/><rect x="534.47" y="704.84" width="62.24" height="79.26" fill="#856f97"/><rect x="533.03" y="678.93" width="63.69" height="11.24" fill="#a192b0"/><rect x="596.34" y="794.49" width="0.91" height="31.26" fill="#993d46"/><rect x="588.92" y="794.49" width="7.42" height="31.26" fill="#b69429"/><polygon points="1093.25 458.06 1096.52 458.06 1103.94 520.31 1098.74 520.31 1093.25 458.06" fill="#516073"/><polygon points="1096.52 458.06 1093.25 458.06 1099.42 444.31 1104.85 444.31 1096.52 458.06" fill="#516073"/><polygon points="1099.42 444.31 1093.25 458.06 1071.28 458.06 1062.95 444.31 1099.42 444.31" fill="#e87a3f"/><polygon points="1071.28 458.06 1093.25 458.06 1098.74 520.31 1091.01 520.31 1089.16 520.31 1076.8 520.31 1063.86 520.31 1071.28 458.06" fill="#f9d696"/><rect x="1099" y="883.73" width="7.92" height="10" fill="#516073"/><polygon points="1059.43 893.74 1059.43 883.73 1076.8 883.73 1089.16 883.73 1091.01 883.73 1099 883.73 1099 893.74 1059.43 893.74" fill="#bfbb8a"/><rect x="1076.79" y="520.32" width="12.37" height="280.22" fill="url(#linear-gradient-3)"/><rect x="1076.79" y="883.72" width="12.37" height="0.02" fill="url(#linear-gradient-4)"/><rect x="1089.16" y="800.54" width="1.85" height="83.18" fill="#516073"/><rect x="1089.16" y="520.32" width="1.85" height="280.22" fill="#516073"/><rect x="1089.16" y="883.72" width="1.85" height="0.02" fill="#516073"/><polygon points="134.59 458.06 137.87 458.06 145.28 520.31 140.09 520.31 134.59 458.06" fill="#516073"/><polygon points="137.87 458.06 134.59 458.06 140.76 444.31 146.2 444.31 137.87 458.06" fill="#516073"/><polygon points="140.76 444.31 134.59 458.06 112.62 458.06 104.29 444.31 140.76 444.31" fill="#e87a3f"/><polygon points="112.62 458.06 134.59 458.06 140.09 520.31 132.35 520.31 130.51 520.31 118.14 520.31 105.21 520.31 112.62 458.06" fill="#f9d696"/><rect x="140.35" y="883.73" width="7.92" height="10" fill="#516073"/><polygon points="100.77 893.74 100.77 883.73 118.14 883.73 130.51 883.73 132.35 883.73 140.35 883.73 140.35 893.74 100.77 893.74" fill="#bfbb8a"/><rect x="118.14" y="520.31" width="12.37" height="363.42" fill="url(#linear-gradient-5)"/><rect x="130.51" y="520.31" width="1.84" height="363.42" fill="#516073"/><rect x="200.79" y="880.33" width="1.38" height="13.41" fill="#944537"/><rect x="190.84" y="880.33" width="9.94" height="13.41" fill="#faac68"/><path d="M187.52,753V880.34H271V753Zm79,122.84H192V757.49h74.51Z" fill="#faac68"/><rect x="267.69" y="880.33" width="1.38" height="13.41" fill="#944537"/><rect x="257.74" y="880.33" width="9.94" height="13.41" fill="#faac68"/><rect x="271" y="752.95" width="1.38" height="127.37" fill="#944537"/><rect x="192.02" y="757.5" width="74.49" height="118.29" fill="#43384d"/><polygon points="886.61 486.06 316.92 486.06 382.13 378.52 841.83 378.52 886.61 486.06" fill="url(#linear-gradient-6)"/><rect x="648.73" y="546.18" width="0.54" height="7.8" fill="#be7964"/><polygon points="445.2 378.52 393.74 486.06 382.53 486.06 433.99 378.52 445.2 378.52" fill="#c13825"/><polygon points="502.42 378.52 464.7 486.06 453.99 486.06 491.7 378.52 502.42 378.52" fill="#c13825"/><polygon points="559.7 378.52 535.73 486.06 525.37 486.06 549.34 378.52 559.7 378.52" fill="#c13825"/><polygon points="617.06 378.52 606.85 486.06 596.69 486.06 606.9 378.52 617.06 378.52" fill="#c13825"/><polygon points="678.03 486.06 667.92 486.06 664.38 378.52 674.5 378.52 678.03 486.06" fill="#c13825"/><polygon points="749.3 486.06 739.07 486.06 721.78 378.52 732.03 378.52 749.3 486.06" fill="#c13825"/><polygon points="820.66 486.06 810.13 486.06 779.1 378.52 789.63 378.52 820.66 486.06" fill="#c13825"/><polygon points="332.53 587.35 354.44 601.11 444.2 601.11 444.2 526.52 429.02 507.31 429.02 587.35 332.53 587.35" fill="#bdb0aa" style="mix-blend-mode:multiply"/><polygon points="768.97 587.35 790.88 601.11 880.64 601.11 880.64 526.52 865.46 507.31 865.46 587.35 768.97 587.35" fill="#bdb0aa" style="mix-blend-mode:multiply"/><polygon points="748.27 509.82 763.96 527.03 763.96 601.11 748.27 601.11 748.27 509.82" fill="#bdb0aa" style="mix-blend-mode:multiply"/><polygon points="316.92 486.06 329.6 499.52 886.61 499.52 886.61 486.06 316.92 486.06" fill="#bdb0aa" style="mix-blend-mode:multiply"/><polygon points="1076.8 520.31 1076.8 547.33 1089.16 563.62 1089.16 520.31 1076.8 520.31" fill="#bdb0aa" style="mix-blend-mode:multiply"/><polygon points="118.14 520.31 118.14 547.33 130.51 563.62 130.51 520.31 118.14 520.31" fill="#bdb0aa" style="mix-blend-mode:multiply"/><rect x="1076.79" y="800.54" width="12.37" height="83.18" fill="#ac783f"/><rect x="1076.79" y="788.69" width="12.37" height="6.48" fill="#ac783f"/><rect x="118.14" y="800.54" width="12.37" height="83.18" fill="#ac783f"/><rect x="118.14" y="788.69" width="12.37" height="6.48" fill="#ac783f"/><polygon points="984.03 773.24 983.65 791.22 979.77 791.22 979.77 773.24 984.03 773.24" fill="#0b6f83"/><polygon points="984.09 770.42 984.03 773.24 979.77 773.24 979.77 770.42 984.09 770.42" fill="#d2cec7"/><polygon points="984.12 768.57 984.09 770.42 979.77 770.42 979.77 768.57 984.12 768.57" fill="#b3afaf"/><polygon points="992.39 773.24 988.57 791.22 983.65 791.22 984.03 773.24 992.39 773.24" fill="#095c6d"/><polygon points="991.13 770.42 991.13 773.24 984.03 773.24 984.09 770.42 991.13 770.42" fill="#bcb8b2"/><polygon points="989.25 768.57 989.25 770.42 984.09 770.42 984.12 768.57 989.25 768.57" fill="#9d9a9a"/><rect x="978.05" y="768.57" width="1.72" height="1.85" fill="#cfcaca"/><rect x="976.17" y="770.42" width="3.6" height="2.82" fill="#eee9e1"/><polygon points="979.77 773.24 979.77 791.22 978.73 791.22 974.91 773.24 979.77 773.24" fill="#0d879f"/><polygon points="933.64 795.13 933.73 829.76 949.82 842.41 949.82 795.13 933.64 795.13" fill="#bdb0aa" style="mix-blend-mode:multiply"/><polygon points="446.15 847.7 446.15 879.62 250.03 879.75 250.03 847.83 361.25 847.83 410.13 847.73 422.84 847.73 425.68 847.72 440.19 847.72 446.15 847.7" fill="#b7cd8f"/><polygon points="458.04 847.78 458.04 879.62 446.15 879.62 446.15 847.7 446.81 847.72 455.47 847.76 458.04 847.78 458.04 847.78" fill="#848484"/><polygon points="473.15 893.59 453.4 893.59 453.4 879.63 458.04 879.63 458.04 879.63 467.8 879.63 470.63 879.63 472.82 879.63 473.15 879.63 473.15 893.59 473.15 893.59 473.15 893.59" fill="#ad5546"/><polygon points="453.4 879.46 453.4 893.59 235.73 893.59 235.73 893.59 235.73 883.54 235.73 879.59 250.03 879.58 446.15 879.46 453.4 879.46" fill="#faac68"/><polygon points="58.06 847.71 58.06 879.62 0.65 879.67 0.65 847.76 23.45 847.74 35.65 847.74 38.4 847.71 58.06 847.71" fill="#b7cd8f"/><polygon points="69.48 847.78 69.48 879.62 58.05 879.62 58.05 847.7 58.69 847.72 67.01 847.76 69.48 847.78 69.48 847.78" fill="#848484"/><polygon points="84 893.59 65.02 893.59 65.02 879.63 69.48 879.63 69.48 879.63 78.85 879.63 81.57 879.63 83.67 879.63 84 879.63 84 893.59 84 893.59 84 893.59" fill="#ad5546"/><polygon points="65.02 879.45 65.02 893.59 0.65 893.59 0.65 879.5 58.06 879.45 65.02 879.45" fill="#faac68"/><polygon points="1199.67 847.81 1199.67 879.7 1140.68 879.73 1136.73 879.73 1132.82 879.75 1115.42 879.75 1115.42 847.81 1199.67 847.81" fill="#b7cd8f"/><polygon points="1199.67 879.52 1199.67 893.59 1101.41 893.59 1101.41 879.6 1115.42 879.57 1132.82 879.57 1136.73 879.55 1140.68 879.55 1199.67 879.52" fill="#faac68"/><rect x="512.47" y="613.52" width="21.15" height="10.31" rx="1.64" fill="#dac9af"/><rect x="537.16" y="613.52" width="21.16" height="10.31" rx="1.64" fill="#dac9af"/><rect x="392.44" y="831.06" width="21.15" height="10.31" rx="1.64" fill="#dac9af"/><rect x="472.44" y="831.06" width="21.15" height="10.31" rx="1.64" fill="#dac9af"/><rect x="757.63" y="831.06" width="21.15" height="10.31" rx="1.64" fill="#fbe7c9"/><rect x="337.51" y="831.06" width="21.15" height="10.31" rx="1.64" fill="#dac9af"/><rect x="363.36" y="831.06" width="21.15" height="10.31" rx="1.64" fill="#dac9af"/><rect x="729.93" y="831.06" width="21.15" height="10.31" rx="1.64" fill="#dac9af"/><rect x="785.32" y="831.06" width="21.15" height="10.31" rx="1.64" fill="#dac9af"/><rect x="856.05" y="831.06" width="21.15" height="10.31" rx="1.64" fill="#dac9af"/><rect x="586.14" y="629.03" width="21.15" height="10.31" rx="1.64" fill="#dac9af"/><rect x="655.97" y="629.03" width="21.15" height="10.31" rx="1.64" fill="#dac9af"/><rect x="524.82" y="628.49" width="21.15" height="10.31" rx="1.64" fill="#fbe7c9"/><rect x="421.34" y="831.06" width="21.15" height="10.31" rx="1.64" fill="#fbe7c9"/><rect x="610.08" y="613.52" width="21.15" height="10.31" rx="1.64" fill="#fbe7c9"/><rect x="622.62" y="628.83" width="21.15" height="10.31" rx="1.64" fill="#fbe7c9"/><polygon points="338.8 809.38 391.88 809.38 391.88 751.83 428.39 751.83 465.22 809.38 481.16 809.38 481.16 780.61 490.37 780.61 491.64 818.69 329.6 818.69 344.05 836.21 506.79 836.21 506.79 804.28 511.73 804.28 510.19 865.08 503.67 865.08 503.67 893.74 682.3 893.74 682.3 873.98 635.64 784.1 635.64 763.82 678.69 763.82 678.69 751.83 685.42 751.83 685.42 700.7 688.82 700.7 688.82 653.6 510.19 653.6 491.91 601.11 338.8 649.88 338.8 809.38" fill="#bdb0aa" style="mix-blend-mode:multiply"/><rect x="682.3" y="865.08" width="203.78" height="10.71" fill="#dac9af"/><rect x="458.04" y="865.08" width="45.63" height="10.71" fill="#dac9af"/><path d="M218,775.21c-.23-2.55-.74-3.83-1.53-3.83-.44,0-.87.53-1.3,1.56-.28.66-.54,1.4-.82,2.27-.15.48-.33,1-.48,1.58l0-.74v-.84c0-.56,0-1,0-1.38a9.41,9.41,0,0,0-.21-2.22c-.13-.51-.35-.77-.71-.77s-1.1.74-1.74,2.22c-.28.69-.56,1.41-.84,2.15s-.66,1.81-1,2.78l-.08-2.45a1.83,1.83,0,0,0,0-.33c0-1.07-.08-2-.15-2.71a8.66,8.66,0,0,0-.16-1.43c-.12-.23-.25-.36-.43-.36s-.15.06-.23.18a.44.44,0,0,0-.13.31,9.64,9.64,0,0,0,.13,1c.08.56.15,1.53.25,3a5.78,5.78,0,0,0,0,.71c0,.51.05.87.08,1.1,0,.87.07,1.58.12,2.09a.23.23,0,0,0,.08.21.76.76,0,0,0,.26,0,.31.31,0,0,0,.25-.1.64.64,0,0,0,.18-.28l.15-.41c.41-1.22.82-2.35,1.2-3.34.18-.49.36-.92.54-1.35.56-1.33,1-2,1.38-2,.17,0,.28.18.33.51s0,.92,0,1.71c0,.33,0,.71,0,1.15s0,.76,0,1.22c-.05.9-.08,1.56-.08,2a.27.27,0,0,0,.31.29.59.59,0,0,0,.33-.13.53.53,0,0,0,.13-.33v0c.33-1.17.61-2.17.89-3,.66-2,1.22-3,1.63-3s.59.56.72,1.71c.05.38.1.81.12,1.3.06,1,.08,2.22.08,3.65a.28.28,0,0,0,.31.31A.47.47,0,0,0,218,779a.45.45,0,0,0,.13-.33C218.17,777.33,218.12,776.18,218,775.21Z" fill="#eaeaea"/><path d="M226.1,774.77s-.07.06-.15.18l-.1.26a8.28,8.28,0,0,1-1.28,2,2.53,2.53,0,0,1-2,.9,1.6,1.6,0,0,1-1.25-.51,2.21,2.21,0,0,1-.44-1.46,5.55,5.55,0,0,1,.08-.89,3.41,3.41,0,0,1,.1-.54,10,10,0,0,0,2.09-.58,5.74,5.74,0,0,0,1.64-.92,1.45,1.45,0,0,0,.63-1.1.84.84,0,0,0-.41-.77,2.07,2.07,0,0,0-1-.25,2.84,2.84,0,0,0-1.91.79,5.34,5.34,0,0,0-1.51,2,6.21,6.21,0,0,0-.46,1.38,5.16,5.16,0,0,0-.13,1.1,2.54,2.54,0,0,0,.69,2,2.35,2.35,0,0,0,1.71.64,3,3,0,0,0,2.12-.82,6,6,0,0,0,1.28-1.81,7.2,7.2,0,0,0,.38-1.07.82.82,0,0,0,0-.21C226.2,774.85,226.18,774.77,226.1,774.77Zm-4.39-1.71a4.36,4.36,0,0,1,.95-1,2,2,0,0,1,1.15-.38,1.47,1.47,0,0,1,.63.13.47.47,0,0,1,.26.41c0,.18-.18.38-.56.66a7.3,7.3,0,0,1-1.35.74,5.74,5.74,0,0,1-1.56.41A3.85,3.85,0,0,1,221.71,773.06Z" fill="#eaeaea"/><path d="M232.94,775.21c0-.18,0-.36,0-.51a11.78,11.78,0,0,0-.22-2.15c-.13-.56-.34-.84-.67-.84-.48,0-1,.49-1.48,1.48-.3.59-.61,1.25-.92,2-.23.53-.46,1.1-.71,1.73,0,.11-.08.18-.1.26l-.08.23q0-.42-.15-2.07v-.15l-.05-.69c-.05-1.15-.11-2-.16-2.48s-.12-.76-.23-.76a.81.81,0,0,0-.48.15.43.43,0,0,0-.21.38,1.08,1.08,0,0,0,.06.39c.1.66.17,1.48.25,2.4l.08.61.18,1.68.12,1.33a.18.18,0,0,0,.08.18.83.83,0,0,0,.26,0,.66.66,0,0,0,.3-.07.71.71,0,0,0,.23-.26l.23-.66c.31-.82.61-1.58.89-2.22s.41-1,.59-1.33c.43-.92.84-1.35,1.2-1.35.13,0,.23.2.26.58a14,14,0,0,1,0,1.56v.54c0,.53,0,1.17-.08,1.91-.08.92-.1,1.59-.1,2,0,.07,0,.15.1.17a.46.46,0,0,0,.28.08.6.6,0,0,0,.38-.13A.45.45,0,0,0,233,779C233,777.4,233,776.15,232.94,775.21Z" fill="#eaeaea"/><path d="M241.36,778.32a2.22,2.22,0,0,1-.33-.53,3.9,3.9,0,0,1-.23-1c0-.33-.08-.84-.1-1.58,0-.28,0-.64,0-1,0-1.25-.07-2.12-.07-2.63,0-.1-.06-.2-.21-.3a.57.57,0,0,0-.38-.16s-.08,0-.1.13a2,2,0,0,0-.11.38,6.84,6.84,0,0,1-.28,1,19.67,19.67,0,0,1-1.07,2.22l-.2.36a16.67,16.67,0,0,1-1.23,1.86c-.46.61-.84.92-1.12.92s-.36-.43-.36-1.28a13.19,13.19,0,0,1,.08-1.5,7.49,7.49,0,0,1,.26-1.51,8.75,8.75,0,0,1,.74-1.91,2.1,2.1,0,0,0,.17-.36c0-.13-.15-.18-.4-.18a.35.35,0,0,0-.26.13,1.54,1.54,0,0,0-.28.46,8.45,8.45,0,0,0-.69,2.19,11.33,11.33,0,0,0-.18,1.18,10.23,10.23,0,0,0-.1,1.4,7.2,7.2,0,0,0,.15,1.76.71.71,0,0,0,.72.57c.33,0,.76-.34,1.32-1a16.78,16.78,0,0,0,1.61-2.43l.15-.3a21.4,21.4,0,0,0,1.1-2.2,3.45,3.45,0,0,1,0,.59v.66c0,.34,0,.67,0,1,0,.87,0,1.48.08,1.84a5.28,5.28,0,0,0,.33,1.4c.18.46.38.66.59.66a.44.44,0,0,0,.53-.53A.73.73,0,0,0,241.36,778.32Z" fill="#eaeaea"/><path d="M213.85,802.91s0,0-.1,0-.1.08-.2.26a1.73,1.73,0,0,0-.15.3,8.79,8.79,0,0,1-1.36,1.18,2.75,2.75,0,0,1-1.53.46,1.68,1.68,0,0,1-.94-.28A2.2,2.2,0,0,1,209,804a3,3,0,0,1-.21-1.1,8.52,8.52,0,0,1,.21-1.76,9.52,9.52,0,0,1,.48-1.66c.49-1.2,1-1.81,1.56-1.81a.64.64,0,0,1,.38.15,1.23,1.23,0,0,1,.23.44,5.19,5.19,0,0,1,0,.61.75.75,0,0,1,0,.23c0,.08,0,.15,0,.18s0,.1.11.1.07,0,.12-.15a1.18,1.18,0,0,0,.18-.39,1.44,1.44,0,0,0,.08-.46,1.68,1.68,0,0,0-.28-1A.86.86,0,0,0,211,797a1.35,1.35,0,0,0-1,.56,5.17,5.17,0,0,0-.9,1.41,10.38,10.38,0,0,0-.63,2,8.94,8.94,0,0,0-.28,2,2.6,2.6,0,0,0,.66,2,2.19,2.19,0,0,0,1.68.69,2.59,2.59,0,0,0,1.79-.71,6.29,6.29,0,0,0,1.3-1.43,1.27,1.27,0,0,0,.23-.49A.61.61,0,0,0,213.85,802.91Z" fill="#eaeaea"/><path d="M217.83,801.66a4.49,4.49,0,0,0-.76-.9,1.4,1.4,0,0,1-.23-.25.16.16,0,0,1,0-.1.26.26,0,0,1,0-.08c0-.05,0-.08,0-.08a.53.53,0,0,0-.21,0,.85.85,0,0,0-.46.1.26.26,0,0,0-.18.25.36.36,0,0,0,.13.26,3.53,3.53,0,0,0,.43.41,4.24,4.24,0,0,1,.74.71,1.43,1.43,0,0,1,.26.82,2.15,2.15,0,0,1-.26.89,2.67,2.67,0,0,1-.71.85,1.74,1.74,0,0,1-1,.33c-.74,0-1.1-.36-1.1-1.05a5,5,0,0,1,.18-1.43,7.22,7.22,0,0,1,.49-1.33,11.11,11.11,0,0,1,.63-1,1.16,1.16,0,0,1,.11-.16c.05-.07.07-.1.07-.12a.28.28,0,0,0-.1-.16.61.61,0,0,0-.18,0,.59.59,0,0,0-.43.18,1.16,1.16,0,0,0-.38.51,1.71,1.71,0,0,1-.21.38,7.7,7.7,0,0,0-.56,1.66,8,8,0,0,0-.2,1.56,1.94,1.94,0,0,0,.38,1.23,1.35,1.35,0,0,0,1.12.48,2.33,2.33,0,0,0,1.41-.48,3.93,3.93,0,0,0,.94-1.15,2.65,2.65,0,0,0,.33-1.18A1.71,1.71,0,0,0,217.83,801.66Z" fill="#eaeaea"/><path d="M223.47,796.53A1.49,1.49,0,0,0,223,796a1.12,1.12,0,0,0-.69-.22q-1,0-1.53,1.35a10.28,10.28,0,0,0-.51,3.5c-.15,0-.35.07-.66.1s-.51,0-.71,0-.21.13-.21.36a.22.22,0,0,0,.08.18.35.35,0,0,0,.23.07,6.76,6.76,0,0,0,.71-.1,4.82,4.82,0,0,1,.61-.13v.44c.13,2.14.18,3.72.18,4.72a1.26,1.26,0,0,0,.08.46c.08.15.15.23.25.23a.17.17,0,0,0,.18-.1,1,1,0,0,0,.05-.36c0-.92-.05-2.15-.12-3.68,0-1-.05-1.61-.05-1.84l.91-.15a5.33,5.33,0,0,1,.77-.13,1,1,0,0,1,.43.08.4.4,0,0,0,.23,0c.08,0,.16,0,.21-.2a1.15,1.15,0,0,0,.07-.39c0-.17-.07-.25-.23-.25a8,8,0,0,0-1.09.2c-.08,0-.28,0-.56.13a5.29,5.29,0,0,1-.8.13,10.7,10.7,0,0,1,.36-2.91c.23-.82.61-1.23,1.15-1.23a.69.69,0,0,1,.56.31,2.21,2.21,0,0,1,.41.74.61.61,0,0,0,0,.23.16.16,0,0,0,.13.08c.05,0,.1-.08.15-.26a2.38,2.38,0,0,0,.05-.41A1,1,0,0,0,223.47,796.53Z" fill="#eaeaea"/><path d="M228.3,796.53a1.53,1.53,0,0,0-.49-.52,1.25,1.25,0,0,0-.69-.22q-1,0-1.53,1.35a10.28,10.28,0,0,0-.51,3.5c-.15,0-.38.07-.66.1s-.54,0-.72,0-.2.13-.2.36a.22.22,0,0,0,.08.18.27.27,0,0,0,.2.07,7.06,7.06,0,0,0,.74-.1,5.92,5.92,0,0,1,.59-.13l0,.44c.13,2.14.18,3.72.18,4.72a1.26,1.26,0,0,0,.08.46c.05.15.13.23.23.23a.22.22,0,0,0,.2-.1,1,1,0,0,0,.05-.36c0-.92-.05-2.15-.13-3.68-.05-1-.07-1.61-.07-1.84l.92-.15a5.06,5.06,0,0,1,.76-.13,1.08,1.08,0,0,1,.44.08.37.37,0,0,0,.23,0c.1,0,.17,0,.23-.2a3,3,0,0,0,.05-.39c0-.17-.08-.25-.23-.25a6.9,6.9,0,0,0-1.07.2c-.11,0-.29,0-.59.13a5,5,0,0,1-.77.13,10.7,10.7,0,0,1,.36-2.91c.23-.82.61-1.23,1.15-1.23a.74.74,0,0,1,.56.31,1.74,1.74,0,0,1,.38.74,1.18,1.18,0,0,0,.08.23.14.14,0,0,0,.13.08s.1-.08.12-.26a1.18,1.18,0,0,0,.08-.41A1.13,1.13,0,0,0,228.3,796.53Z" fill="#eaeaea"/><path d="M233.53,801.91c0-1.17-.49-3-2.32-3-1.61,0-2.61,1.5-2.61,3.42s1,3.19,2.73,3.19a4.15,4.15,0,0,0,1.87-.39l-.18-.84a3,3,0,0,1-1.53.33c-1,0-1.89-.63-1.92-2.19h3.91A3.31,3.31,0,0,0,233.53,801.91Zm-4-.28c.1-.82.54-1.89,1.56-1.89s1.43,1.15,1.4,1.89Z" fill="#eaeaea"/><path d="M238.89,802.07c-.06,0-.08,0-.11.15l-.1.2a6.29,6.29,0,0,1-.92,1.64,1.74,1.74,0,0,1-1.43.71,1.12,1.12,0,0,1-.91-.43,1.93,1.93,0,0,1-.31-1.18,6.07,6.07,0,0,1,.13-1.17,6,6,0,0,0,1.5-.49,3.62,3.62,0,0,0,1.18-.74,1.27,1.27,0,0,0,.46-.89.82.82,0,0,0-.28-.64,1.32,1.32,0,0,0-.72-.2,2,2,0,0,0-1.4.64,4.63,4.63,0,0,0-1.07,1.63,5,5,0,0,0-.41,2,2.19,2.19,0,0,0,.48,1.6,1.6,1.6,0,0,0,1.23.54,2,2,0,0,0,1.53-.69,4.48,4.48,0,0,0,.92-1.48,4.2,4.2,0,0,0,.3-1C239,802.14,238.94,802.07,238.89,802.07Zm-3.17-1.38a2.73,2.73,0,0,1,.67-.79,1.32,1.32,0,0,1,.84-.34.58.58,0,0,1,.43.13.37.37,0,0,1,.21.31c0,.15-.13.33-.41.53a4.15,4.15,0,0,1-1,.62,3.57,3.57,0,0,1-1.13.33A3.12,3.12,0,0,1,235.72,800.69Z" fill="#eaeaea"/><path d="M214.31,816.23a1.76,1.76,0,0,0-.91-.23,6.23,6.23,0,0,0-.9.08,3.69,3.69,0,0,0,1.1-2.4.81.81,0,0,0-.41-.74,1.83,1.83,0,0,0-1-.28,7.16,7.16,0,0,0-1.3.13c-.41.1-.89.23-1.46.41a15.56,15.56,0,0,0-1.68.69c-.51.28-.77.48-.77.63a.3.3,0,0,0,.08.23c.05.08.1.11.15.11a1.09,1.09,0,0,0,.41-.21,1.8,1.8,0,0,1,.49-.33c.46-.23.84-.38,1.12-.49,0,.13,0,.39-.08.77s0,.72,0,1,0,.79,0,1.35l.05.62c0,1.07.08,1.94.08,2.6a2.6,2.6,0,0,1-.11.74,3.86,3.86,0,0,0-.1.43.3.3,0,0,0,.08.21.37.37,0,0,0,.2.08.3.3,0,0,0,.23-.08s0-.15.11-.28a8,8,0,0,0,.1-1.46V819a5.6,5.6,0,0,1,0-.64l0-.49.35-.12.59-.23a7.45,7.45,0,0,1,.69-.34l.41-.23a3.51,3.51,0,0,1,1.55-.33,1.39,1.39,0,0,1,.57.1.48.48,0,0,1,.23.41,1.88,1.88,0,0,1-.26,1,7.76,7.76,0,0,1-.74,1.07,7.38,7.38,0,0,1-.84.82,3.66,3.66,0,0,1-.9.69,1.54,1.54,0,0,1-.48.18l-.33.1a1.23,1.23,0,0,0-.36.26.45.45,0,0,0-.15.35.26.26,0,0,0,.1.21.3.3,0,0,0,.2.08,1.36,1.36,0,0,0,.67-.26,7,7,0,0,0,.92-.64,10.21,10.21,0,0,0,1.2-1.15,13.09,13.09,0,0,0,1.12-1.43,2.54,2.54,0,0,0,.41-1.27A1,1,0,0,0,214.31,816.23Zm-3.8.72a4.34,4.34,0,0,1-.48.2l-.36.11c0-.87-.08-1.59-.08-2.15a7.4,7.4,0,0,1,.21-1.51,8.69,8.69,0,0,1,1.09-.28,8.48,8.48,0,0,1,1.2-.1,1.54,1.54,0,0,1,.72.15.54.54,0,0,1,.25.49,2.79,2.79,0,0,1-.71,1.74A6.14,6.14,0,0,1,210.51,817Z" fill="#eaeaea"/><path d="M220.46,820.73a3.91,3.91,0,0,1-.23-.46,6,6,0,0,1-.18-.79c0-.41-.05-1.1-.07-2.12s0-1.74,0-2.17a.34.34,0,0,0-.16-.26.44.44,0,0,0-.28-.1s-.05,0-.07.1a1.3,1.3,0,0,0-.08.31,6.12,6.12,0,0,1-.2.82,19,19,0,0,1-.77,1.81,11.56,11.56,0,0,1-1,1.81c-.33.51-.61.77-.82.77s-.25-.36-.25-1.05a10.43,10.43,0,0,1,.23-2.48,7.18,7.18,0,0,1,.56-1.55.77.77,0,0,0,.1-.31c0-.08-.1-.13-.28-.13a.2.2,0,0,0-.18.1,1.33,1.33,0,0,0-.2.36,7.81,7.81,0,0,0-.49,1.81,11.55,11.55,0,0,0-.23,2.1,6,6,0,0,0,.13,1.45c.08.31.26.46.51.46s.56-.25.95-.81a15,15,0,0,0,1.14-2c.39-.79.69-1.46.92-2.07,0,.13,0,.28,0,.49v.53c0,1.15,0,1.92.07,2.3a5.21,5.21,0,0,0,.23,1.15c.13.36.26.54.41.54a.36.36,0,0,0,.31-.13.57.57,0,0,0,.1-.31A.72.72,0,0,0,220.46,820.73Z" fill="#eaeaea"/><path d="M225.34,815.24a.89.89,0,0,0-.36-.33.81.81,0,0,0-.49-.13,1.06,1.06,0,0,0-.68.38,5.84,5.84,0,0,0-.8,1.13,10.1,10.1,0,0,0-.74,1.73v-2.09a3.58,3.58,0,0,0-.05-.72.22.22,0,0,0-.23-.2c-.23,0-.33.1-.33.31s0,.86.05,1.6c0,.51,0,1,0,1.31V819c0,.77,0,1.36.08,1.74s.12.61.25.61a.27.27,0,0,0,.26-.15.64.64,0,0,0,.07-.31l-.05-.53c0-.16,0-.39,0-.69s-.06-.57-.06-.74a17.08,17.08,0,0,1,1.1-2.53c.38-.67.69-1,.92-1a.73.73,0,0,1,.49.33.69.69,0,0,0,.15.2c0,.08.1.11.15.11s.15-.06.26-.16a.43.43,0,0,0,.15-.28A.61.61,0,0,0,225.34,815.24Z" fill="#eaeaea"/><path d="M231.31,819.6c-.08-.48-.18-1.09-.33-1.81-.18-1-.31-1.76-.36-2.24a.24.24,0,0,1,0-.08v-.1a.18.18,0,0,0-.1-.16.37.37,0,0,0-.2-.07.19.19,0,0,0-.13.05,1.48,1.48,0,0,0-.08.13,8.8,8.8,0,0,1-.61,1.76,8.56,8.56,0,0,1-1.81,2.78,1.06,1.06,0,0,1-.66.36.3.3,0,0,1-.28-.16,1.1,1.1,0,0,1-.08-.51,4.34,4.34,0,0,1,.41-1.63,6.42,6.42,0,0,1,1-1.76,1.64,1.64,0,0,1,1.2-.74.15.15,0,0,1,.13.07.75.75,0,0,1,.13.18c0,.05.07.1.1.1s.13-.12.13-.35a.82.82,0,0,0-.16-.49.37.37,0,0,0-.35-.18,1.9,1.9,0,0,0-1.43.87,7.19,7.19,0,0,0-1.23,2.07,6.24,6.24,0,0,0-.48,2.09,1.82,1.82,0,0,0,.18.85.53.53,0,0,0,.51.3,1.42,1.42,0,0,0,.84-.36,5.48,5.48,0,0,0,.94-1.12,10.19,10.19,0,0,0,1-1.63,12.48,12.48,0,0,0,.58-1.46c.06.46.16,1,.31,1.71s.21,1.18.26,1.61a12.41,12.41,0,0,1,.1,1.46,3.9,3.9,0,0,1-.26,1.35,3.06,3.06,0,0,1-.76,1.2,3.93,3.93,0,0,1-1.46,1c-.33.15-.51.25-.51.36a.39.39,0,0,0,.11.3.33.33,0,0,0,.3.13,2.06,2.06,0,0,0,.92-.33,5.51,5.51,0,0,0,1.05-.87,6.29,6.29,0,0,0,.84-1.38,4.82,4.82,0,0,0,.36-1.86A10,10,0,0,0,231.31,819.6Z" fill="#eaeaea"/><path d="M236.9,817.79s-.08.05-.11.15a.67.67,0,0,0-.07.21,7.76,7.76,0,0,1-.92,1.63,1.76,1.76,0,0,1-1.46.72,1,1,0,0,1-.89-.41,2,2,0,0,1-.33-1.18,4.85,4.85,0,0,1,.15-1.19,6.21,6.21,0,0,0,1.48-.46,4.69,4.69,0,0,0,1.2-.77,1.22,1.22,0,0,0,.46-.89.68.68,0,0,0-.31-.62,1.14,1.14,0,0,0-.71-.23,2,2,0,0,0-1.38.64,4.87,4.87,0,0,0-1.1,1.64,5.29,5.29,0,0,0-.4,2,2.31,2.31,0,0,0,.48,1.61,1.62,1.62,0,0,0,1.25.51,1.94,1.94,0,0,0,1.51-.67,4.81,4.81,0,0,0,.92-1.48,4.13,4.13,0,0,0,.3-1C237,817.87,237,817.79,236.9,817.79Zm-3.17-1.38a3.38,3.38,0,0,1,.67-.79,1.49,1.49,0,0,1,.84-.33.86.86,0,0,1,.46.13.35.35,0,0,1,.18.33q0,.19-.39.54a6.47,6.47,0,0,1-1,.58,3.29,3.29,0,0,1-1.13.36A3.42,3.42,0,0,1,233.73,816.41Z" fill="#eaeaea"/><path d="M241.69,815.24a.8.8,0,0,0-.35-.33.84.84,0,0,0-.49-.13,1.1,1.1,0,0,0-.69.38,5.86,5.86,0,0,0-.79,1.13,13.2,13.2,0,0,0-.74,1.73v-2.09a3.58,3.58,0,0,0,0-.72.23.23,0,0,0-.23-.2c-.23,0-.33.1-.33.31s0,.86,0,1.6c0,.51,0,1,0,1.31V819c0,.77.05,1.36.07,1.74s.13.61.26.61a.26.26,0,0,0,.25-.15.65.65,0,0,0,.08-.31l0-.53a6.5,6.5,0,0,0,0-.69c0-.31-.05-.57-.05-.74a15.09,15.09,0,0,1,1.12-2.53c.36-.67.67-1,.9-1a.53.53,0,0,1,.25.1.51.51,0,0,1,.23.23.69.69,0,0,0,.15.2c.06.08.11.11.16.11s.15-.06.25-.16a.45.45,0,0,0,.16-.28A.63.63,0,0,0,241.69,815.24Z" fill="#eaeaea"/><path d="M246.34,818.4a4.91,4.91,0,0,0-1.38-.53.65.65,0,0,0-.18,0,1,1,0,0,1-.2-.05,7.51,7.51,0,0,1-1.18-.39.51.51,0,0,1-.33-.46,1,1,0,0,1,.41-.81,2.88,2.88,0,0,1,.89-.51,2.23,2.23,0,0,1,.74-.18.37.37,0,0,1,.16.05.22.22,0,0,0,.15.08c.13,0,.2-.08.28-.21a1,1,0,0,0,.1-.36c0-.15-.15-.25-.41-.25a3,3,0,0,0-1.07.3,4.51,4.51,0,0,0-1.25.82,1.62,1.62,0,0,0-.54,1.18.7.7,0,0,0,.26.56,1.79,1.79,0,0,0,.66.38c.28.1.69.23,1.18.36s.79.2,1,.28a1.46,1.46,0,0,1,.49.3.92.92,0,0,1,.2.57,1,1,0,0,1-.3.69,2.16,2.16,0,0,1-.82.53,2.61,2.61,0,0,1-1,.21,1.84,1.84,0,0,1-.36,0c-.07,0-.13-.08-.13-.11s0,0,.06-.1a.14.14,0,0,0,.05-.1s-.05,0-.13,0-.18.1-.36.28-.28.33-.28.41a.39.39,0,0,0,.18.3,1.75,1.75,0,0,0,.66.11,3,3,0,0,0,1.41-.34,2.71,2.71,0,0,0,1.07-.84,1.74,1.74,0,0,0,.41-1.12A1,1,0,0,0,246.34,818.4Z" fill="#eaeaea"/><path d="M211.1,829.38c.3,0,.69,0,1.17-.1l1.2-.2a3.67,3.67,0,0,0,.64-.21.37.37,0,0,0,.23-.36.46.46,0,0,0-.1-.25.31.31,0,0,0-.23-.1s-.08,0-.18.1a1.2,1.2,0,0,1-.31.15,16.86,16.86,0,0,1-2.42.33.4.4,0,0,0,0-.23c0-.07-.05-.1-.1-.1a.35.35,0,0,0-.26.1.85.85,0,0,0-.1.28c-.15,0-.46,0-1,.08s-.79,0-1,0a2.28,2.28,0,0,1-.56,0l-.18,0-.17,0a.33.33,0,0,0-.21.11.37.37,0,0,0-.07.25.42.42,0,0,0,.17.36.53.53,0,0,0,.36.15c.15,0,.61,0,1.38-.1,0,0,.38,0,1.15-.1l-.1,4.29c0,.1,0,.25,0,.41a3.76,3.76,0,0,1,0,.56l0,1.91-.53,0c-.56,0-1,.05-1.25.05a.67.67,0,0,1-.31-.07.68.68,0,0,0-.18-.08c-.05,0-.1,0-.15.13a.38.38,0,0,0-.08.18.56.56,0,0,0,.1.38.82.82,0,0,0,.59.18,8.32,8.32,0,0,0,1.33-.13l.51-.05a.21.21,0,0,0,.08.1.3.3,0,0,0,.15,0l.13,0a.22.22,0,0,0,.12-.13c1.1,0,1.82-.07,2.17-.07a1.4,1.4,0,0,1,.41.05l.36,0c.13,0,.2,0,.23-.07s.05-.13.05-.26a.39.39,0,0,0-.15-.33.71.71,0,0,0-.39-.1l-.94,0c-.69.05-1.23.08-1.66.08,0-.85.05-2.17.08-4S211.07,829.76,211.1,829.38Z" fill="#eaeaea"/><path d="M218.83,833.88c-.05,0-.1,0-.15.17s-.13.16-.16.21a11.25,11.25,0,0,1-1,1.22,2.62,2.62,0,0,1-.63.59,1.09,1.09,0,0,1-.67.23c-.33,0-.51-.31-.51-.87a6.54,6.54,0,0,1,.33-1.76,9.21,9.21,0,0,1,.82-2c.36-.56.69-.87,1.05-.87.05,0,.1.05.1.13a4.32,4.32,0,0,1,.08.46,1.36,1.36,0,0,0,0,.36q0,.15.15.15s.08-.1.1-.31a3.36,3.36,0,0,0,.05-.51,1,1,0,0,0-.07-.35,1.66,1.66,0,0,0-.21-.31.58.58,0,0,0-.43-.23c-.41,0-.82.33-1.2.94a8.79,8.79,0,0,0-1,2.25,7.8,7.8,0,0,0-.38,2.12,1.65,1.65,0,0,0,.28,1,.81.81,0,0,0,.72.44,1.46,1.46,0,0,0,1-.46,10.3,10.3,0,0,0,1.07-1.25c.16-.23.33-.49.49-.74A2.21,2.21,0,0,0,219,834,.12.12,0,0,0,218.83,833.88Z" fill="#eaeaea"/><path d="M224.09,833.54s-.05.05-.11.16a.88.88,0,0,1-.07.2,5.92,5.92,0,0,1-.92,1.61,1.72,1.72,0,0,1-1.43.74,1.1,1.1,0,0,1-.92-.43,2,2,0,0,1-.3-1.18,6.63,6.63,0,0,1,.12-1.17A7,7,0,0,0,222,833a3.59,3.59,0,0,0,1.17-.76,1.24,1.24,0,0,0,.46-.9.77.77,0,0,0-.28-.61,1.21,1.21,0,0,0-.74-.2,2,2,0,0,0-1.38.63,4.81,4.81,0,0,0-1.07,1.64,5.12,5.12,0,0,0-.43,2,2.22,2.22,0,0,0,.51,1.61,1.59,1.59,0,0,0,1.22.54,2,2,0,0,0,1.53-.69,4.63,4.63,0,0,0,.92-1.48,3.73,3.73,0,0,0,.31-1C224.19,833.59,224.16,833.54,224.09,833.54Zm-3.14-1.4a2.46,2.46,0,0,1,.66-.77,1.23,1.23,0,0,1,.84-.33.87.87,0,0,1,.44.1.43.43,0,0,1,.2.34c0,.15-.13.33-.41.53a3.5,3.5,0,0,1-1,.61,4.06,4.06,0,0,1-1.12.34A2.33,2.33,0,0,1,221,832.14Z" fill="#eaeaea"/><path d="M231.74,833.88s-.08,0-.15.17a1.76,1.76,0,0,0-.13.21c-.23.33-.56.74-1,1.22a3.07,3.07,0,0,1-.64.59,1.1,1.1,0,0,1-.66.23c-.36,0-.51-.31-.51-.87a7.2,7.2,0,0,1,.31-1.76,10.35,10.35,0,0,1,.84-2c.33-.56.69-.87,1-.87,0,0,.08.05.11.13a3,3,0,0,1,.07.46c0,.13,0,.25,0,.36s.07.15.15.15.08-.1.13-.31,0-.35,0-.51a1,1,0,0,0-.1-.35.89.89,0,0,0-.21-.31.5.5,0,0,0-.43-.23c-.38,0-.79.33-1.2.94a10.94,10.94,0,0,0-1,2.25,7.5,7.5,0,0,0-.39,2.12,1.8,1.8,0,0,0,.28,1,.88.88,0,0,0,.72.44,1.37,1.37,0,0,0,1-.46,8.71,8.71,0,0,0,1.1-1.25c.15-.23.31-.49.46-.74a1.55,1.55,0,0,0,.25-.49C231.89,833.93,231.84,833.88,231.74,833.88Z" fill="#eaeaea"/><path d="M236.49,831a1.88,1.88,0,0,0-.39-.33,1.1,1.1,0,0,0-.48-.12,1.14,1.14,0,0,0-.69.38,4.7,4.7,0,0,0-.76,1.12,9.09,9.09,0,0,0-.77,1.76v-2.09a4.41,4.41,0,0,0,0-.74c0-.13-.12-.18-.25-.18a.27.27,0,0,0-.31.31c0,.3,0,.84,0,1.61,0,.48,0,.91,0,1.27s0,.64,0,.84a13.22,13.22,0,0,0,.08,1.74c0,.38.1.59.25.59s.21,0,.23-.13a.7.7,0,0,0,.08-.33l0-.54c0-.13,0-.36-.05-.66s0-.56,0-.77a15.16,15.16,0,0,1,1.09-2.53c.39-.66.67-1,.9-1a.52.52,0,0,1,.28.08,1.43,1.43,0,0,1,.2.23l.18.23a.21.21,0,0,0,.15.07.4.4,0,0,0,.26-.15.53.53,0,0,0,.13-.26A1.13,1.13,0,0,0,236.49,831Z" fill="#eaeaea"/><path d="M241.79,833.54s-.07.05-.1.16a.47.47,0,0,0-.07.2,8.06,8.06,0,0,1-.92,1.61,1.82,1.82,0,0,1-1.46.74,1,1,0,0,1-.89-.43,1.82,1.82,0,0,1-.33-1.18,4.69,4.69,0,0,1,.15-1.17,6.59,6.59,0,0,0,1.48-.49,3.74,3.74,0,0,0,1.2-.76,1.2,1.2,0,0,0,.43-.9.69.69,0,0,0-.28-.61,1.12,1.12,0,0,0-.71-.2,1.93,1.93,0,0,0-1.38.63,4.59,4.59,0,0,0-1.1,1.64,5.08,5.08,0,0,0-.4,2,2.22,2.22,0,0,0,.48,1.61,1.61,1.61,0,0,0,1.25.54,2,2,0,0,0,1.51-.69,5,5,0,0,0,.92-1.48,4,4,0,0,0,.3-1C241.87,833.59,241.85,833.54,241.79,833.54Zm-3.16-1.4a2.92,2.92,0,0,1,.66-.77,1.33,1.33,0,0,1,.85-.33,1,1,0,0,1,.46.1.4.4,0,0,1,.17.34c0,.15-.12.33-.38.53a4.37,4.37,0,0,1-1,.61,4,4,0,0,1-1.13.34A3.06,3.06,0,0,1,238.63,832.14Z" fill="#eaeaea"/><path d="M247.64,836.22a.27.27,0,0,1-.08-.17,5.93,5.93,0,0,1,0-.64,8,8,0,0,1,0-.85c0-.28,0-.63,0-1.07s0-.71,0-.84-.08-.36-.15-.36l-.21.08a1.73,1.73,0,0,0,.21-.79,1.17,1.17,0,0,0-.49-.9.57.57,0,0,0-.38-.12.74.74,0,0,0-.43.12,4.44,4.44,0,0,0-.69.54,10.39,10.39,0,0,0-1.31,1.53,16,16,0,0,0-1,1.87,3.5,3.5,0,0,0-.41,1.43,1,1,0,0,0,.2.68.69.69,0,0,0,.57.26,2.12,2.12,0,0,0,1.45-.66A5.76,5.76,0,0,0,245.9,835a18.79,18.79,0,0,0,1-1.74.62.62,0,0,1,.16.44l0,.51c0,1,0,1.68,0,1.89a1.61,1.61,0,0,0,.11.63c.07.18.18.28.3.28s.16-.07.23-.2a.68.68,0,0,0,.1-.36A.34.34,0,0,0,247.64,836.22Zm-.92-3.52c-.36.72-.71,1.33-1,1.81a5.86,5.86,0,0,1-1,1.25,1.8,1.8,0,0,1-1.2.51c-.21,0-.31-.12-.31-.38a3.72,3.72,0,0,1,.36-1.3,12.92,12.92,0,0,1,1-1.63,7.19,7.19,0,0,1,1.1-1.33c.3-.31.53-.46.74-.46a.5.5,0,0,1,.38.2.88.88,0,0,1,.15.49A2.28,2.28,0,0,1,246.72,832.7Z" fill="#eaeaea"/><path d="M255,830.76c-.3,0-.64.43-.94,1.28s-.62,1.91-1,3.16l0-.61c0-.79,0-1.4,0-1.81A8.32,8.32,0,0,0,253,831c-.08-.43-.25-.63-.51-.63s-.79.61-1.25,1.81-.89,2.55-1.3,4.06l-.08-2c0-1-.05-1.84-.1-2.5a7.76,7.76,0,0,0-.13-1.15c-.07-.2-.18-.31-.3-.31s-.11.06-.18.13a.73.73,0,0,0-.08.26c0,.07,0,.35.08.87s.15,1.53.23,3c0,.41,0,.71,0,.89,0,.72,0,1.3.11,1.71a.24.24,0,0,0,.05.18,1.09,1.09,0,0,0,.17,0,.33.33,0,0,0,.21-.11A.5.5,0,0,0,250,837l.1-.33c.43-1.48.87-2.75,1.25-3.85s.74-1.64,1-1.64.21.16.23.41,0,.77,0,1.41c0,.48,0,1.12,0,1.94s-.05,1.27-.05,1.63a.21.21,0,0,0,.23.23.29.29,0,0,0,.23-.1.56.56,0,0,0,.1-.28c.8-3.3,1.41-5,1.82-5,.25,0,.4.46.51,1.41s.15,2.3.15,4.06c0,.15.08.25.2.25a.37.37,0,0,0,.26-.12.46.46,0,0,0,.07-.26C256.13,832.75,255.75,830.76,255,830.76Z" fill="#eaeaea"/><path d="M920.22,622c-.13-.21-.25-.34-.38-.34a.48.48,0,0,0-.33.18.69.69,0,0,0-.16.28.9.9,0,0,0,.18.36.84.84,0,0,1,.23.51,10.05,10.05,0,0,1-.25,2.27,10.79,10.79,0,0,1-.61,2c-.26.54-.44.82-.62.82s-.51-.31-.74-.95A11.35,11.35,0,0,1,917,625a12.61,12.61,0,0,1-.21-1.76,2.31,2.31,0,0,1,.08-.69,1.2,1.2,0,0,1,.2-.39s.08-.1.13-.18a.26.26,0,0,0,.08-.12c0-.08,0-.16-.16-.26a.48.48,0,0,0-.35-.18c-.23,0-.44.21-.64.56-.54,1-1,1.92-1.4,2.81s-.87,2-1.36,3.4l-.66-2.81a21.67,21.67,0,0,0-.66-2.43,5.65,5.65,0,0,0-.59-1.25l-.2-.23a.46.46,0,0,0-.26-.07.62.62,0,0,0-.43.23,1.91,1.91,0,0,0-.46.48.75.75,0,0,0-.18.41c0,.08,0,.15.18.2a.19.19,0,0,0,.2,0,1,1,0,0,0,.23-.18c.1,0,.15-.1.21-.1s.3.33.56.94a22.12,22.12,0,0,1,.71,2.4c.21.95.41,1.94.61,3l.13.66a.79.79,0,0,0,.21.34.72.72,0,0,0,.35.1.32.32,0,0,0,.18-.05.24.24,0,0,0,.1-.18.91.91,0,0,1,0-.16c.23-.71.48-1.43.79-2.19a18.47,18.47,0,0,1,.77-1.79c.33-.71.63-1.33.94-1.89a15.57,15.57,0,0,0,.33,2.4,10.34,10.34,0,0,0,.72,2.22c.28.64.58,1,.91,1s.52-.31.9-.92a10.6,10.6,0,0,0,1-2.4,11.51,11.51,0,0,0,.41-3.12A1.33,1.33,0,0,0,920.22,622Z" fill="#eaeaea"/><path d="M928,624.94c-.06,0-.11.08-.16.18a1.15,1.15,0,0,0-.1.26,9.11,9.11,0,0,1-1.3,2,2.53,2.53,0,0,1-2,.86,1.48,1.48,0,0,1-1.25-.51,2,2,0,0,1-.46-1.43,5.75,5.75,0,0,1,.2-1.45,9.58,9.58,0,0,0,2.07-.56,6.3,6.3,0,0,0,1.66-.95,1.46,1.46,0,0,0,.64-1.07.93.93,0,0,0-.41-.77,1.91,1.91,0,0,0-1-.25A2.93,2.93,0,0,0,924,622a5.65,5.65,0,0,0-1.5,2,5.84,5.84,0,0,0-.56,2.47,2.71,2.71,0,0,0,.66,2,2.55,2.55,0,0,0,1.73.64,2.88,2.88,0,0,0,2.1-.84,5.43,5.43,0,0,0,1.27-1.81,4.81,4.81,0,0,0,.44-1.25C928.11,625,928.06,624.94,928,624.94Zm-4.42-1.68a3.35,3.35,0,0,1,.94-1,2.11,2.11,0,0,1,1.18-.41,1.23,1.23,0,0,1,.61.15.44.44,0,0,1,.26.41c0,.15-.18.38-.54.64a6.83,6.83,0,0,1-1.38.74,6.14,6.14,0,0,1-1.55.43A3.31,3.31,0,0,1,923.59,623.26Z" fill="#eaeaea"/><path d="M930.68,628a3,3,0,0,1-.23-1.07c0-2.68.11-5.42.29-8.22,0-.16,0-.26,0-.31v-.1a3.43,3.43,0,0,0,0-.54c-.06-.07-.11-.13-.18-.13a.54.54,0,0,0-.54.39,3.54,3.54,0,0,0-.18.87c0,.86,0,2.17-.05,3.88s0,3.16-.08,4.36a4.6,4.6,0,0,0,.18,1.38c.11.31.23.46.36.46a1,1,0,0,0,.46-.1.27.27,0,0,0,.2-.26A5,5,0,0,0,930.68,628Z" fill="#eaeaea"/><path d="M937.24,625.35s-.13.08-.23.2a1.79,1.79,0,0,1-.18.26,15.41,15.41,0,0,1-1.35,1.53,4.93,4.93,0,0,1-.89.72,1.74,1.74,0,0,1-.92.25c-.49,0-.71-.36-.71-1.07a7.49,7.49,0,0,1,.45-2.12,9.08,9.08,0,0,1,1.15-2.45c.46-.69,1-1,1.46-1,.05,0,.1,0,.15.16a2.8,2.8,0,0,1,.08.53c0,.18,0,.33.07.46a.23.23,0,0,0,.21.18c.05,0,.1-.13.15-.36a3.37,3.37,0,0,0,.08-.64,1,1,0,0,0-.13-.43,2.5,2.5,0,0,0-.28-.38.83.83,0,0,0-.61-.26c-.56,0-1.1.38-1.66,1.15a10.43,10.43,0,0,0-1.38,2.73,8.24,8.24,0,0,0-.54,2.58,2,2,0,0,0,.39,1.23,1.17,1.17,0,0,0,1,.53,2.17,2.17,0,0,0,1.41-.56,12.13,12.13,0,0,0,1.48-1.56,6.43,6.43,0,0,0,.66-.89,1.69,1.69,0,0,0,.33-.59C937.42,625.4,937.37,625.35,937.24,625.35Z" fill="#eaeaea"/><path d="M943.65,624.43a9.38,9.38,0,0,0-1.1-1.07c-.2-.18-.31-.28-.31-.33s0,0,0-.11.06-.07.06-.1,0-.07-.06-.1a2.07,2.07,0,0,0-.28,0,1.72,1.72,0,0,0-.63.13c-.18.08-.29.18-.29.31s.08.2.21.33a6.3,6.3,0,0,0,.61.49,5.68,5.68,0,0,1,1,.89,1.39,1.39,0,0,1,.38,1,2.17,2.17,0,0,1-.38,1.1,3,3,0,0,1-1,1,2.36,2.36,0,0,1-1.36.41c-1,0-1.53-.41-1.53-1.25a5.57,5.57,0,0,1,.26-1.77,6.91,6.91,0,0,1,.69-1.6,6.75,6.75,0,0,1,.89-1.31s.08-.1.13-.17a.37.37,0,0,0,.07-.16.17.17,0,0,0-.1-.18.51.51,0,0,0-.28-.07,1.13,1.13,0,0,0-.61.2,2.14,2.14,0,0,0-.51.64c-.15.25-.23.43-.26.46a7.41,7.41,0,0,0-.79,2,7.58,7.58,0,0,0-.28,1.92,2.06,2.06,0,0,0,.51,1.45,1.92,1.92,0,0,0,1.58.59,3.39,3.39,0,0,0,1.94-.56,4.47,4.47,0,0,0,1.31-1.41,3.11,3.11,0,0,0,.45-1.45A2,2,0,0,0,943.65,624.43Z" fill="#eaeaea"/><path d="M953.83,621.57c-.46,0-.9.51-1.33,1.56a33,33,0,0,0-1.3,3.83l0-.74c0-1,0-1.69,0-2.2a9.72,9.72,0,0,0-.18-2.22c-.13-.54-.38-.79-.74-.79s-1.1.74-1.71,2.22-1.25,3.14-1.84,4.95l-.07-2.45q-.08-1.83-.15-3.06c-.06-.56-.11-1-.13-1.2v-.05a1.66,1.66,0,0,0,0-.16c-.11-.25-.26-.38-.44-.38s-.15.08-.23.18a.77.77,0,0,0-.12.31c0,.07,0,.43.12,1.07,0,.23,0,.56.11,1v.05c0,.66.12,1.56.17,2.63,0,.51,0,.89.08,1.12,0,.87.08,1.56.13,2.1,0,.1,0,.15.07.18a.69.69,0,0,0,.26,0,.33.33,0,0,0,.25-.13.54.54,0,0,0,.21-.28l.13-.41c.61-1.79,1.2-3.37,1.76-4.7s1-2,1.38-2c.15,0,.25.18.3.51a12.81,12.81,0,0,1,.08,1.71c0,.56,0,1.35-.08,2.35s0,1.56,0,2c0,.21.08.28.28.28a.38.38,0,0,0,.33-.12.49.49,0,0,0,.13-.34c1.12-4,2-6,2.53-6,.35,0,.58.59.74,1.74s.2,2.78.2,4.95a.24.24,0,0,0,.28.28.45.45,0,0,0,.33-.13.51.51,0,0,0,.13-.33Q955.46,621.57,953.83,621.57Z" fill="#eaeaea"/><path d="M963.4,624.94s-.08.08-.13.18a2,2,0,0,1-.13.26,8,8,0,0,1-1.27,2,2.55,2.55,0,0,1-2,.86,1.54,1.54,0,0,1-1.27-.51,2.16,2.16,0,0,1-.43-1.43,5.75,5.75,0,0,1,.2-1.45,9.9,9.9,0,0,0,2.07-.56,6.08,6.08,0,0,0,1.65-.95,1.43,1.43,0,0,0,.62-1.07.86.86,0,0,0-.41-.77,1.79,1.79,0,0,0-1-.25,2.91,2.91,0,0,0-1.91.77,5.8,5.8,0,0,0-1.51,2,5.87,5.87,0,0,0-.58,2.47,2.6,2.6,0,0,0,.69,2,2.51,2.51,0,0,0,1.71.64,2.87,2.87,0,0,0,2.11-.84,5.61,5.61,0,0,0,1.28-1.81,4.63,4.63,0,0,0,.43-1.25C963.52,625,963.47,624.94,963.4,624.94ZM959,623.26a3.22,3.22,0,0,1,.94-1,2,2,0,0,1,1.18-.41,1.25,1.25,0,0,1,.61.15.43.43,0,0,1,.25.41c0,.15-.18.38-.56.64a6.29,6.29,0,0,1-1.35.74,6.21,6.21,0,0,1-1.56.43A2.93,2.93,0,0,1,959,623.26Z" fill="#eaeaea"/><path d="M966.18,619.07a2.79,2.79,0,0,0,0-.54.17.17,0,0,0-.16-.12.53.53,0,0,0-.53.4,3.06,3.06,0,0,0-.18.87c-.08,2.56-.13,4.27-.13,5.11a3.57,3.57,0,0,0,.1.89,3,3,0,0,0,.21.69c.07.18.15.28.23.28.23,0,.33-.13.33-.38,0-.08,0-.28-.08-.64s0-.69,0-1c0-1.55.08-3.14.23-4.69C966.15,619.38,966.18,619.09,966.18,619.07Zm.46,9.91a.89.89,0,0,0-.21-.26.82.82,0,0,1-.25-.38,1.21,1.21,0,0,0-.16-.28c0-.06-.1-.08-.17-.08a.52.52,0,0,0-.34.15.45.45,0,0,0-.17.33,1.08,1.08,0,0,0,.07.36,1.1,1.1,0,0,0,.28.44.84.84,0,0,0,.51.17c.33,0,.51-.07.51-.25A.57.57,0,0,0,966.64,629Z" fill="#eaeaea"/><path d="M922,642.84a.48.48,0,0,0-.35-.21s-.13.08-.18.21a.37.37,0,0,1-.21.23c-1.42.3-2.37.51-2.85.58l0-.43c0-.48,0-.94,0-1.33a7.92,7.92,0,0,1,.07-1.22c0-.33.08-.51.08-.56s0-.16,0-.18-.1,0-.2,0a.52.52,0,0,0-.49.3,3,3,0,0,0-.15.62c0,.22,0,.56,0,1,0,.25,0,.63,0,1.12s0,.66,0,.89c-.26.05-.74.13-1.46.28-.07,0-.28.05-.59.1a2.79,2.79,0,0,1-.71.11,1.73,1.73,0,0,0-.48.05.29.29,0,0,0-.13.28.37.37,0,0,0,.15.31.7.7,0,0,0,.36.1,6,6,0,0,0,1-.18c.64-.13,1.25-.26,1.84-.36,0,.56,0,1.12,0,1.71s0,1.07.08,1.53a12.49,12.49,0,0,0,.13,1.33,7.27,7.27,0,0,0,.17.84c.06.08.08.16.13.18a.19.19,0,0,0,.16.05.59.59,0,0,0,.38-.12c.13-.11.2-.18.2-.31s-.07-.23-.18-.56a7.74,7.74,0,0,1-.23-1.41c0-.46,0-1-.07-1.6s0-1.2,0-1.77l1-.15,1.66-.31a2,2,0,0,0,.84-.23.43.43,0,0,0,.23-.4A.63.63,0,0,0,922,642.84Z" fill="#eaeaea"/><path d="M928.16,645.29a6.75,6.75,0,0,0-1.07-1.07c-.21-.18-.31-.28-.31-.34a.31.31,0,0,1,.05-.1.17.17,0,0,0,0-.13.1.1,0,0,0,0-.07.62.62,0,0,0-.28,0,1.55,1.55,0,0,0-.64.13c-.18.08-.28.18-.28.31a.64.64,0,0,0,.21.33,4.46,4.46,0,0,0,.61.48,6,6,0,0,1,1,.9,1.3,1.3,0,0,1,.39,1,2,2,0,0,1-.39,1.09,3.38,3.38,0,0,1-1,1,2.3,2.3,0,0,1-1.35.4c-1,0-1.53-.43-1.53-1.27a5.51,5.51,0,0,1,.26-1.74,7.6,7.6,0,0,1,.68-1.61,6.63,6.63,0,0,1,.9-1.3,1.08,1.08,0,0,1,.13-.18l.07-.15a.21.21,0,0,0-.1-.2.94.94,0,0,0-.28-.06,1,1,0,0,0-.61.21,2.14,2.14,0,0,0-.51.64c-.16.25-.23.41-.26.46a6.78,6.78,0,0,0-.79,2,7.37,7.37,0,0,0-.28,1.89,2.09,2.09,0,0,0,.51,1.48,1.92,1.92,0,0,0,1.58.59,3.21,3.21,0,0,0,1.94-.59,4.06,4.06,0,0,0,1.3-1.38,3.12,3.12,0,0,0,.46-1.46A1.92,1.92,0,0,0,928.16,645.29Z" fill="#eaeaea"/><path d="M941.4,642.84a.57.57,0,0,0-.36-.21c-.07,0-.12.08-.17.21s-.13.2-.23.23c-1.41.3-2.38.51-2.84.58l0-.43c0-.48,0-.94,0-1.33a7.72,7.72,0,0,1,.08-1.22c0-.33.08-.51.08-.56s0-.16-.06-.18-.1,0-.2,0a.45.45,0,0,0-.46.3,2.09,2.09,0,0,0-.15.62,7.75,7.75,0,0,0,0,1c0,.25,0,.63,0,1.12s0,.66,0,.89c-.25.05-.74.13-1.45.28-.1,0-.31.05-.61.1a2.93,2.93,0,0,1-.69.11,1.82,1.82,0,0,0-.49.05.27.27,0,0,0-.15.28.34.34,0,0,0,.18.31.63.63,0,0,0,.36.1,7.24,7.24,0,0,0,1-.18c.61-.13,1.22-.26,1.83-.36,0,.56,0,1.12,0,1.71s0,1.07,0,1.53.08.92.15,1.33a2.81,2.81,0,0,0,.18.84.67.67,0,0,0,.1.18.23.23,0,0,0,.18.05.57.57,0,0,0,.36-.12c.15-.11.2-.18.2-.31s-.07-.23-.18-.56a6,6,0,0,1-.2-1.41,14.84,14.84,0,0,1-.08-1.6c0-.62,0-1.2,0-1.77l1-.15,1.64-.31a1.94,1.94,0,0,0,.84-.23.43.43,0,0,0,.23-.4A.58.58,0,0,0,941.4,642.84Z" fill="#eaeaea"/><path d="M949.36,648.43c0-1.07,0-1.92,0-2.5a9.14,9.14,0,0,0-.41-3c-.28-.69-.64-1-1-1s-1,.43-1.55,1.25a18.69,18.69,0,0,0-1.51,2.7q-.65,1.45-1.38,3.3c0-.74,0-1.89,0-3.45s0-2.53,0-2.86v-.43c0-1.07-.08-1.94-.16-2.61s-.18-1-.33-1a.4.4,0,0,0-.25,0h0a.21.21,0,0,0-.18,0,.25.25,0,0,0-.15.23,4.14,4.14,0,0,0,.13.74c0,.1,0,.23.05.43v0c.07.61.12,1.63.2,3.06.05.56.08,1.76.13,3.55s.08,3,.08,3.65c0,.15.12.23.35.23a.36.36,0,0,0,.28-.2,1.55,1.55,0,0,0,.23-.44c.69-1.83,1.43-3.55,2.2-5.1s1.38-2.33,1.89-2.33c.2,0,.4.26.58.74a8.37,8.37,0,0,1,.26,2.56c0,.81,0,1.89-.08,3.21l0,1.1a.21.21,0,0,0,.1.21.45.45,0,0,0,.28.07.43.43,0,0,0,.46-.46Z" fill="#eaeaea"/><path d="M957.4,645.8s-.08.05-.15.18a1.7,1.7,0,0,1-.11.25,7.86,7.86,0,0,1-1.27,2,2.52,2.52,0,0,1-2,.87,1.63,1.63,0,0,1-1.25-.51,2.18,2.18,0,0,1-.43-1.43,5.54,5.54,0,0,1,.18-1.45,10.56,10.56,0,0,0,2.09-.56,6.37,6.37,0,0,0,1.63-.95,1.42,1.42,0,0,0,.64-1.07.86.86,0,0,0-.41-.77,1.8,1.8,0,0,0-1-.28,3,3,0,0,0-1.92.79,5.51,5.51,0,0,0-1.5,2,5.93,5.93,0,0,0-.59,2.48,2.53,2.53,0,0,0,.69,2,2.38,2.38,0,0,0,1.71.63,2.92,2.92,0,0,0,2.12-.81,6.09,6.09,0,0,0,1.27-1.81,4.48,4.48,0,0,0,.41-1.28C957.5,645.88,957.48,645.8,957.4,645.8ZM953,644.09a3.73,3.73,0,0,1,1-1,1.77,1.77,0,0,1,1.14-.4,1.26,1.26,0,0,1,.64.15.49.49,0,0,1,.26.38c0,.18-.18.41-.57.67a5.84,5.84,0,0,1-1.35.74,5.55,5.55,0,0,1-1.55.4A3.39,3.39,0,0,1,953,644.09Z" fill="#eaeaea"/><circle cx="771.65" cy="509.82" r="5.33" fill="#fed1a1"/><path d="M769.5,506.15c.28.28.13.89-.34,1.36s-1.08.62-1.36.34-.13-.89.34-1.36S769.22,505.87,769.5,506.15Z" fill="#feecd4"/><path d="M769.5,508.12c.28.16.29.67,0,1.13s-.72.71-1,.55-.29-.67,0-1.13S769.22,508,769.5,508.12Z" fill="#feecd4"/><path d="M767.48,508.45c.3,0,.51.46.46,1s-.33.88-.64.85-.5-.46-.45-1S767.18,508.42,767.48,508.45Z" fill="#feecd4"/><circle cx="794.4" cy="509.82" r="5.33" fill="#fed1a1"/><path d="M792.24,506.15c.29.28.14.89-.33,1.36s-1.08.62-1.37.34-.13-.89.34-1.36S792,505.87,792.24,506.15Z" fill="#feecd4"/><path d="M792.24,508.12c.28.16.29.67,0,1.13s-.71.71-1,.55-.29-.67,0-1.13S792,508,792.24,508.12Z" fill="#feecd4"/><path d="M790.23,508.45c.3,0,.5.46.45,1s-.33.88-.63.85-.51-.46-.46-1S789.93,508.42,790.23,508.45Z" fill="#feecd4"/><circle cx="817.14" cy="509.82" r="5.33" fill="#fed1a1"/><path d="M815,506.15c.28.28.13.89-.34,1.36s-1.08.62-1.36.34-.13-.89.34-1.36S814.71,505.87,815,506.15Z" fill="#feecd4"/><path d="M815,508.12c.28.16.28.67,0,1.13s-.72.71-1,.55-.29-.67,0-1.13S814.71,508,815,508.12Z" fill="#feecd4"/><path d="M813,508.45c.3,0,.51.46.46,1s-.34.88-.64.85-.5-.46-.45-1S812.67,508.42,813,508.45Z" fill="#feecd4"/><circle cx="839.89" cy="509.82" r="5.33" fill="#fed1a1"/><path d="M837.73,506.15c.29.28.13.89-.34,1.36s-1.08.62-1.36.34-.13-.89.34-1.36S837.45,505.87,837.73,506.15Z" fill="#feecd4"/><path d="M837.73,508.12c.28.16.29.67,0,1.13s-.71.71-1,.55-.29-.67,0-1.13S837.45,508,837.73,508.12Z" fill="#feecd4"/><path d="M835.72,508.45c.3,0,.5.46.45,1s-.33.88-.63.85-.51-.46-.46-1S835.42,508.42,835.72,508.45Z" fill="#feecd4"/><circle cx="862.63" cy="509.82" r="5.33" fill="#fed1a1"/><path d="M860.48,506.15c.28.28.13.89-.34,1.36s-1.08.62-1.36.34-.13-.89.34-1.36S860.2,505.87,860.48,506.15Z" fill="#feecd4"/><path d="M860.47,508.12c.28.16.29.67,0,1.13s-.71.71-1,.55-.29-.67,0-1.13S860.2,508,860.47,508.12Z" fill="#feecd4"/><path d="M858.46,508.45c.3,0,.51.46.46,1s-.34.88-.64.85-.5-.46-.45-1S858.16,508.42,858.46,508.45Z" fill="#feecd4"/><circle cx="771.65" cy="584.87" r="5.33" fill="#fed1a1"/><path d="M769.5,581.2c.28.28.13.89-.34,1.36s-1.08.62-1.36.34-.13-.89.34-1.36S769.22,580.91,769.5,581.2Z" fill="#feecd4"/><path d="M769.5,583.16c.28.16.29.67,0,1.14s-.72.71-1,.55-.29-.67,0-1.14S769.22,583,769.5,583.16Z" fill="#feecd4"/><path d="M767.48,583.5c.3,0,.51.46.46,1s-.33.88-.64.85-.5-.46-.45-1S767.18,583.47,767.48,583.5Z" fill="#feecd4"/><circle cx="794.4" cy="584.87" r="5.33" fill="#fed1a1"/><path d="M792.24,581.2c.29.28.14.89-.33,1.36s-1.08.62-1.37.34-.13-.89.34-1.36S792,580.91,792.24,581.2Z" fill="#feecd4"/><path d="M792.24,583.16c.28.16.29.67,0,1.14s-.71.71-1,.55-.29-.67,0-1.14S792,583,792.24,583.16Z" fill="#feecd4"/><path d="M790.23,583.5c.3,0,.5.46.45,1s-.33.88-.63.85-.51-.46-.46-1S789.93,583.47,790.23,583.5Z" fill="#feecd4"/><circle cx="817.14" cy="584.87" r="5.33" fill="#fed1a1"/><path d="M815,581.2c.28.28.13.89-.34,1.36s-1.08.62-1.36.34-.13-.89.34-1.36S814.71,580.91,815,581.2Z" fill="#feecd4"/><path d="M815,583.16c.28.16.28.67,0,1.14s-.72.71-1,.55-.29-.67,0-1.14S814.71,583,815,583.16Z" fill="#feecd4"/><path d="M813,583.5c.3,0,.51.46.46,1s-.34.88-.64.85-.5-.46-.45-1S812.67,583.47,813,583.5Z" fill="#feecd4"/><circle cx="839.89" cy="584.87" r="5.33" fill="#fed1a1"/><path d="M837.73,581.2c.29.28.13.89-.34,1.36s-1.08.62-1.36.34-.13-.89.34-1.36S837.45,580.91,837.73,581.2Z" fill="#feecd4"/><path d="M837.73,583.16c.28.16.29.67,0,1.14s-.71.71-1,.55-.29-.67,0-1.14S837.45,583,837.73,583.16Z" fill="#feecd4"/><path d="M835.72,583.5c.3,0,.5.46.45,1s-.33.88-.63.85-.51-.46-.46-1S835.42,583.47,835.72,583.5Z" fill="#feecd4"/><circle cx="862.63" cy="584.87" r="5.33" fill="#fed1a1"/><path d="M860.48,581.2c.28.28.13.89-.34,1.36s-1.08.62-1.36.34-.13-.89.34-1.36S860.2,580.91,860.48,581.2Z" fill="#feecd4"/><path d="M860.47,583.16c.28.16.29.67,0,1.14s-.71.71-1,.55-.29-.67,0-1.14S860.2,583,860.47,583.16Z" fill="#feecd4"/><path d="M858.46,583.5c.3,0,.51.46.46,1s-.34.88-.64.85-.5-.46-.45-1S858.16,583.47,858.46,583.5Z" fill="#feecd4"/><circle cx="335.29" cy="509.82" r="5.33" fill="#fed1a1"/><path d="M333.14,506.15c.28.28.13.89-.34,1.36s-1.08.62-1.36.34-.13-.89.34-1.36S332.85,505.87,333.14,506.15Z" fill="#feecd4"/><path d="M333.13,508.12c.28.16.29.67,0,1.13s-.71.71-1,.55-.29-.67,0-1.13S332.85,508,333.13,508.12Z" fill="#feecd4"/><path d="M331.12,508.45c.3,0,.51.46.46,1s-.34.88-.64.85-.5-.46-.45-1S330.82,508.42,331.12,508.45Z" fill="#feecd4"/><circle cx="358.03" cy="509.82" r="5.33" fill="#fed1a1"/><path d="M355.88,506.15c.28.28.13.89-.34,1.36s-1.08.62-1.36.34-.13-.89.34-1.36S355.6,505.87,355.88,506.15Z" fill="#feecd4"/><path d="M355.88,508.12c.28.16.29.67,0,1.13s-.72.71-1,.55-.29-.67,0-1.13S355.6,508,355.88,508.12Z" fill="#feecd4"/><path d="M353.86,508.45c.31,0,.51.46.46,1s-.33.88-.63.85-.51-.46-.46-1S353.56,508.42,353.86,508.45Z" fill="#feecd4"/><circle cx="380.78" cy="509.82" r="5.33" fill="#fed1a1"/><path d="M378.63,506.15c.28.28.13.89-.34,1.36s-1.08.62-1.37.34-.13-.89.34-1.36S378.34,505.87,378.63,506.15Z" fill="#feecd4"/><path d="M378.62,508.12c.28.16.29.67,0,1.13s-.71.71-1,.55-.29-.67,0-1.13S378.34,508,378.62,508.12Z" fill="#feecd4"/><path d="M376.61,508.45c.3,0,.5.46.45,1s-.33.88-.63.85-.5-.46-.46-1S376.31,508.42,376.61,508.45Z" fill="#feecd4"/><circle cx="403.52" cy="509.82" r="5.33" fill="#fed1a1"/><path d="M401.37,506.15c.28.28.13.89-.34,1.36s-1.08.62-1.36.34-.13-.89.34-1.36S401.09,505.87,401.37,506.15Z" fill="#feecd4"/><path d="M401.37,508.12c.28.16.29.67,0,1.13s-.72.71-1,.55-.28-.67,0-1.13S401.09,508,401.37,508.12Z" fill="#feecd4"/><path d="M399.35,508.45c.3,0,.51.46.46,1s-.33.88-.64.85-.5-.46-.45-1S399.05,508.42,399.35,508.45Z" fill="#feecd4"/><circle cx="426.27" cy="509.82" r="5.33" fill="#fed1a1"/><path d="M424.12,506.15c.28.28.13.89-.34,1.36s-1.08.62-1.37.34-.13-.89.34-1.36S423.83,505.87,424.12,506.15Z" fill="#feecd4"/><path d="M424.11,508.12c.28.16.29.67,0,1.13s-.71.71-1,.55-.29-.67,0-1.13S423.83,508,424.11,508.12Z" fill="#feecd4"/><path d="M422.1,508.45c.3,0,.5.46.45,1s-.33.88-.63.85-.51-.46-.46-1S421.8,508.42,422.1,508.45Z" fill="#feecd4"/><circle cx="335.29" cy="584.87" r="5.33" fill="#fed1a1"/><path d="M333.14,581.2c.28.28.13.89-.34,1.36s-1.08.62-1.36.34-.13-.89.34-1.36S332.85,580.91,333.14,581.2Z" fill="#feecd4"/><path d="M333.13,583.16c.28.16.29.67,0,1.14s-.71.71-1,.55-.29-.67,0-1.14S332.85,583,333.13,583.16Z" fill="#feecd4"/><path d="M331.12,583.5c.3,0,.51.46.46,1s-.34.88-.64.85-.5-.46-.45-1S330.82,583.47,331.12,583.5Z" fill="#feecd4"/><circle cx="358.03" cy="584.87" r="5.33" fill="#fed1a1"/><path d="M355.88,581.2c.28.28.13.89-.34,1.36s-1.08.62-1.36.34-.13-.89.34-1.36S355.6,580.91,355.88,581.2Z" fill="#feecd4"/><path d="M355.88,583.16c.28.16.29.67,0,1.14s-.72.71-1,.55-.29-.67,0-1.14S355.6,583,355.88,583.16Z" fill="#feecd4"/><path d="M353.86,583.5c.31,0,.51.46.46,1s-.33.88-.63.85-.51-.46-.46-1S353.56,583.47,353.86,583.5Z" fill="#feecd4"/><circle cx="380.78" cy="584.87" r="5.33" fill="#fed1a1"/><path d="M378.63,581.2c.28.28.13.89-.34,1.36s-1.08.62-1.37.34-.13-.89.34-1.36S378.34,580.91,378.63,581.2Z" fill="#feecd4"/><path d="M378.62,583.16c.28.16.29.67,0,1.14s-.71.71-1,.55-.29-.67,0-1.14S378.34,583,378.62,583.16Z" fill="#feecd4"/><path d="M376.61,583.5c.3,0,.5.46.45,1s-.33.88-.63.85-.5-.46-.46-1S376.31,583.47,376.61,583.5Z" fill="#feecd4"/><circle cx="403.52" cy="584.87" r="5.33" fill="#fed1a1"/><path d="M401.37,581.2c.28.28.13.89-.34,1.36s-1.08.62-1.36.34-.13-.89.34-1.36S401.09,580.91,401.37,581.2Z" fill="#feecd4"/><path d="M401.37,583.16c.28.16.29.67,0,1.14s-.72.71-1,.55-.28-.67,0-1.14S401.09,583,401.37,583.16Z" fill="#feecd4"/><path d="M399.35,583.5c.3,0,.51.46.46,1s-.33.88-.64.85-.5-.46-.45-1S399.05,583.47,399.35,583.5Z" fill="#feecd4"/><circle cx="426.27" cy="584.87" r="5.33" fill="#fed1a1"/><path d="M424.12,581.2c.28.28.13.89-.34,1.36s-1.08.62-1.37.34-.13-.89.34-1.36S423.83,580.91,424.12,581.2Z" fill="#feecd4"/><path d="M424.11,583.16c.28.16.29.67,0,1.14s-.71.71-1,.55-.29-.67,0-1.14S423.83,583,424.11,583.16Z" fill="#feecd4"/><path d="M422.1,583.5c.3,0,.5.46.45,1s-.33.88-.63.85-.51-.46-.46-1S421.8,583.47,422.1,583.5Z" fill="#feecd4"/><rect x="447.94" y="513.57" width="294.99" height="6.38" fill="#a62c32"/><path d="M386.72,573H375.28a4.63,4.63,0,0,1-4.64-4.22L367.83,539a1.28,1.28,0,0,1,2.54-.24l2.81,29.73a2.09,2.09,0,0,0,2.1,1.91h11.44a2.1,2.1,0,0,0,2.1-1.91L391.61,539a1.26,1.26,0,0,1,1.39-1.15,1.28,1.28,0,0,1,1.15,1.39l-2.79,29.48A4.64,4.64,0,0,1,386.72,573Z" fill="#ea77ea"/><path d="M394.71,538a1.28,1.28,0,0,1-1.08-.61c-.28-.22-2.4-1.61-12.63-1.61-10.06,0-12.17,1.34-12.46,1.58a1.27,1.27,0,0,1-1.43.6,1.29,1.29,0,0,1-.91-1.57c.55-2.07,5.67-3.17,14.8-3.17s14.25,1.07,14.92,3.1a1.26,1.26,0,0,1-.8,1.61A1.18,1.18,0,0,1,394.71,538Zm-26-.94Zm0,0Zm0,0Z" fill="#fea19b"/><path d="M394.71,534.67a1.28,1.28,0,0,1-1.08-.61c-.28-.23-2.4-1.62-12.63-1.62-10.06,0-12.17,1.35-12.46,1.59a1.28,1.28,0,0,1-2.34-1c.55-2.07,5.67-3.17,14.8-3.17S395.25,531,395.92,533a1.27,1.27,0,0,1-.8,1.62A1.47,1.47,0,0,1,394.71,534.67Zm-26-.95Zm0,0Zm0,0Z" fill="#fea19b"/><path d="M393.9,530.63l-2.35-1c0,.06,0-.13-.2-.39-.49-.63-2.47-2.1-10.29-2.22s-9.74,1.38-10.26,2a.83.83,0,0,0-.23.7l-2.41.83a3.23,3.23,0,0,1,.51-2.93c1.58-2.25,5.65-3.28,12.43-3.18s11,1.24,12.45,3.46A3,3,0,0,1,393.9,530.63Z" fill="#eaf040"/><path d="M381,558.13a8,8,0,0,1-4.3-1.24,8.15,8.15,0,1,1,10.84-2,1.28,1.28,0,1,1-2-1.53,5.6,5.6,0,1,0-7.45,1.41,5.88,5.88,0,0,0,5.78.16,1.28,1.28,0,1,1,1.12,2.3A9,9,0,0,1,381,558.13Z" fill="#fea19b"/><polygon points="710.74 667.26 712.84 809.89 776.61 809.89 776.61 747.42 819.6 747.42 844.49 809.38 856.21 809.89 856.21 783.41 864.31 783.41 864.91 818.69 704.14 818.69 719.1 836.21 886.08 836.21 886.08 805.24 892.6 805.24 892.6 698.65 929.95 698.65 866.63 601.11 710.74 667.26" fill="#bdb0aa" style="mix-blend-mode:multiply"/><path d="M730.76,601.11l-4.48,19.54a89.84,89.84,0,0,0-2,13l-1.83,22.84a11.75,11.75,0,0,1-11.71,10.82h-1.6a11.75,11.75,0,0,1-11.71-12.7l1.68-21h0a89.48,89.48,0,0,1,2-12.94l4.48-19.55Z" fill="url(#linear-gradient-7)"/><path d="M758.45,601.11,754,620.66a89.77,89.77,0,0,0-2,12.93l-1.83,22.85a11.76,11.76,0,0,1-11.72,10.82h-4.12a11.76,11.76,0,0,1-11.71-12.7l1.68-21a89.84,89.84,0,0,1,2-13l4.48-19.54Z" fill="url(#linear-gradient-8)"/><path d="M786.15,601.11l-4.49,19.55a91.1,91.1,0,0,0-2,12.94l-1.83,22.84a11.76,11.76,0,0,1-11.71,10.82H762a11.75,11.75,0,0,1-11.71-12.7l1.68-21a89.77,89.77,0,0,1,2-12.93l4.48-19.55Z" fill="url(#linear-gradient-9)"/><path d="M813.84,601.11l-4.48,19.54a89.84,89.84,0,0,0-2,13l-1.83,22.84a11.74,11.74,0,0,1-11.71,10.82H789.7A11.75,11.75,0,0,1,778,654.56l1.68-21a91.1,91.1,0,0,1,2-12.94l4.49-19.55Z" fill="url(#linear-gradient-10)"/><path d="M841.54,601.11l-4.49,19.54a89.82,89.82,0,0,0-2,13l-1.83,22.84a11.76,11.76,0,0,1-11.71,10.82H817.4a11.77,11.77,0,0,1-11.72-12.7l1.68-21a89.84,89.84,0,0,1,2-13l4.48-19.54Z" fill="url(#linear-gradient-11)"/><path d="M866.63,601.11l-4.49,19.54a91.23,91.23,0,0,0-2,13h0l-1.8,22.52,0,.32a11.76,11.76,0,0,1-11.71,10.82h-1.52a11.75,11.75,0,0,1-11.71-12.7l1.68-21a89.82,89.82,0,0,1,2-13l4.49-19.54Z" fill="url(#linear-gradient-12)"/><path d="M354.44,601.11,350,620.66a89.71,89.71,0,0,0-2,12.94l-1.83,22.84a11.76,11.76,0,0,1-11.71,10.82h0a11.75,11.75,0,0,1-11.71-12.7l1.68-21v0a89,89,0,0,1,2-12.89l4.49-19.57Z" fill="url(#linear-gradient-13)"/><path d="M382.14,601.11l-4.49,19.54a89.82,89.82,0,0,0-2,13l-1.83,22.84a11.76,11.76,0,0,1-11.71,10.82H358a11.75,11.75,0,0,1-11.71-12.7l1.68-21a89.71,89.71,0,0,1,2-12.94l4.48-19.55Z" fill="url(#linear-gradient-14)"/><path d="M409.83,601.11l-4.49,19.54a89.82,89.82,0,0,0-2,13l-1.83,22.84a11.76,11.76,0,0,1-11.71,10.82h-4.12A11.75,11.75,0,0,1,374,654.56l1.68-21a89.82,89.82,0,0,1,2-13l4.49-19.54Z" fill="url(#linear-gradient-15)"/><path d="M437.52,601.11,433,620.66a89.77,89.77,0,0,0-2,12.93l-1.84,22.85a11.75,11.75,0,0,1-11.71,10.82h-4.12a11.75,11.75,0,0,1-11.71-12.7l1.68-21a89.82,89.82,0,0,1,2-13l4.49-19.54Z" fill="url(#linear-gradient-16)"/><path d="M465.22,601.11l-4.49,19.55a89.69,89.69,0,0,0-2,12.94l-1.83,22.84a11.76,11.76,0,0,1-11.72,10.82h-4.11a11.77,11.77,0,0,1-11.72-12.7l1.69-21a89.77,89.77,0,0,1,2-12.93l4.48-19.55Z" fill="url(#linear-gradient-17)"/><path d="M491.91,601.11l-4.48,19.54a89.84,89.84,0,0,0-2,13h0l-1.8,22.52,0,.32a11.76,11.76,0,0,1-11.71,10.82h-3.12a11.75,11.75,0,0,1-11.71-12.7l1.68-21a89.69,89.69,0,0,1,2-12.94l4.49-19.55Z" fill="url(#linear-gradient-18)"/><rect x="382.53" y="361.09" width="457.36" height="2.62" fill="#bdb0aa"/><rect x="839.88" y="361.09" width="30.5" height="2.62" fill="#7f7774"/><rect x="0.32" y="893.59" width="1199.68" height="37.32" fill="#a3859d"/><path d="M0,908v3.35H37.4V908Zm74.77,0v3.35h37.4V908Zm74.8,0v3.35H187V908Zm74.78,0v3.35h37.37V908Zm74.77,0v3.35h37.4V908Zm74.77,0v3.35h37.4V908Zm74.78,0v3.35h37.4V908Zm74.8,0v3.35h37.37V908Zm74.77,0v3.35h37.4V908ZM673,908v3.35h37.4V908Zm74.77,0v3.35h37.4V908Zm74.8,0v3.35H860V908Zm74.77,0v3.35h37.38V908Zm74.78,0v3.35h37.4V908Zm74.77,0v3.35h37.4V908Zm74.77,0v3.35h37.4V908Z" fill="#fbede2"/><rect x="1196.48" y="907.97" width="3.2" height="3.34" fill="#fbede2"/><text transform="translate(455.77 569.53)" font-size="42.52" fill="#fff" font-family="Poppins-Bold, Poppins" font-weight="700">RESTAURANT</text><text transform="translate(906.15 668.94)" font-size="13.9" fill="#fff" font-family="AmerthaPERSONALUSEONLY, Amertha PERSONAL USE ONLY">Re<tspan x="15.02" y="0" letter-spacing="0.03em">s</tspan><tspan x="19.01" y="0" letter-spacing="-0.03em">t</tspan><tspan x="21.51" y="0">au</tspan><tspan x="35.16" y="0" letter-spacing="-0.01em">r</tspan><tspan x="40.9" y="0" letter-spacing="0em">ant</tspan></text></g></g></svg>