<svg id="Layer_1" data-name="Layer 1" xmlns="http://www.w3.org/2000/svg" xmlns:xlink="http://www.w3.org/1999/xlink" viewBox="0 0 1200 1200"><defs><clipPath id="clip-path"><rect x="-0.67" y="-40.44" width="1200.82" height="861.28" fill="none"/></clipPath></defs><g opacity="0.7"><g clip-path="url(#clip-path)"><polygon points="1020.11 566.46 1020.11 554.29 994.91 554.29 994.91 267.6 994.91 265.9 994.91 256.28 892.82 256.28 892.82 244.72 904.25 244.72 890.73 236.16 878.34 236.16 878.34 228.68 887.86 228.68 847.66 196.63 807.46 228.68 816.98 228.68 816.98 236.16 804.59 236.16 791.07 244.72 802.5 244.72 802.5 256.28 632.53 256.28 632.53 267.6 636.01 267.6 636.01 554.29 610.83 554.29 610.83 566.46 614.58 566.46 614.58 572.39 612.7 572.39 612.7 580.69 614.58 580.69 614.58 585.97 612.7 585.97 612.7 594.27 614.58 594.27 614.58 613.13 612.7 613.13 612.7 621.42 614.58 621.42 614.58 660.35 1016.35 660.35 1016.35 621.42 1018.23 621.42 1018.23 613.13 1016.35 613.13 1016.35 594.27 1018.23 594.27 1018.23 585.97 1016.35 585.97 1016.35 580.69 1018.23 580.69 1018.23 572.39 1016.35 572.39 1016.35 566.46 1020.11 566.46" fill="#ffaeb9"/><path d="M-381.64,650.23s-.65-75.61,29.53-104.07,96.34-94,113-89.38,66.36-108,78.16-120.5,53.79-47,75.83-47.1S11.4,264.7,18.37,258.51,75.89,235,83.18,233.43s38.76,19,53.27,35.29,168.47,47.74,199.12,86.52,126.86,37.16,138.78,46.35c14.36,11.07,137.75,78.6,135.71,73.44-16.93-42.88,85.87,108.55,93.89,112.5s-72.76,62.82-72.76,62.82Z" fill="#ffaeb9"/><path d="M662.73,515.9a6.28,6.28,0,0,0,4.93-5.83,5.31,5.31,0,0,0-.62-2.36.26.26,0,0,0,0-.09,5.86,5.86,0,0,0-1.37-1.77l-.17-.17a6.86,6.86,0,0,0-2-1.19V483.33h2.26v-3.45h-.08v0h-2.18V479h-.07v0h-1.69V461.44h1.41v-5.75h-.07v0H646.49v4.15H634V391.64h6.2V389h-.07v0H638V376.39h2.73v-4.23h2.73v-4.34h-.08v0H620.91V306.56h1.21v-1.81H628v-3.94H628v0h-3.68l-20.71-11.28h.15l-9.18-10.85H595v-2.47H595v0h-6.85v-1.09H588v0h-.77v-.76h-.07v0h-.26v-25.4h-.07v0h-.26V226.06h-.08v0h-1v22.82h-.33v25.42h-.34v.79H584v1.11H577.1v2.47h.08v0h.4l-9.16,10.83h.09l0,0h0l-20.71,11.28H544.1v3.94h.08v0H550v1.79h.08v0h1.12V367.8h-22.5v4.33h.08v0h2.65v4.21h.07v0h2.66v12.55H532v2.67H532v0h6.13v68.18H524.85v-4.13h-.07v0H508.21v5.75h.07v0h1.34V479H508.1v.9h-2.25v3.45h.08v0h2.17v20.72c-.19,0-.35.12-.54.16a7.48,7.48,0,0,0-1.65.48,4,4,0,0,0-.39.23,5.93,5.93,0,0,0-3.44,5.12,6.28,6.28,0,0,0,4.93,5.83v2.45a2.49,2.49,0,0,0,.42,1.32H506v3.13H506v0h.86v1.54H507v0h2.66v114.9h-2.7v5H507v0h2.63v7.23h-2.7v5.05H507v0H663.05v-5H663v0h-2.62v-7.23h2.7v-5.05H663v0h-2.62V524.35h2.51v-1.56h.93v-3.12h-.07v0h-1.36a2.46,2.46,0,0,0,.37-1.3Z" fill="#ff7b83"/><path d="M1251.16,474.52v-4h3.7v-4.17H1253v-1h-2.09V463h-7.72l4.56-5.16h3.16v-3.58l14.19-16.07h2.41l5.11-6.39h-4.26l-2.74,3.42L1196.58,400h3.58v-3h-1.92v-1.42h-1.77v-3.94h1.77v-2.85h-1.77V385h0v-.53l2.45-1.09h0l1.13-.51h0l1.83-.82h0l1.47-.66h0l1.83-.82h0l1.48-.66h0l1.82-.82h0l1.48-.66h0l1.83-.82h0l1.47-.66h0l1.83-.82h0l1.48-.67h0l1.82-.82h0l1.48-.66h0l1.83-.81h0l1.47-.66h0l1.83-.82h0l3.16-1.42h4.37v-2.54h1.91V364.1h1.24l3.82-4.77h-3.19L1234.2,362l-46.32-20.74h-.66v-1.94h-.7v-.68h-.46V338h.48v-.67h-.48v-.64h1.16v-1.73H1185a3.79,3.79,0,0,0-1.44-2.91.73.73,0,0,0,.09-.32.77.77,0,0,0-.54-.7,2.29,2.29,0,0,0,.07-.34h.09v-.77h-.17a2.13,2.13,0,0,0-1.63-1.34c-.25-.32-.53-.64-.8-.94a14.8,14.8,0,0,1-2.71-3.84,8.78,8.78,0,0,1-.65-4.34,2,2,0,0,0-.58-1.34,1.66,1.66,0,0,0-1.18-.5v-.18h.78v-.86h1a.62.62,0,0,0,.65-.58h0a.55.55,0,0,0-.18-.4.81.81,0,0,0,.45-.7.9.9,0,0,0-.94-.84H1175v-1h-.43v-1h1v-.68h-.64a.59.59,0,0,0,.28-.72,2.7,2.7,0,0,0-.46-.74,2.59,2.59,0,0,0,.48-.75.55.55,0,0,0-.06-.5h.4v-.68h-.64a.6.6,0,0,0,.28-.72,2.8,2.8,0,0,0-2-1.64.87.87,0,0,0,.3-.66v-.84a1,1,0,0,0-.75-.92v-.58h-.2v-4.23h.2V298h1v-.32h.61l-.16-.74-.09-.43h.23l-.19-.89h0l-.09-.43h.09l-.48-2.16h0a1,1,0,0,0-.68-.71c0-.07.08-.13.08-.2a.64.64,0,0,0-.33-.55V291h-.19v-1.62h-.31V291h-.19v.55a.64.64,0,0,0-.33.55c0,.09.06.15.1.23a1,1,0,0,0-.61.68h0l-.47,2.16h.09l-.09.43-.2.89h.15l-.06.28-.2.89h.61V298h1v.33h.2v4.23h-.2v.58a1,1,0,0,0-.75.92v.84a.87.87,0,0,0,.3.66,2.81,2.81,0,0,0-2,1.63.6.6,0,0,0,.28.73h-.64v.68h.5a.55.55,0,0,0-.06.5,2.59,2.59,0,0,0,.43.71,2.34,2.34,0,0,0-.51.78.59.59,0,0,0,.28.72h-.64V312h1v1h-.43v1h-2.19a.91.91,0,0,0-1,.84.82.82,0,0,0,.46.7.56.56,0,0,0-.19.4h0a.63.63,0,0,0,.66.58h.85v.86h.78v.19a1.51,1.51,0,0,0-1,.49,2,2,0,0,0-.59,1.34,8.78,8.78,0,0,1-.65,4.34,14.56,14.56,0,0,1-2.71,3.84c-.27.3-.54.62-.79.94a2.12,2.12,0,0,0-1.63,1.34h-.3v.77h.21a2.37,2.37,0,0,0,.08.34.75.75,0,0,0-.54.7.72.72,0,0,0,.08.32,3.81,3.81,0,0,0-1.43,2.91h-2.19v1.73H1159v.64h-.47V338h.47v.63h-.49v2.62h-.66l-46.3,20.73-2.08-2.61h-3.18l3.82,4.77h1.27v3.68h1.91v2.54h4.37l1.22.55h0l1.33.59h0l.61.27h0l1.82.82h0l1.48.66h0l1.83.81h0l1.47.66h0l1.83.82h0l1.48.66h0l1.82.82h0l1.48.66h0l1.83.82h0l1.47.66h0l1.83.82h0l1.48.67h0l1.82.82h0l1.48.66h0l1.82.82h0l1.13.51h0l2.45,1.09v4.27h-1.78v2.85h1.78v3.94h-1.78V397h-2v3h3.58l-69,35.22-2.72-3.4h-4.26l5.11,6.39h2.35l13.68,15.48h-.08v4.17h3.7l2.87,3.22h0l1.71,1.94h-8.31v2.36h-1.85v1h-2.09v4.17h4v46.23h-60.67V652.39h239.13V516.78h-21.48Z" fill="#ffaeb9"/><polygon points="172.73 389.25 172.73 380.12 137.24 380.12 137.24 372.76 120.51 367.21 120.51 357.1 51.55 357.1 51.55 367.21 34.82 372.76 34.82 380.12 -0.67 380.12 -0.67 389.25 4.38 389.25 4.38 402.57 1.96 402.57 1.96 411.7 4.38 411.7 4.38 436.05 1.96 436.05 1.96 445.18 4.38 445.18 4.38 469.53 1.96 469.53 1.96 478.67 4.38 478.67 4.38 503.02 1.96 503.02 1.96 512.15 4.38 512.15 4.38 536.5 1.96 536.5 1.96 545.63 4.38 545.63 4.38 569.98 1.96 569.98 1.96 579.11 4.38 579.11 4.38 600.42 1.96 600.42 1.96 609.55 4.38 609.55 4.38 630.86 1.96 630.86 1.96 639.99 14.86 639.99 14.86 646.97 0.95 646.97 0.95 651.09 5.18 651.09 5.18 654.32 166.47 654.32 166.47 651.09 170.71 651.09 170.71 646.97 156.8 646.97 156.8 639.99 169.7 639.99 169.7 630.86 167.69 630.86 167.69 609.55 169.7 609.55 169.7 600.42 167.69 600.42 167.69 579.11 169.7 579.11 169.7 569.98 167.69 569.98 167.69 545.63 169.7 545.63 169.7 536.5 167.69 536.5 167.69 512.15 169.7 512.15 169.7 503.02 167.69 503.02 167.69 478.67 169.7 478.67 169.7 469.53 167.69 469.53 167.69 445.18 169.7 445.18 169.7 436.05 167.69 436.05 167.69 411.7 169.7 411.7 169.7 402.57 167.69 402.57 167.69 389.25 172.73 389.25" fill="#ff7b83"/><rect x="298.42" y="456.66" width="161.7" height="181.34" fill="#ff7b83"/><polygon points="934.63 424.84 983.92 424.84 983.92 384.79 1013.63 384.79 1013.63 333.09 1036.86 333.09 1036.86 330.46 1044.6 330.46 1044.6 312.34 1047 312.34 1047 330.46 1054.75 330.46 1054.75 333.09 1077.97 333.09 1077.97 384.79 1132.4 384.79 1132.4 658.75 976.45 658.75 983.92 657.87 934.63 657.87 934.63 424.84" fill="#ff5475"/><path d="M1385.88,642.08v-4.54H1371.4v-4.41h-1.13l3.17-5.62h5.12v-4.44h-9.93V612.22h0v0H1361V623h-17.19l-3.86-7.83h0l0,0-1.75,3.63-3.29-6.68V585.64h1.22v-6h0v0h-1.2v-1.7h0v0h-1.25l3.16-1.67h1.34V575h.76v-1.75h0v0h-3.33l-6.76-2.21,3.13-1.66h1.33V568.1h.76v-1.75h0v0h-2.1l-3.15-2.22h-1l-.14-.13c-.74-.69-1.47-1.4-2.18-2.13l-.11-.11c-.8-.83-1.59-1.69-2.35-2.56-.39-.46-.78-.92-1.16-1.39-.15-.18-.3-.35-.44-.53s-.29-.35-.43-.53l-.95-1.23-.26-.34c-.1-.14-.21-.27-.31-.4-.83-1.13-1.64-2.27-2.42-3.44l.62-.34h1.26v-1.24h.71v-3.52h-1.06l-3.9-2.92h-2.44c-.39-.72-.76-1.44-1.13-2.16l-.64-1.28h0c-.21-.43-.42-.86-.62-1.29-.46-1-.91-1.93-1.34-2.89l2.34-.93h1.75v-1.24h.72V530h0v0h-1l-3.9-2.92h-3.36c-.3-.79-.58-1.58-.85-2.36l-.45-1.29h0c-.15-.43-.29-.85-.43-1.27-.21-.65-.42-1.29-.62-1.92l2-1h1.74V518h.71v-3.52h-1.06l-3.9-2.92h-2c-.4-1.57-.75-3-1-4.28l-.29-1.34v0c0-.2-.09-.4-.13-.6v0l-.12-.57c-.33-1.6-.53-2.74-.63-3.31l1.06-.42h1.52v-1.45h.71v-4.13H1300l-3.9-3.44h-1l0-.21h0l-.34-2h0l-.49-3h0l-.34-2h0l-.46-2.71,0-.25-6.6-23.89-.06-.25c0-.17-.07-.33-.12-.5h0a.49.49,0,0,1,0-.11l-.08-.24c0-.1-.06-.2-.1-.3s-.06-.18-.1-.27a1.43,1.43,0,0,0-.08-.22c0-.08,0-.15-.08-.22l-.11-.26c0-.1-.08-.21-.13-.31l0-.08h0c-.14-.3-.3-.58-.45-.87-.07-.14-.13-.28-.21-.41s-.31-.52-.47-.78-.24-.37-.37-.55a3.07,3.07,0,0,0-.24-.35h0l-.18-.23,0,0-.17-.2-.07-.07-.15-.17-.09-.1-.15-.15-.11-.11-.13-.12-.24-.22-.09-.06-.18-.15-.09-.07-.18-.13-.09-.06-.2-.12,0,0h0l0,0h0l0,0a5.11,5.11,0,0,0-.48-.22v-.67h.47v-1.34h1.73v-1.35h1.79v-.64h0v-.7h1.78v-1.41h1.73v-5.16h-1.42l-5.12-1.59c.14-.09.26-.2.39-.3l.31-.25c3.47-2.73,4.34-6.61,4.82-8.53a16.64,16.64,0,0,0,.13-8.28h0v0a17.6,17.6,0,0,0-1.63.7,10.54,10.54,0,0,0,.1-1.51c0-3.34-3.22-6.05-3.22-6.05h0a7.15,7.15,0,0,0-.54.51l-9-28.27h-.58V383.8l1.56-1.56.49-.5.27-.26h.43V381h1.69a1.69,1.69,0,0,0,1.58-1.77h0v0a.86.86,0,0,0,0-.16s0-.05,0-.08,0-.09,0-.14l0,0a1.34,1.34,0,0,0-.07-.18.59.59,0,0,0,0-.08l0-.12h0a1.4,1.4,0,0,0-.22-.32l-.09-.11a2.18,2.18,0,0,0-.34-.26.83.83,0,0,0-.16-.09,1.43,1.43,0,0,0-.37-.09.76.76,0,0,0-.16,0l.08-.06a1.16,1.16,0,0,0,.18-.2h0c0-.07.12-.11.16-.18l0-.08c0-.05,0-.12,0-.17a1.68,1.68,0,0,0,.11-.4,1.19,1.19,0,0,0,.07-.27,1.34,1.34,0,0,0,0-.2h0a1.85,1.85,0,0,0-.12-.4v0a1.5,1.5,0,0,0-.73-.81,1.4,1.4,0,0,0-.31-.09.75.75,0,0,0-.16,0,1.42,1.42,0,0,0,.42-1h0a1.38,1.38,0,0,0-.75-1.26,1.26,1.26,0,0,0-.47-.12,1.5,1.5,0,0,0,.11-.13l.08-.1a1.45,1.45,0,0,0,.22-.36v0a1.3,1.3,0,0,0,.11-.49h0a1.39,1.39,0,0,0-.75-1.26,1.18,1.18,0,0,0-.49-.12h-.55a1.42,1.42,0,0,0,.39-1h0a1.43,1.43,0,0,0-.36-.95l-.09-.08a1.12,1.12,0,0,0-.24-.19l-.2-.08s-.06,0-.1,0a1.43,1.43,0,0,0,.43-1h0c0-.07,0-.13-.06-.2a1.43,1.43,0,0,0-.11-.43s0,0,0,0h0a.88.88,0,0,0-.12-.17,1.16,1.16,0,0,0-.37-.36l0-.05s0-.09,0-.12a1,1,0,0,0,.18-.49s0-.07,0-.12h0a.78.78,0,0,0,0-.16s0-.06,0-.09h0s0-.05,0-.08l-.06-.14v0h0a.9.9,0,0,0-.2-.28.24.24,0,0,0-.08-.06.81.81,0,0,0-.53-.22h-.34v-.4h.08v-.3h.11c.06,0,.09-.05.14-.08l0,0,0,0c.18-.07.29-.15.29-.25a.17.17,0,0,0-.09-.14.51.51,0,0,0-.22-.12h0a.25.25,0,0,0-.16-.1h0v-3.51l-.16-.65a.63.63,0,0,0-.13-.26.17.17,0,0,0-.22-.06v0a.16.16,0,0,0-.2.05.63.63,0,0,0-.13.26l-.16.65v3.51h0a.29.29,0,0,0-.16.1h0a.75.75,0,0,0-.22.12.2.2,0,0,0-.09.14c0,.1.11.19.29.25,0,0,0,0,0,0l0,0s.07.08.13.08h.12v.3h.07v.41H1272a.86.86,0,0,0-.54.21.24.24,0,0,0-.08.06,1,1,0,0,0-.2.29h0v0a.78.78,0,0,0,0,.14s0,0-.05.08h0a.29.29,0,0,0,0,.09.86.86,0,0,0,0,.16h0c0,.05,0,.08,0,.13a1,1,0,0,0,.18.48s0,.09,0,.12l0,.05a1.27,1.27,0,0,0-.37.36c0,.06-.08.11-.12.18h0a0,0,0,0,1,0,0,1.44,1.44,0,0,0-.11.42,1.46,1.46,0,0,0-.05.2h0a1.42,1.42,0,0,0,.42,1l-.1,0-.2.09a1.37,1.37,0,0,0-.24.18l-.09.08a1.48,1.48,0,0,0-.36.95h0a1.48,1.48,0,0,0,.39,1h-.55a1.17,1.17,0,0,0-.49.11,1.39,1.39,0,0,0-.75,1.26h0a1.4,1.4,0,0,0,.11.5v0a1.42,1.42,0,0,0,.21.36l.08.1s.07.1.12.14a1.13,1.13,0,0,0-.48.11,1.38,1.38,0,0,0-.75,1.26h0a1.42,1.42,0,0,0,.42,1l-.16,0a1.4,1.4,0,0,0-.31.09,1.5,1.5,0,0,0-.73.81v0a1.85,1.85,0,0,0-.12.4v0c0,.06,0,.12,0,.19s.06.18.07.28a1.82,1.82,0,0,0,.11.4c0,.05,0,.11,0,.16l0,.08a1.37,1.37,0,0,0,.16.18h0a1.16,1.16,0,0,0,.18.2l.08.06c-.06,0-.11,0-.16,0a1.54,1.54,0,0,0-.37.09.7.7,0,0,0-.16.1,1.66,1.66,0,0,0-.34.25l-.09.11a1.81,1.81,0,0,0-.22.32h0v0a.37.37,0,0,0-.05.11l0,.08a.64.64,0,0,0-.08.19.07.07,0,0,0,0,.05l0,.13s0,.06,0,.08a.86.86,0,0,0,0,.16v0h0a1.69,1.69,0,0,0,1.58,1.77h1.69v.44h.43l.27.26.49.5,1.57,1.57v1.1h-.59l-9,28.27a7.15,7.15,0,0,0-.54-.51h0s-3.22,2.71-3.22,6.05a12.22,12.22,0,0,0,.1,1.51,17.6,17.6,0,0,0-1.63-.7v0h0a16.73,16.73,0,0,0,.13,8.27c.48,1.93,1.35,5.8,4.82,8.54l.31.24c.14.1.25.21.39.31l-5.12,1.58h-1.4v0h0v5.15h1.73v1.41h1.78v.7h0v.64h1.79v1.35h1.73v1.34h.47v.67l-.48.22,0,0h0l0,0h0l0,0-.21.12-.08.06-.19.13-.09.07-.18.15-.09.07c-.08.06-.16.14-.24.21l-.13.12-.11.11-.15.15-.09.1-.15.17-.07.08-.17.19v0a1.81,1.81,0,0,0-.18.23h0c-.09.11-.16.24-.24.35s-.25.36-.37.55-.32.51-.47.78-.14.27-.21.41c-.15.29-.31.57-.44.87h0l0,.08a3.05,3.05,0,0,0-.13.32c0,.08-.07.17-.11.25a2,2,0,0,1-.08.22,1.43,1.43,0,0,0-.08.22c0,.09-.07.18-.1.27l-.1.3c0,.08,0,.16-.08.24l0,.11h0c-.05.17-.07.34-.12.5l-.06.25-6.6,23.89,0,.25-.46,2.71h0l-.34,2h0l-.5,3h0l-.34,2h0l0,.21h-1l-3.9,3.44h-1.06v4.13h.72v1.45h1.51l1.06.42c-.1.58-.3,1.71-.63,3.31q-.06.27-.12.57v0c0,.19-.08.39-.13.6v0c-.1.43-.2.87-.3,1.34-.29,1.27-.64,2.71-1,4.28h-2l-3.9,2.92h-1v0h0V518h.71v1.24h1.74l2,1c-.2.63-.41,1.27-.62,1.92-.14.42-.28.84-.43,1.27h0l-.45,1.29c-.27.78-.55,1.57-.85,2.36h-3.36l-3.9,2.92h-1v0h0v3.51h.71v1.24h1.75l2.34.93c-.43,1-.87,1.93-1.34,2.9l-.62,1.28h0c-.22.43-.43.86-.65,1.28-.37.72-.74,1.44-1.13,2.16h-2.44l-3.9,2.92h-1v0h0v3.51h.72V551h1.25l.62.34c-.78,1.17-1.59,2.31-2.42,3.44l-.31.4c-.08.12-.17.23-.26.35-.31.41-.63.81-.95,1.22l-.43.54-.43.52-1.17,1.39c-.76.88-1.55,1.73-2.35,2.56l-.11.11c-.71.73-1.43,1.44-2.18,2.13a.86.86,0,0,1-.14.13h-1l-3.16,2.23h-2.12v1.76h.76v1.23h1.34l3.12,1.66-6.76,2.21h-3.32v0h0V575h.75v1.23h1.34l3.16,1.68h-1.27v1.71h-1.22v6h1.22v26.5l-3.28,6.68-1.76-3.63,0,0v0l-3.86,7.83h-17.18V612.22h-7.68v10.82h-9.93v4.44h5.12l3.18,5.62h-1.13v4.41H1159.4v4.54h4.71l5.29,5.75h-6v4.54h218.42v-4.54h-6l5.3-5.75ZM1273.09,382.24v-.76h.2V381h.89v.43h.17l-.75.75-.51.51Zm-.89,0v.5l-.52-.51-.75-.75h.17v-.43h.89v.44h.21Z" fill="#ff5475"/><path d="M293,511.34v-3H303.9v-11H283.72L211,485.6h0l-4.09-9h0a6.65,6.65,0,0,0-3.29-3.24v-3.25h-1.05V464h1.05v-5.08h-2.94v-1.79h.5v-.64a2.13,2.13,0,0,0,1.39-2v-2.13a2.13,2.13,0,0,0-2.11-2.13h-.23v-.61H198.9v-.74h.46v-.95h-.65a1.8,1.8,0,0,0-3.23,0h-.64v.95h.45v.74H194v.61h-.22a2.13,2.13,0,0,0-2.12,2.13v2.13a2.13,2.13,0,0,0,1.39,2v.64h.5v1.79h-2.94V464h1v6.13h-1v1.45l-18.84-15.49a6.72,6.72,0,0,0,.62-2.82c0-4.21-3.89-7.62-8.69-7.62a9.63,9.63,0,0,0-1.95.19v-2.3h-1.54v-4.44H159V426.15h-.84V414.66a2.73,2.73,0,0,0,1,.18,2.24,2.24,0,1,0,0-4.44,2.68,2.68,0,0,0-1.84.7,2.68,2.68,0,0,0-1.83-.7,2.24,2.24,0,1,0,0,4.44,2.72,2.72,0,0,0,1-.18v11.49h-.84v12.91h-1.14v4.44H153v2.3a9.63,9.63,0,0,0-1.95-.19c-4.8,0-8.69,3.41-8.69,7.62a6.72,6.72,0,0,0,.62,2.82l-18.63,15.32v-1.28h-1V464h1v-5.08h-2.94v-1.79h.5v-.64a2.13,2.13,0,0,0,1.39-2v-2.13a2.13,2.13,0,0,0-2.12-2.13H121v-.61h-1.32v-.74h.46v-.95h-.65a1.8,1.8,0,0,0-3.23,0h-.65v.95H116v.74h-1.32v.61h-.23a2.13,2.13,0,0,0-2.11,2.13v2.13a2.13,2.13,0,0,0,1.39,2v.64h.5v1.79h-2.94V464h1.05v6.13h-1.05v3.15a6.68,6.68,0,0,0-3.5,3.34h0l-4.08,9h0L31,497.38H10.82v11H21.75v3H32.69v46.32H26.52v7.16H29v3.81h3.69v7.07H26.52v7.16H29v3.81h3.69v11.21H26.52V605H29v3.81h3.69v27.49H29v2.33H20.7v11H294v-11h-8.3v-2.33H282V608.85h3.68V605h2.48v-7.16H282V586.67h3.68v-3.81h2.48V575.7H282v-7.07h3.68v-3.81h2.48v-7.16H282V511.34ZM160.08,412.62A1.49,1.49,0,0,1,158.5,414l-.3,0v-2.71l.3,0A1.49,1.49,0,0,1,160.08,412.62ZM156.22,414a1.39,1.39,0,1,1,0-2.76l.3,0V414Z" fill="#ff5462"/><path d="M13.61,617.8v-3.42H12.33v-3h-.74V581h1.55v-3.31h-.81v-2.31h-1v-2.63H9.24s-1.67-44.7-6.73-84.59c-4.08-32.19-10.86-65-13.32-76.47h2.47v-7.53H-9.95v-2.06h-1.66v-2.22h-1.83a3.66,3.66,0,0,0,.62-2.06c0-1.74-1.12-3.16-2.49-3.16h-2.26c-2.2-3.83-3.63-13.07-4-15.49h.61v-3.26h-2.21a2.32,2.32,0,0,0,.57-1.58,1.91,1.91,0,0,0-1.64-2.1,1.36,1.36,0,0,0-.66.18v-1.18h-.73A1.62,1.62,0,0,0-27,370.17a1.64,1.64,0,0,0-1.44,1.09h-1a1.65,1.65,0,0,0-1.38-1.09,6.78,6.78,0,0,0,.67-3v-9.7a6.17,6.17,0,0,0-2.34-5,8.58,8.58,0,0,0,.71-3.58c0-3-2.9-5.48-2.9-5.48l-.06.05-.05-.05s-2.91,2.45-2.91,5.48a8.74,8.74,0,0,0,.71,3.58,6.16,6.16,0,0,0-2.33,5v9.7a6.92,6.92,0,0,0,.66,3,1.65,1.65,0,0,0-1.38,1.09h-1a1.62,1.62,0,0,0-1.44-1.09A1.64,1.64,0,0,0-44,371.26h-.72v1.18a1.39,1.39,0,0,0-.66-.18,1.92,1.92,0,0,0-1.65,2.1,2.33,2.33,0,0,0,.58,1.58h-2.22v3.26h.62c-.35,2.42-1.79,11.66-4,15.49h-2.26c-1.37,0-2.49,1.42-2.49,3.16a3.66,3.66,0,0,0,.61,2.06H-58v2.22H-59.7v2.06h-1.62v7.53h2.48c-2.47,11.47-9.24,44.28-13.33,76.47-5.06,39.89-6.72,84.59-6.72,84.59H-81v2.63h-1v2.31h-.8V581h1.54v30.38H-82v3h-1.28v3.42h2v17.06H-82v3.42h.74v16.49H11.59V638.28h.74v-3.42h-.74V617.8ZM-34.63,399.91H-35a2.43,2.43,0,0,0,.2-.35A4,4,0,0,0-34.63,399.91ZM-33,579.37h-3.56v-.65h.81v-2.63h1.95v2.63h.8Z" fill="#ff5462"/><path d="M636.18,546.07V541h4.55v-5.76h-1.31v-5.77h-7.09v-6.59h3.28v-3.22h-.9v-3.31h.12a1.07,1.07,0,0,0,1.06-1.06v-.06a1.08,1.08,0,0,0-.32-.75,1,1,0,0,0-.75-.33h-.42a4.5,4.5,0,0,0-.23-.43,7.41,7.41,0,0,0-.53-1c-.3-.47-.64-.93-1-1.37-.68-.91-1.22-1.6-1.72-2.4a19.72,19.72,0,0,1-1.55-3.05,14.59,14.59,0,0,1-.79-6.18,3,3,0,0,0-.71-1.9h0v0a1.58,1.58,0,0,0-.42-.4,1.12,1.12,0,0,0,.08-.26s0-.06,0-.1a.77.77,0,0,0-.25-.57.85.85,0,0,0-.6-.25h-.41a.58.58,0,0,0,0-.14s0,0,0-.05a.6.6,0,0,0-.19-.45.61.61,0,0,0-.45-.2h-1.38V495h.43a.7.7,0,0,0,.7-.71.72.72,0,0,0-.21-.51.67.67,0,0,0-.5-.22h-.42v-1.21a2.39,2.39,0,0,0,.8-1.77,8.74,8.74,0,0,0-1.15-3l0,0c-.28-.53-.56-1-.79-1.39a.33.33,0,0,0,0-.06l-.4-.65s-2.39,3.76-2.39,5.09a2.37,2.37,0,0,0,.81,1.77v1.22h-.43a.72.72,0,0,0,0,1.43h.43v.41h-1.4a.64.64,0,0,0-.63.64c0,.08.06.14.09.21h-.45a.83.83,0,0,0-.85.8.69.69,0,0,0,.16.36,1.68,1.68,0,0,0-.47.42,3.08,3.08,0,0,0-.7,1.9,14.59,14.59,0,0,1-.79,6.18,21,21,0,0,1-3.28,5.46,12.76,12.76,0,0,0-1.73,2.81h-.4a1.06,1.06,0,0,0-1.06,1.06v.06a1.06,1.06,0,0,0,1.06,1.06h.12v3.31h-.92v3.22h3.29v1.89a27,27,0,0,1-6.8-1.32c-7.53-2.67-20.28-9.51-22.3-24.8H586v-3.22h-1.1v-2.31h-3.46v-4.7h.21a1.83,1.83,0,0,0,1.81-1.83v-.08a1.81,1.81,0,0,0-.54-1.29,1.79,1.79,0,0,0-1.29-.56h-.7A21.55,21.55,0,0,0,578,480l-.07-.1c-1.17-1.56-2.08-2.74-2.94-4.1a34.06,34.06,0,0,1-2.65-5.22c-2-4.62-1.29-9.33-1.35-10.56a5.32,5.32,0,0,0-1.21-3.26h0l0,0A2.64,2.64,0,0,0,569,456a1.32,1.32,0,0,0,.14-.45c0-.06.08-.11.08-.17a1.35,1.35,0,0,0-.43-1,1.48,1.48,0,0,0-1-.42h-.7a1,1,0,0,0,0-.24s0-.06,0-.09a1,1,0,0,0-.32-.77,1.06,1.06,0,0,0-.78-.34h-2.36v-.69h.73a1.22,1.22,0,0,0,.85-2.08,1.16,1.16,0,0,0-.87-.38h-.71v-2.07a4.05,4.05,0,0,0,1.37-3c0-1.07-.91-3.07-1.87-4.88,0-.08-.08-.17-.13-.25l-.51-.93-.24-.42-.4-.68-.26-.45-.33-.54-.14-.23-.2-.33s-4.09,6.44-4.09,8.71a4.06,4.06,0,0,0,1.38,3v2.09h-.74a1.22,1.22,0,0,0,0,2.44h.74v.71h-2.39a1.08,1.08,0,0,0-1.07,1.09c0,.14.1.23.14.35h-.77a1.41,1.41,0,0,0-1.44,1.37,1.27,1.27,0,0,0,.27.63,2.62,2.62,0,0,0-.8.7A5.26,5.26,0,0,0,551,460c-.07,1.23.6,5.94-1.35,10.56a35.77,35.77,0,0,1-5.61,9.34,22.12,22.12,0,0,0-3,4.8h-.67a1.82,1.82,0,0,0-1.81,1.83v.08a1.82,1.82,0,0,0,1.81,1.83h.2v4.7h-3.49v2.31H536v3.22h1.88c-2,15.29-14.77,22.13-22.3,24.8a27.12,27.12,0,0,1-6.81,1.32v-1.91h3.28v-3.21h-.9v-3.3h.12a1.07,1.07,0,0,0,1.06-1.06v-.06a1.11,1.11,0,0,0-1.07-1.08h-.41a5.05,5.05,0,0,0-.25-.45,10.15,10.15,0,0,0-.51-1c-.31-.47-.65-.93-1-1.37-.68-.91-1.21-1.6-1.72-2.4a20.65,20.65,0,0,1-1.55-3.05,14.59,14.59,0,0,1-.79-6.18,3.08,3.08,0,0,0-.7-1.9h0v0a1.78,1.78,0,0,0-.43-.4.77.77,0,0,0,.08-.27s0-.06,0-.09a.77.77,0,0,0-.25-.57.85.85,0,0,0-.6-.25h-.41a.58.58,0,0,0,0-.14s0,0,0-.05a.63.63,0,0,0-.18-.45.65.65,0,0,0-.46-.2h-1.38V495h.43a.71.71,0,0,0,.5-1.22.69.69,0,0,0-.51-.22h-.42v-1.21a2.36,2.36,0,0,0,.8-1.77,8.74,8.74,0,0,0-1.15-3v0c-.29-.53-.57-1-.79-1.39l0-.06-.39-.65s-2.39,3.76-2.39,5.09a2.36,2.36,0,0,0,.8,1.77v1.22h-.43a.72.72,0,0,0,0,1.43h.43v.41h-1.39a.64.64,0,0,0-.64.64c0,.08.06.14.09.21h-.45a.83.83,0,0,0-.85.8.71.71,0,0,0,.17.36,1.71,1.71,0,0,0-.48.42,3.08,3.08,0,0,0-.7,1.9,14.59,14.59,0,0,1-.79,6.18,21,21,0,0,1-3.28,5.46,12.76,12.76,0,0,0-1.73,2.81h-.4a1.07,1.07,0,0,0-1.06,1.06v.06a1.07,1.07,0,0,0,1.06,1.06h.12v3.3h-.92v3.21h3.3v6.61h-7.09v5.77h-1.31V541h4.54v5.07H476v10.34h9.89V660.55H636.18V556.41h9.9V546.07Z" fill="#ff5462"/><path d="M1144.17,565h-3.25V551.39h-38.45V472.93h1.94v-6.52h-1.94v-2.88H896.39v-6h5.07v-5.29h-5.07v-2.6h2.33v-2.95h-.67v-3h-3.63v-3.38h1.68v-1.65h-.46v-1.69h.06a.54.54,0,0,0,.54-.54v0a.55.55,0,0,0-.55-.55h-.21c0-.08-.09-.16-.13-.25a3.77,3.77,0,0,0-.26-.48c-.15-.25-.33-.48-.5-.71-.35-.46-.62-.82-.88-1.22a10.28,10.28,0,0,1-.79-1.57,7.54,7.54,0,0,1-.41-3.16,1.49,1.49,0,0,0-.36-1h0a1.08,1.08,0,0,0-.22-.21.5.5,0,0,0,0-.13s0,0,0-.05a.41.41,0,0,0-.12-.29.44.44,0,0,0-.31-.13h-.21a.17.17,0,0,0,0-.07s0,0,0,0h0a.32.32,0,0,0-.32-.32h-.71v-.21h.22a.36.36,0,0,0,.36-.36.36.36,0,0,0-.11-.26.33.33,0,0,0-.26-.11h-.21v-.63h0a1,1,0,0,0,.08-.11,1.2,1.2,0,0,0,.31-.75v0a2,2,0,0,0-.17-.6s0-.05,0-.08-.17-.36-.26-.54l-.15-.32-.26-.45-.16-.29-.2-.32a9.3,9.3,0,0,0-1.23,2.6,1.18,1.18,0,0,0,.42.89v.64h-.22a.38.38,0,0,0-.37.37.37.37,0,0,0,.37.36h.22v.22H888a.32.32,0,0,0-.32.32s0,.07,0,.11h-.23a.42.42,0,0,0-.43.41.41.41,0,0,0,.11.25c-.09.05-.2.05-.27.15a1.61,1.61,0,0,0-.36,1,7.48,7.48,0,0,1-.4,3.16,11.08,11.08,0,0,1-1.68,2.8,6.6,6.6,0,0,0-.89,1.44h-.2a.54.54,0,0,0-.54.54v0a.54.54,0,0,0,.54.54h.06v1.69H883v1.65h1.69v1a13.93,13.93,0,0,1-3.49-.68,21.11,21.11,0,0,1-6.68-3.83V436H879v-5.78h-2.25v-1.43H874.2v-3.27h-4.07v-.35h-1.77v-2.41h.1a.93.93,0,0,0,.93-.93v0a.93.93,0,0,0-.28-.66.9.9,0,0,0-.66-.29h-.05l1.93-2.48h3.87v-5l17.38-22.28h2.94l6.26-8.86h-5.22L892.21,387l-84.54-48.87h4.39V334h-2.35v-2h-2.17v-5.46h2.17v-3.94h-2.17v-5.2h0v-.73l3-1.52h0l1.38-.7h0l2.24-1.13h0l1.81-.92h0l2.23-1.13h0l1.81-.92h0l2.24-1.13h0l1.8-.92h0l2.24-1.13h0l1.81-.92h0l2.23-1.13h0l1.81-.92h0l2.23-1.13v0l1.81-.91h0l2.24-1.13v0l1.8-.91h0l2.24-1.14h0l3.87-2h5.35v-3.53H854V288.4h1.51l4.68-6.62h-3.9l-2.56,3.63L797,256.65h-.81V254h-.85V253h-.56v-.89h.58v-.93h-.58v-.88h1.41v-2.4h-2.68a5.51,5.51,0,0,0-1.82-4.08c.06-.14.16-.24.16-.4a1,1,0,0,0-.67-.9,3.15,3.15,0,0,0,.11-.55h.1v-1.06h-.21a2.69,2.69,0,0,0-2-1.85c-.31-.45-.64-.89-1-1.31a20.6,20.6,0,0,1-3.32-5.32,13.78,13.78,0,0,1-.8-6,2.9,2.9,0,0,0-.71-1.85,1.86,1.86,0,0,0-1.45-.7v-.25h1v-1.19h1.16a.8.8,0,0,0,.8-.81v0a.8.8,0,0,0-.27-.58,1.09,1.09,0,0,0,.61-.93,1.17,1.17,0,0,0-1.16-1.17h-2.81v-1.39h-.52v-1.39H782v-.93h-.78a.87.87,0,0,0,.34-1,3.39,3.39,0,0,0-.56-1,3.46,3.46,0,0,0,.59-1,.89.89,0,0,0-.08-.7H782v-.94h-.78a.86.86,0,0,0,.34-1,3.57,3.57,0,0,0-2.39-2.27,1.36,1.36,0,0,0,.37-.92v-1.16a1.36,1.36,0,0,0-.92-1.28v-.79h-.25v-5.88h.25v-.45h1.24v-.45h.75l-.2-1h0l-.11-.6h.29l-.24-1.23h0l-.1-.61h.1l-.58-3h0a1.33,1.33,0,0,0-.86-.93.79.79,0,0,0,.13-.33.89.89,0,0,0-.41-.76v-.77h-.23v-2.23H778v2.23h-.23v.77a.89.89,0,0,0-.41.76,1,1,0,0,0,.14.37,1.32,1.32,0,0,0-.76.89h0l-.58,3h.12l-.12.61h0l-.24,1.23H776l-.32,1.62h.75v.45h1.24v.45H778v5.88h-.25v.79a1.36,1.36,0,0,0-.92,1.28v1.16a1.36,1.36,0,0,0,.37.92,3.59,3.59,0,0,0-2.39,2.27.86.86,0,0,0,.34,1h-.78v.94h.61a.83.83,0,0,0-.08.69,3.63,3.63,0,0,0,.53,1,3.62,3.62,0,0,0-.62,1.08.88.88,0,0,0,.34,1h-.78v.93h1.23v1.39H775v1.39h-2.69a1.17,1.17,0,0,0-1.16,1.17,1.09,1.09,0,0,0,.61.93.8.8,0,0,0-.27.58v0a.8.8,0,0,0,.8.81h1v1.19h1v.26a1.78,1.78,0,0,0-1.29.69,2.9,2.9,0,0,0-.72,1.85,13.63,13.63,0,0,1-.8,6,20.33,20.33,0,0,1-3.31,5.32c-.33.42-.67.86-1,1.31a2.72,2.72,0,0,0-2,1.85h-.36V242h.26a2.44,2.44,0,0,0,.11.55,1,1,0,0,0-.68.9c0,.16.1.26.16.4a5.5,5.5,0,0,0-1.81,4.08h-2.68v2.4h1.41v.88h-.59v.93h.59V253h-.6v3.62h-.81l-56.67,28.74L701,281.78h-3.89l4.67,6.62h1.56v5.09h2.34V297h5.35l1.49.76h0l1.63.82h0l.74.38h0l2.24,1.14h0L719,301h0l2.23,1.13h0l1.81.92h0l2.24,1.13h0l1.8.92h0l2.24,1.13h0l1.81.92h0l2.23,1.13h0l1.81.92h0l2.23,1.13h0l1.81.91h0l2.24,1.13h0l1.8.91h0l2.24,1.13h0l1.37.69h0l3,1.52v5.93h-2.17v3.94h2.17V332h-2.17v2H745.2v4.12h4.38l-78.11,45.15L668.92,381l-.51-.47h-2.09v-1.21h0v-1.95h4.85V373h-1.65v-4.35h.16a1.43,1.43,0,0,0,1.42-1.43v-.07a1.4,1.4,0,0,0-.13-.57,1.43,1.43,0,0,0-1.31-.88h-.55a16.79,16.79,0,0,0-2.27-3.68l-.06-.09c-.92-1.22-1.63-2.14-2.31-3.21a26.45,26.45,0,0,1-2.08-4.1c-1.53-3.63-1-7.32-1.06-8.29a4.06,4.06,0,0,0-.61-2.07,5.62,5.62,0,0,0-.35-.5,2.07,2.07,0,0,0-.57-.54,1.37,1.37,0,0,0,.11-.36c0-.05.06-.08.06-.13a1,1,0,0,0-.34-.76,1.15,1.15,0,0,0-.81-.33h-.55a.65.65,0,0,0,0-.19s0-.05,0-.08a.89.89,0,0,0-.86-.87h-1.85V340h.57a1,1,0,0,0,.67-1.64.94.94,0,0,0-.68-.3h-.56V336.4a3.18,3.18,0,0,0,1.07-2.37,11.22,11.22,0,0,0-1.5-3.89l-.06-.13c-.15-.28-.3-.54-.45-.8l-.14-.26-.37-.64-.15-.24-.26-.44a1.57,1.57,0,0,0-.12-.19l-.15-.25s-3.21,5.05-3.21,6.84a3.19,3.19,0,0,0,1.08,2.37V338h-.57a1,1,0,1,0,0,1.92h.57v.55h-1.87a.86.86,0,0,0-.85.85c0,.11.08.19.12.29h-.61a1.1,1.1,0,0,0-1.13,1.07,1,1,0,0,0,.22.49,2.19,2.19,0,0,0-.64.55,4.22,4.22,0,0,0-.95,2.56c-.05,1,.48,4.66-1.05,8.29a28.46,28.46,0,0,1-4.4,7.33,17.25,17.25,0,0,0-2.33,3.77h-.53a1.44,1.44,0,0,0-1.43,1.43v.07a1.43,1.43,0,0,0,1.43,1.43h.15V373H636v4.34h4.86v1.95h0v1.21h-2.09l-61,55.52h-3.6v6.75h3.09v5.14h2.12v6.91h-2.12v6.76h9.25v32H582.4v24.06h-2.34v5.52h2.34V657.24h11.08v.36H622.7l36.37-.14-.18-.19h35.8l7.43,0h4.37v0h64.17l7.42,0H921.32v0h219.6V573h3.25Z" fill="#ff5554"/><path d="M1346.43,655.65c-1.88-39.43-34.16-70.83-73.8-70.83s-71.91,31.4-73.78,70.83Z" fill="#ff5554"/><path d="M25.86,512c4.88,4.64,9.75,9.2,14.58,13.62q32.21,29.48,62.78,52.44,22.86,17.17,44.59,30.51c48.26,29.62,91.94,44.64,129.82,44.64v-1.2q-3.33,0-6.73-.17c-.75,0-1.51-.09-2.26-.14-1.52-.09-3-.19-4.58-.33-.91-.08-1.83-.19-2.75-.29-1.41-.15-2.82-.31-4.24-.5l-2.94-.42-2-.33,6.9-1-1.56-6.45-17.06,5.14-.35-.08c-3-.69-6-1.48-9.11-2.32l-.85-.25,4.58-1.58-.78-6.59-14.67,4.83-.73-.23c-2.63-.89-5.27-1.83-7.94-2.82-.32-.13-.64-.23-1-.36l4.71-1.62L212.17,630,200,634.4c-1.38-.58-2.79-1.21-4.18-1.82s-2.53-1.08-3.81-1.66l0,0,4-.43-.6-6.9-14.93,1.83c-1.27-.64-2.54-1.27-3.82-1.93l-2.1-1.06-.2-.11,3.78-.41-.6-6.9-13.59,1.66-2.34-1.33c-1.89-1.07-3.77-2.14-5.67-3.26l-.76-.45,4.69-.5-.6-6.9-13.52,1.65c-2.65-1.65-5.31-3.36-8-5.1l5.05-.54-.61-6.9L129,594.93c-2.48-1.67-5-3.35-7.46-5.1l3.76.11.33-6.92-13.84-.19c-2.46-1.79-4.9-3.52-7.38-5.38l-.59-.44-.16-.12,6.36-.8-.73-6.89-13.17,1.87c-1.49-1.16-3-2.29-4.48-3.47-1.76-1.38-3.53-2.77-5.3-4.19-.77-.61-1.55-1.26-2.32-1.88l6.14,4.16L99.38,564l-1.8-7.12-8,1.59L82,559.93c-2.28-1.85-4.56-3.68-6.86-5.58l.56.38L85,553l-1.8-7.12h0l-14.64,2.9q-3.42-2.89-6.85-5.87l9.36-1.74L69.79,534l-15,3C52.63,535,50.43,533,48.24,531l9-1-1.27-7.23-14.85,1.81c-2.35-2.14-4.72-4.41-7.08-6.61l8.82-1.22-.69-7-14.78,2c-.76-.72-1.52-1.4-2.28-2.13q-2.45-2.32-4.86-4.67l6.66.2.32-6.92-14.09-.2-.85-.84c-.93-.9-1.84-1.81-2.75-2.71l-2.31-2.3L16,492l-.69-7.3-15.07.61-.95-1-2.83-2.88L-5.6,479.3,3.78,479l-.69-7.3-15.42.63-1-1.07-2.26-2.37-2-2.05,9.19-.27-.7-7.31-15,.61-.93-1-2.88-3.1c-.55-.58-1.08-1.16-1.62-1.74l1.06,1,9.43-.28-.7-7.31-15.29.63-1.3-1.42-2-2.22-1.14-1.26,7.37-1.07-.56-7.32-13.23,1.26-1.4-1.57-1-1.13-.65-.73,7.34-1-.52-7.32-13.14,1.18-1.36-1.55-1.89-2.17c-.3-.33-.58-.66-.87-1l.8.79,7.71-1.08-.51-7.32L-65,414.36l-.85-1-1.94-2.26c-.33-.4-.66-.79-1-1.18l7.57-.37-.81-7.27-12.81.5,0,0-4-4.8-.16-.19,7.39-.36-.8-7.27-12.5.48-.28-.33-.56-.7-1.14-1.39.56-2.47-3.43-1.06-.9-1.11-.85-1.05-1.64-2-.69-.86-1.66-2.08c-.26-.34-.52-.66-.78-1l-1.32-1.66v-1.24h-.76v-1.35h-.16a2.45,2.45,0,0,0,0-.27v-4.5h.78a.05.05,0,0,0,0,0s0,0,0,0a.35.35,0,0,0,.07.12l.06.1.1.12,0,0,0,0h0l.18.15h0l0,0,.17.09H-97l.18.06.07,0,.27,0h0l.25,0,.09,0,.16-.05,0,0,0,0h0l.13-.08.06,0,0,0,.06,0,.1-.08h0l0-.05.05-.05,0-.07a.71.71,0,0,0,.1-.14l0-.05a.36.36,0,0,1,0-.09l0-.05v0h1.29v-4.46h.65v-1h.67v-2.46h-.67v-1h-.65v-4.06h-.88a1.41,1.41,0,0,0-.06-.22,0,0,0,0,1,0,0v0l0-.08,0-.08,0-.06-.1-.15-.06-.07,0,0-.05-.05,0,0,0,0,0,0,0,0-.11-.09-.12-.06-.06,0,0,0h0l-.15,0-.1,0-.27,0h0a1.33,1.33,0,0,0-.28,0l-.08,0a1.27,1.27,0,0,0-.18.06h0l0,0,0,0-.14.08-.09.06-.06.05,0,0,0,0,0,0,0,0,0,0-.1.12a.86.86,0,0,0-.07.1l-.06.12,0,.06,0,0v0a.65.65,0,0,0,0,.13c0,.05,0,.09,0,.13h-1.34l-7.39-18.77-1.48-3.74,2.42-6.15h-.88V325h0v-.92h.24v-.51h-.43v-1h.18v-.34h.06v-.09h-.24V322h-.17a3.23,3.23,0,0,0-2.14-2v-.13h-.12v-.42h.23V319h-.1l-.33-1.12h-.09s0,0,0,0a.29.29,0,0,0,0-.09l0-.07,0,0v0l0,0,0,0h0l-.09,0a0,0,0,0,0,0,0h0s-.06,0-.1,0a.38.38,0,0,0-.38.38h-.08l-.33,1.12h-.11v.42h.23v.42h-.11V320a3.2,3.2,0,0,0-2.13,2h-.18v.22h-.24v.09h.06v.34h.17v1H-113v.51h.25v1.8h-.88l2.42,6.15-8.87,22.51h-.8s0,0,0-.07a1.38,1.38,0,0,0-.43-.75.47.47,0,0,0-.09-.06,1.43,1.43,0,0,0-.87-.32,1.38,1.38,0,0,0-.86.32.47.47,0,0,0-.09.06,1.46,1.46,0,0,0-.44.75s0,0,0,.07H-125v4.06h-.64v1h-.68v2.46h.68v1h.64v4.46h1a1.54,1.54,0,0,0,.47.6l.14.09a1.47,1.47,0,0,0,.74.23,1.44,1.44,0,0,0,.74-.23l.14-.09a1.54,1.54,0,0,0,.47-.6h1.11v4.27a1.69,1.69,0,0,0-.08.5h-.16v1.12l-.18.23h-.58v.73l-.81,1-.94,1.19-.94,1.19-1.14,1.42-.93,1.15-1.32,1.65-1.07,1.32-1.84,2.28-1.08,1.32-2.23,2.73c-.36.44-.74.91-1.12,1.36l-1.86,2.27-1.27,1.53c-.65.78-1.31,1.59-2,2.4l-1.28,1.53c-.82,1-1.67,2-2.54,3l-.89,1.06c-1.16,1.39-2.36,2.8-3.58,4.25l-1.19,1.39-2.59,3-1.64,1.91-2.43,2.83-1.65,1.91-2.92,3.37-1.3,1.49c-1.44,1.65-2.9,3.32-4.4,5-.28.33-.58.66-.87,1l-3.7,4.18-1.66,1.85-3.16,3.53-1.82,2-3.32,3.67c-.56.61-1.11,1.21-1.66,1.83l-4.22,4.6-1,1c-1.7,1.85-3.44,3.72-5.19,5.6l-1.63,1.74-3.81,4.07-2,2.07-3.72,3.91c-.66.69-1.31,1.38-2,2.07-1.39,1.46-2.81,2.92-4.23,4.39l-1.51,1.57c-1.93,2-3.87,4-5.84,6l-1.24,1.25q-2.33,2.37-4.7,4.74l-2.09,2.09c-1.34,1.35-2.7,2.69-4.06,4l-2.26,2.23-4.21,4.12-2.05,2q-3.12,3-6.3,6.06C-287.66,551-329.17,584-367.66,607.59c-4.07,2.5-8.09,4.85-12.1,7.14-.94.55-1.89,1.08-2.84,1.62-4,2.23-7.95,4.4-11.87,6.43l-.37.19c-3.84,2-7.64,3.84-11.41,5.62l-2.47,1.16c-3.88,1.79-7.72,3.5-11.52,5.08l-.2.08-.35.1v0l-1.1.44q-4,1.65-8.06,3.15l-2.61,1c-2.29.82-4.57,1.61-6.83,2.35-.9.3-1.81.6-2.71.88-2.41.76-4.79,1.47-7.17,2.14l-1.95.56q-4.56,1.23-9,2.24l-.9.19c-2.6.57-5.19,1.08-7.75,1.53-.89.16-1.78.29-2.67.43q-3,.48-5.92.86c-1,.12-1.94.24-2.9.34-2,.22-3.89.38-5.82.52-.85.06-1.71.14-2.56.18-2.72.16-5.43.25-8.1.25v1.2c2.69,0,5.4-.1,8.14-.25.86,0,1.72-.12,2.57-.18q2.91-.21,5.86-.52c1-.1,1.94-.22,2.91-.34,2-.25,4-.54,5.95-.86.9-.15,1.78-.28,2.68-.44,2.55-.45,5.13-.95,7.72-1.52l1-.2c3-.67,6-1.43,9.07-2.26.64-.17,1.28-.37,1.91-.54,2.41-.68,4.83-1.39,7.26-2.16l2.68-.87c2.28-.75,4.58-1.55,6.9-2.38l2.6-.94c2.67-1,5.37-2,8.08-3.15.38-.16.74-.28,1.11-.43l2.92,10,6.61-2-3.15-10.77c.36-.16.72-.34,1.07-.49,2.66-1.18,5.34-2.42,8-3.7l1.26-.58,5,9.9,6.15-3.12-4.93-9.82c.39-.2.78-.43,1.17-.62,3.95-2,7.93-4.1,11.95-6.33l.15-.08,4.93,9.84,6.15-3.12-5.07-10.11c.22-.13.45-.28.67-.4q4.53-2.62,9.11-5.4c.28-.18.57-.34.85-.51l4.87,9.79,6.16-3.1-5.15-10.35c1.89-1.19,3.82-2.48,5.72-3.72,1.65-1.07,3.29-2.12,5-3.23.49-.33,1-.63,1.48-1l6.62,8.85,5.5-4.16-6.41-8.57c1.49-1,3-2.1,4.49-3.15l2.92-2.05c.56-.4,1.13-.78,1.7-1.19l5,9.23,6.05-3.31h0l-5.39-10c2-1.46,4-2.95,6-4.45l.94-.7.35-.26,1.94,2.44,5,6.34h0l5.37-4.33-6.86-8.63q4.54-3.5,9.14-7.13l5.56,8.91,5.83-3.69-6-9.56q3.93-3.18,7.88-6.46l5.62,8.93,5.81-3.7-6.09-9.69c2.29-1.93,4.6-3.89,6.9-5.88l7.6,8.34,5.08-4.68-7.46-8.18.4-.36c.41-.35.82-.73,1.23-1.08,2.35-2.06,4.7-4.13,7.05-6.24l6.14,8.49,5.57-4.07-6.55-9.07,1.87-1.72,2.53-2.32c1.35-1.24,2.69-2.46,4.05-3.72l6.56,8.61,5.47-4.21-7-9.14q2.79-2.62,5.59-5.29l3.42-3.27,6.76,8.81,5.45-4.23-7.09-9.24-1.53,1.19.37-.37c2.45-2.37,4.86-4.74,7.26-7.11l.66-.65,8.35,7.61,4.62-5.14-8.07-7.35,0,0,.2-.2c1.66-1.67,3.32-3.33,5-5l7.45,8.52,5.17-4.57-7.66-8.77-1.62,1.43c.8-.81,1.58-1.62,2.37-2.43l2.73-2.81.71-.73,8.47,7.72,4.63-5.14-8.31-7.56.81-.85,4.56-4.79,9.38,6.62,3.95-5.67-8.55-6,.74-.8,4.18-4.49c.51-.56,1.05-1.12,1.56-1.68l7.79,7.84,4.87-4.9-8-8c.24-.25.46-.5.69-.75,2.28-2.5,4.53-5,6.72-7.41l.06-.07,7.22,7.93,5.08-4.68-7.67-8.42.14-.15q2.77-3.12,5.45-6.15l.08-.09,9.21,6.76,4.06-5.6-8.7-6.38c2-2.33,4-4.59,5.9-6.81l.54-.62,7.7,5.65c-.09.15-.18.29-.27.45l-3.92,6.46-.74,1.21-3.4,5.53-1.31,2.11c-1.06,1.71-2.14,3.45-3.24,5.2-.4.65-.81,1.29-1.22,1.95-1.5,2.38-3,4.79-4.58,7.23l-.15.24q-2.22,3.48-4.52,7c-.48.75-1,1.5-1.46,2.24-1.17,1.81-2.36,3.62-3.56,5.45-.5.77-1,1.54-1.51,2.31q-2.25,3.41-4.56,6.85l-.51.77q-2.58,3.84-5.23,7.72l-1.09,1.6q-3.79,5.55-7.72,11.13c-.21.31-.43.61-.64.91q-4.11,5.83-8.35,11.69c-30,41.35-58.68,74.29-85.3,97.91-2.86,2.53-5.68,4.92-8.49,7.24l-1.89,1.55c-2.8,2.27-5.58,4.46-8.33,6.51l-.48.35c-2.66,2-5.29,3.84-7.9,5.61l-1.46,1c-2.74,1.83-5.45,3.56-8.13,5.16l-.32.18-3.86,1.82.15.32-.26.15q-6.28,3.51-12.37,6.18l-1,.42c-1.63.7-3.25,1.36-4.85,2l-1.79.64c-1.34.48-2.68.93-4,1.34-.68.22-1.36.41-2,.61-1.24.35-2.46.68-3.68,1-.7.17-1.4.34-2.1.49-1.2.27-2.38.49-3.57.7-.67.12-1.35.25-2,.35-1.26.18-2.5.32-3.74.44-.57.06-1.14.14-1.71.18-1.79.14-3.56.22-5.32.22v1.2c1.78,0,3.57-.08,5.38-.22.57,0,1.16-.12,1.73-.18,1.26-.12,2.51-.26,3.78-.45.68-.1,1.36-.23,2-.35,1.2-.21,2.41-.44,3.63-.7l2.1-.49c1.24-.31,2.48-.64,3.74-1l2-.6c1.34-.42,2.7-.89,4.07-1.37l1.78-.63q2.46-.93,5-2l1-.4q6.15-2.68,12.5-6.23l.27-.14,4.26,9.16,6.23-2.94-4.52-9.72.87-.57q2.88-1.78,5.79-3.73c.35-.24.7-.44,1.06-.69l6.05,8.61,5.62-4-6-8.57c.32-.23.65-.51,1-.75,2.72-2,5.45-4,8.22-6.25l0,0,5,9.22,6-3.34-5.59-10.23-.45.25.42-.37c.88-.73,1.76-1.49,2.64-2.24l2-1.74,8.34,8.06,4.77-5L-286,606c1.72-1.56,3.46-3.23,5.19-4.86.85-.8,1.68-1.55,2.53-2.36l.42-.4,6.44,8.38,5.45-4.23-6.92-9c1.05-1,2.1-2.13,3.15-3.2.68-.68,1.35-1.36,2-2.06l1.2-1.21,8.24,7.49,4.62-5.14-8.09-7.35c.72-.77,1.45-1.59,2.17-2.37,1.08-1.15,2.15-2.33,3.23-3.51.82-.89,1.63-1.75,2.45-2.66l6.88,7.86,2.87-2.54a3.44,3.44,0,0,0,0,.46h-.33V583h.51v2.75h-.52l-2.92,2.94,2.9,2.88h-2.17l-2.93,3,2.91,2.88h-2.91l-2.92,2.94,2.92,2.9v2.91h.85v21.32l-.35.37q-2.17,2.24-4.3,4.26l-.58.55h0l0,0-.93.88q-1.75,1.62-3.49,3.1c-.37.32-.75.66-1.13,1-1.5,1.25-3,2.43-4.47,3.52-.28.21-.56.38-.84.59-1.2.86-2.4,1.67-3.58,2.43l-1.35.84c-1.07.65-2.14,1.25-3.19,1.81-.4.21-.8.44-1.19.63-1.41.71-2.81,1.36-4.2,1.9l-.5.18c-1.22.46-2.42.86-3.61,1.2l-1.25.32c-1,.24-2,.44-2.93.59-.4.07-.79.14-1.19.19a32.39,32.39,0,0,1-3.91.27v1.2a35.07,35.07,0,0,0,3.67-.22c.38,0,.78-.13,1.17-.19.85-.12,1.71-.27,2.58-.46.46-.1.92-.23,1.38-.35.82-.21,1.65-.45,2.48-.73.47-.15.94-.31,1.41-.49.87-.31,1.73-.66,2.6-1,.44-.19.88-.37,1.32-.58,1-.46,2-1,3-1.5.33-.18.67-.34,1-.53a76.64,76.64,0,0,0,8.34-5.47c.22-.16.44-.34.65-.51,1.18-.9,2.37-1.84,3.57-2.84.12-.1.24-.18.36-.29l8.27,7.53,1.25-1.39v9.39H22.67v-.05h7.91V630c.24.23.46.42.69.65,1.54,1.53,3.06,3,4.57,4.37l.53.5c1.67,1.5,3.32,2.88,5,4.19.42.34.84.66,1.26,1q2,1.56,4,2.94c.33.22.66.47,1,.68q2.38,1.59,4.72,2.9l1.05.55c1.27.68,2.54,1.3,3.79,1.85l1.15.51a46.81,46.81,0,0,0,4.5,1.61c.24.07.48.11.71.18a38.52,38.52,0,0,0,3.79.83c.39.07.79.13,1.18.18a31.78,31.78,0,0,0,4.32.33v-1.2a32.56,32.56,0,0,1-4.47-.36l-1.08-.17a36.19,36.19,0,0,1-4.59-1.08l-.17-.05a47.21,47.21,0,0,1-4.62-1.76l-1-.45c-1.61-.75-3.24-1.57-4.89-2.53l-.06,0,3.71-.57-.74-6.89-11.69,1.48L42,638.75c-.54-.44-1.08-.87-1.62-1.33s-1.25-1.06-1.88-1.61-1.15-1-1.74-1.53l-.2-.19,4.53-.25L41,626.91l-10.44.3V606.06h.86v-2.91h0l2.92-2.9-2.92-2.94H28.53l2.91-2.88h0l-2.93-2.95H26.34l2.9-2.88-2.92-2.94H25.8v-2.75h.51v-3.7H26a4.46,4.46,0,0,0-.86-2.46c-.16-.23-.32-.45-.49-.65a9.18,9.18,0,0,0-.94-.94c-.25-.22-.42-.34-.42-.34s-.17.12-.42.34a9.18,9.18,0,0,0-.94.94c-.16.2-.33.42-.49.65a4.46,4.46,0,0,0-.86,2.46h-.33v3.7h.51v2.75h-.52L17.3,588.6l2.9,2.88H18l-2.93,2.95,1.5,1.48,1.41,1.4H15.1l-2.92,2.94.56.56-3.37-.57-1.93-.32c-.21-.3-.42-.56-.63-.86-.44-.62-.88-1.27-1.32-1.9-.8-1.15-1.6-2.37-2.4-3.54l3.42,1.31,2.74-6.35L-2.23,583.8c-.48-1.26-1-2.5-1.51-3.72l1.06.41,2.74-6.36-8.59-3.58c-.47-.81-1-1.62-1.45-2.42l.15.06,2.74-6.35h0l-6.47-2.7-4.14-1.73c-.43-.52-.91-1-1.35-1.51-.65-.74-1.29-1.47-2-2.19-.3-.31-.57-.66-.87-1l-.1-.18,3.81,1.47,2.75-6.35-11.9-4.95c-.51-1-1-1.88-1.54-2.85l-.62-1.17c-.19-.37-.39-.76-.59-1.13l3.43,1.32h0l2.74-6.35-11.19-4.67c-.39-.75-.77-1.46-1.15-2.21L-37,524.2c-.34-.67-.68-1.39-1-2.07l5.64,2.34,2.74-6.36L-42.56,513c-.52-1.06-1-2.07-1.56-3.14q-1.11-2.28-2.2-4.56l8.54,3h0l1.92-7.08-14.78-4.95c-.15-.34-.31-.67-.47-1q-1.41-3-2.79-6l-.27-.58,8.72,3,1.92-7.08-14.76-4.95-.5-1.1-1.85-4.13c-.27-.6-.54-1.19-.8-1.79l8.32,2.9,1.92-7.08-14.2-4.76-2-4.53,8,2.8,1.93-7.08-13.79-4.62-1.09-2.56c-.36-.85-.73-1.71-1.08-2.56l-.21-.49,7,1.43,1.92-7.08-12.69-3.24c-.13-.33-.27-.66-.41-1-.26-.65-.53-1.28-.79-1.92l-.63-1.54,7.28,1.48,1.41-5.19.23.37q2.46,4,5,8.23l1,1.65q2.67,4.31,5.47,8.75l.34.54q2.71,4.31,5.56,8.73l1,1.51q2.88,4.49,5.89,9.06l1.19,1.81c2.07,3.16,4.18,6.33,6.33,9.54l.21.32c2.1,3.12,4.24,6.27,6.41,9.42l1.21,1.77q3.24,4.71,6.58,9.46c.44.61.87,1.22,1.3,1.84,2.33,3.28,4.67,6.57,7.06,9.86,3.35,4.62,6.69,9.11,10,13.52l2.05,2.73Q1.24,533,6,539.06c.63.8,1.26,1.58,1.89,2.37q4.38,5.54,8.73,10.81l1.32,1.61c3.11,3.75,6.2,7.37,9.27,10.91.76.89,1.53,1.76,2.29,2.64,2.86,3.26,5.71,6.47,8.54,9.55h0l.34.33.31.33c.67.73,1.33,1.42,2,2.14q3.78,4.07,7.5,7.91c1,1.08,2.1,2.14,3.15,3.2q3.32,3.35,6.59,6.52c.95.92,1.91,1.86,2.86,2.76,3.06,2.91,6.11,5.74,9.12,8.41,2.74,2.44,5.46,4.73,8.16,7,.31.26.62.55.93.8l-.15,0,.8.5c.42.35.85.67,1.28,1l2.82,2.25c1,.78,2,1.56,3,2.32s1.85,1.41,2.77,2.09,2,1.46,3,2.18,1.81,1.3,2.71,1.93l3,2.06c.87.57,1.73,1.17,2.59,1.72,1.09.71,2.17,1.37,3.25,2,.77.48,1.54,1,2.31,1.43C108.17,637,110,638,111.73,639c.54.3,1.06.56,1.6.84,1.28.69,2.56,1.37,3.83,2,.73.36,1.45.69,2.18,1,1,.51,2.11,1,3.16,1.49.77.34,1.53.66,2.3,1,1,.43,2,.85,3,1.24.77.3,1.54.58,2.3.86,1,.36,1.95.71,2.91,1,.76.26,1.52.5,2.27.74,1,.3,1.92.58,2.88.85.74.2,1.48.41,2.21.59,1,.25,1.93.47,2.88.68l2.12.45c1,.19,2,.35,3,.5.64.11,1.3.22,1.94.3,1.09.15,2.16.25,3.24.34.53.05,1.06.12,1.58.15,1.6.11,3.18.17,4.75.17v-1.2c-1.51,0-3-.06-4.58-.16l-1.59-.15c-1-.09-2-.18-3.08-.32-.64-.08-1.29-.18-1.93-.28-.93-.15-1.87-.3-2.81-.48l-2.1-.43c-.9-.2-1.81-.41-2.72-.64-.74-.18-1.47-.37-2.21-.57-.9-.25-1.81-.53-2.73-.81-.74-.23-1.48-.44-2.23-.69-1.07-.36-2.15-.76-3.23-1.16s-2.43-.91-3.65-1.41c-.86-.35-1.72-.7-2.6-1.08l7.88-2.32-1.59-7-15.35,5-1.3-.69q-1.83-1-3.69-2l-2.23-1.28c-1.36-.81-2.74-1.65-4.12-2.52l-1.24-.78,8.28-1.45-.79-7.14-15.61,3.16c-.16-.11-.32-.24-.49-.35-2-1.44-4.08-2.95-6.14-4.51l-.38-.3,9-2.1.23-7L80.48,616l-1.09-.88q-3.11-2.58-6.27-5.32l-.87-.76,5.28.28L78,602.4l-13.61-.5c-.94-.88-1.87-1.71-2.82-2.61l-1.69-1.6-1.06-1.05,9,0-.53-7.32-15.6.27c-.28-.28-.54-.52-.81-.8-.49-.49-1-1-1.46-1.5-1-1-2-2.14-3-3.2l8.32,0-.52-7.32-14.54.26c-1.93-2.11-3.89-4.35-5.85-6.54l8.93,0L42.18,563l-14.68.26c-1.61-1.87-3.23-3.79-4.84-5.71l8.65.59v-7.34l-15-.85q-2.91-3.56-5.84-7.23l9.21.38.55-7-15.53-.7C2.47,532.57.23,529.7-2,526.74L3.74,528l1.54-6.75h0L-8.1,518.6c-1.69-2.28-3.38-4.53-5.08-6.86l8.69,1.3.6-7.31L-19,503.63l-.13-.18c-1.23-1.72-2.45-3.45-3.67-5.17l-1-1.49,9,1.35.6-7.32-15.18-2.1-1.69-2.46-2.38-3.48-.38-.56,9,1.34.59-7.31-14.95-2.07-2-3.08-.52-.79-.11-.16,9,1.35.59-7.32-14.88-2.05-1.87-2.88-1.13-1.75-.24-.38,7.54.11.6-7.32-13.29-.85c-.28-.44-.56-.89-.85-1.33l-3-4.76c-.29-.46-.58-.92-.86-1.38l.38.52,7.79.11.59-7.32L-65.08,434l0-.07c-1.52-2.47-3-4.88-4.44-7.26L-70,426l.08-.3-.31-.08-.44-.73c-1.87-3.08-3.68-6.09-5.41-9-.11-.17-.21-.34-.31-.51l.66-2.9-2.91-.9c-.19-.31-.36-.61-.55-.93L-81.95,406l-.48-.82,1.38-6L-87,397.32l-.69-1.2-1.8-3.14-.37-.66,1.83.55.73-3.2.82,1h-.23l1.26,1.24.6.73,3.1,3.75,1.14,1.38,3.69,4.41.74.88q2.27,2.7,4.7,5.57l1.09,1.28c1.29,1.51,2.6,3.05,4,4.63l1.53,1.78c1.33,1.55,2.7,3.12,4.08,4.72l1.4,1.61c1.86,2.13,3.75,4.3,5.7,6.51l.57.64,5.35,6,1.82,2,4.52,5,2,2.17c1.86,2.06,3.76,4.13,5.69,6.23l.83.91q3.32,3.6,6.74,7.27c.62.66,1.26,1.33,1.88,2l5.18,5.49,2.29,2.41,5.51,5.74L-9.5,477q3.68,3.78,7.43,7.61l1.58,1.59q3,3.06,6.11,6.14l2.49,2.47q2.81,2.79,5.66,5.58l2.42,2.36q4,3.89,8.06,7.77c.53.51,1.05,1,1.58,1.48h0ZM-89.1,396l.46.82-4.82-1.5c-.06-.14-.11-.29-.17-.43-.48-1.26-1-2.49-1.41-3.68l-.18-.49,3.74,1.13.57,1C-90.33,393.84-89.73,394.9-89.1,396Zm7.95,13.7.81,1.37-2.39-.74-5.56-1.72c-.06-.17-.13-.35-.2-.52-.33-.84-.65-1.66-1-2.48-.19-.5-.39-1-.59-1.51l6.82,2c.16.27.33.55.48.82C-82.23,407.84-81.69,408.75-81.15,409.68Zm8.87,14.86.4.66-9.51-2.43-1.37-.35-1.18-2.92-.82-2,0-.07,7.42,2.23.59-2.56a2.75,2.75,0,0,0,.17.29C-75.21,419.69-73.76,422.09-72.28,424.54Zm-7,9.58c.34.82.68,1.65,1,2.48s.81,1.95,1.22,2.94l1.22,2.91c.37.87.73,1.74,1.1,2.62s.85,2,1.29,3l.68,1.63h0l.2.4c0,.13.11.26.17.39q3,6.93,6.1,14.11h0c2.08,4.75,4.23,9.58,6.44,14.45l.54,1.21q3.12,6.88,6.38,13.86c.2.43.41.87.61,1.31,2.33,5,4.7,9.93,7.12,14.9,2.23,4.59,4.46,9,6.67,13.43.59,1.17,1.18,2.32,1.76,3.48q3,5.82,5.92,11.41l.75,1.43q2.6,4.9,5.17,9.6l-.06-.06c-.42-.4-.87-.76-1.3-1.15-1.12-1-2.24-2.07-3.42-3l.06-.15a92.17,92.17,0,0,0-8.2-6s0,.08-.07.13c-1-.67-2.08-1.3-3.14-1.93-.39-.24-.77-.49-1.17-.72-1.8-1-3.64-2-5.52-2.94-.57-.29-1.16-.54-1.74-.81-1.39-.65-2.81-1.27-4.24-1.85-.67-.27-1.33-.54-2-.8-.41-.15-.81-.33-1.22-.48,0-.06,0-.11-.07-.17a91.18,91.18,0,0,0-9.78-2.92v.15c-.64-.16-1.29-.31-1.94-.45l-1.52-.31-.92-.2-1-.19-1.65-.32-.61-.11-2.08-.37-.36-.06-1.24-.2-.53-.09c-.19,0-.37-.06-.55-.09h-.12v-5.37H-85v-26h4.18V478.56h-1.26v-2.24h-.66v-4.43h-1.41v-1.21s0,0,0-.06a8.71,8.71,0,0,0,.62-1.51c.06-.2.11-.43.16-.64h0c0-.11,0-.26.08-.37.12-.46.22-.93.32-1.43,0-.11,0-.18.07-.29v0c0-.15,0-.32.07-.47l.09-.54c0-.31.08-.64.12-1,0-.16,0-.3.07-.47h0c0-.31.06-.67.08-1s.05-.49.07-.76c0,0,0,0,0-.07h0v0c0-.85.09-1.74.09-2.7V459a1.55,1.55,0,0,1,0-.22c0-.15,0-.31,0-.47v-.12a.86.86,0,0,1,0-.16c0-.23,0-.48,0-.72h0a.66.66,0,0,0,0-.14c0-.12,0-.25,0-.37v0c0-.18,0-.36,0-.55,0-.46-.08-.95-.13-1.44,0-.15,0-.28,0-.44h0v0a1.1,1.1,0,0,1,0-.18c0-.14,0-.28-.05-.43a1,1,0,0,0,0-.17v-.05c0-.13,0-.28,0-.42q-.12-.92-.24-1.89l0-.23v0a2,2,0,0,0,0-.24c-.19-1.41-.42-2.89-.68-4.44l0-.15h0a2.56,2.56,0,0,0,0-.27c-.27-1.6-.58-3.26-.91-5,0-.13-.06-.27-.08-.4s-.07-.32-.1-.47,0-.17,0-.26h0c-.3-1.51-.63-3.06-1-4.64l0-.15h0c-.06-.25-.11-.5-.17-.74-.15-.71-.31-1.42-.48-2.14l-.06-.28v0c-.06-.27-.13-.54-.19-.81-.16-.66-.31-1.32-.47-2l-.09-.41h0c0-.15-.07-.31-.11-.46-.32-1.33-.65-2.67-1-4,0-.1-.05-.21-.08-.32v-.11l-.62-2.36c-.06-.24-.12-.48-.19-.71v0l0-.09q-.33-1.27-.69-2.55c0-.17-.09-.34-.14-.51v0h0l0,0c-.4-1.44-.8-2.87-1.22-4.29l-.13-.46h0l0-.06c-.14-.47-.27-.94-.41-1.4l0-.1,0-.06,0-.11c-.15-.5-.31-1-.46-1.5v0c0-.18-.11-.35-.17-.53-.19-.63-.38-1.24-.58-1.86-.07-.24-.15-.49-.23-.73h0a2.41,2.41,0,0,1-.08-.25c-.48-1.46-1-2.89-1.43-4.28l-.09-.27c-.06-.18-.13-.35-.19-.52q-.41-1.16-.81-2.25l-.31-.87c-.14-.36-.27-.71-.4-1.06a.78.78,0,0,1,0-.14l0-.07c-.19-.48-.37-1-.55-1.42l0-.06h0l0-.09c-.39-1-.78-1.91-1.17-2.81l-.23-.51c-.21-.47-.41-.94-.62-1.38h0l-.29-.62c-.06-.11-.12-.25-.17-.37l0,0c-.13-.27-.27-.54-.4-.8l0-.07,0,0,0,0c-.14-.29-.28-.56-.43-.83l0-.05c-.13-.23-.25-.46-.38-.68,0,0,0-.05,0-.08v0l0,0c-.14-.26-.29-.51-.44-.75h0c-.06-.11-.12-.2-.18-.29l-.13-.21-.06-.09a.41.41,0,0,0-.07-.11.35.35,0,0,0-.05-.08l0-.07-.14-.2c-.12-.18-.24-.36-.37-.53l-.06-.09,0-.05,0,0-.08-.09a.44.44,0,0,0-.08-.11v0h0l0-.06a.39.39,0,0,0-.08-.1,5.06,5.06,0,0,0-.41-.49l-.11-.14a1.14,1.14,0,0,1-.11-.11l-.08-.08,0,0h2.82v-3.27h.56c0,.1.08.21.11.31.14.38.29.76.43,1.15.08.2.15.39.22.6h0v0c.08.19.16.4.23.6l.75,2c.15.41.32.85.48,1.27l.69,1.84c.22.6.46,1.23.7,1.85l1.24,3.25.76,2c.24.64.5,1.31.76,2l.76,2c.26.66.52,1.34.79,2l.85,2.19q.42,1.1.87,2.22l.82,2.1c.32.8.64,1.62,1,2.44s.56,1.42.85,2.14l1,2.53c.29.73.59,1.47.88,2.21.36.89.72,1.78,1.08,2.69l.92,2.27c.36.89.71,1.78,1.08,2.69s.76,1.85,1.14,2.78c.48,1.19,1,2.37,1.46,3.58Zm78.69,154,.16.33-.08-.11-.07-.12-.2-.31c-.07-.23-.15-.46-.23-.69Zm6.43,11.65c2.13,3,4.23,5.93,6.32,8.68l.59.78H3.67l-.41-3.33c-.29-2.41-.68-4.8-1.15-7.15-.21-1-.49-2-.73-3-.3-1.27-.56-2.55-.91-3.79,1.06,1.59,2.11,3.07,3.17,4.61C4.38,597.63,5.13,598.74,5.86,599.78Zm-259,33.64c.18-.16.36-.36.54-.53,1-.93,2-1.91,2.95-2.9.29-.29.57-.55.85-.84v8.23l-.8-.73ZM-167.43,497l0-.06,10.27,4,2.49-6.46-9.83-3.84q2-4.21,3.86-8.4l.39-.86,10.07,3.94,2.49-6.46-9.71-3.79.52-1.17q1.56-3.49,3.08-6.94c.15-.34.31-.69.45-1l10.29,4,2.47-6.46-10-3.87c.07-.18.15-.35.23-.53q1.26-2.91,2.48-5.78c.11-.24.22-.5.32-.74l10.75,3.46.53-1.66c0,.09,0,.15,0,.23-.09.87-.15,1.68-.2,2.43a2.29,2.29,0,0,0,0,.25h0v.11c0,.7-.07,1.35-.07,2,0,1,0,1.85.09,2.71v0h0v.07c0,.26,0,.5.07.75s0,.69.08,1h0c0,.16.05.3.07.46,0,.33.08.65.13,1l.09.55c0,.15,0,.32.07.46v0c0,.1.05.18.07.29.1.5.21,1,.32,1.43,0,.11.05.26.08.37h0c.06.21.1.44.16.64a9.47,9.47,0,0,0,.66,1.57s0,.07,0,.1v1.11h-1.47v4.43h-.65v2.24H-138v14.59h4.18v26h-5.67v5.37l-.28.05c-3.41.53-6.76,1.15-10,1.85-.64.13-1.28.28-1.91.43l0-.1a90.23,90.23,0,0,0-9.61,2.85l0,.09c-.46.17-.91.37-1.38.54l-2.19.86q-2.1.85-4.14,1.8c-.62.29-1.24.56-1.85.86q-2.87,1.39-5.6,3c-.35.2-.68.43-1,.63-1.17.7-2.33,1.4-3.47,2.15a.05.05,0,0,0,0,0c-.6.4-1.19.81-1.78,1.22l-5.18-2.42q3.06-5.81,6.15-11.88L-171,530.6l2.5-6.46-10.11-4q1.8-3.61,3.62-7.32l9.83,4.59,2.9-6.28-9.7-4.53c.15-.33.3-.65.46-1Q-169.46,501.33-167.43,497Zm21.61-74,.41-.67.25.18,2.74-3.77,6.46,2.91-.12.32c-1.12,2.77-2.29,5.63-3.49,8.54-.12.31-.25.63-.38.94l-3.63-2.66-4-2.92,1.17-1.93Zm-3.75-12.3.72-.84c1.88-2.21,3.73-4.39,5.48-6.47l0,0,5.44,4v0c-1.41,2.39-2.89,4.89-4.41,7.44l-.49.84-4.62-3.39Zm14.76-17.6.56-.68,3.37,2.82c-.16.29-.34.59-.51.89l-2.42,4.19c-.2.35-.39.69-.6,1l-4.5-3.31.66-.8C-137.06,395.87-135.92,394.48-134.81,393.14Zm7.45-9.13,1-1.25L-125,381l.91-1.13,1.21-1.52.87-1.1.33-.41v2c-.08.13-.15.26-.22.39l-2.31,4.16-.42.74c-.76,1.36-1.57,2.8-2.42,4.3l-.39.7-2.48-2.07c.27-.32.51-.62.77-.95ZM-110,326.39h1l-.38,1h0v0l-.1.25-.43-1.1ZM12.9,609.4c1,1.34,2,2.66,3.06,3.94v.16H12.9Zm-239.77-6.79,2.84,2.58,1.88,1.71-.23,1.86-.06.48h-8.49v0l-.59-.39.33-.44Q-229,605.63-226.87,602.61Zm7.82-11.16c-.6,2.09-1.11,4.21-1.57,6.36-.07.32-.17.62-.24.94l-2-1.83c1.28-1.85,2.57-3.76,3.87-5.7Zm24.58-41.06c1.09-2,2.18-4,3.27-6l2.23,1-.17.14v0c-.65.54-1.25,1.14-1.88,1.7-1,.91-2.08,1.81-3.07,2.76C-194.2,550.16-194.34,550.27-194.47,550.39Zm70.82-165.45.51-.9c.85-1.52,1.63-2.93,2.36-4.25l.19-.34h1l-.09.24c-.15.4-.31.84-.47,1.25s-.41,1.12-.63,1.7-.35.92-.52,1.39-.44,1.18-.68,1.79l-.62,1.65-.65,1.72c-.24.62-.48,1.25-.72,1.9-.09.24-.19.49-.29.74l-1.91-1.6-.34-.28.45-.78Zm-10.62,25.13,4.06-5.59-3.23-2.37,1.44-2.49,2.11,1.23,1.79,1-.11.3q-1.09,2.82-2.28,5.8l-.53,1.35-2,5.05c-.12.29-.24.58-.35.87l-6.15-2.77c.88-1.48,1.74-2.95,2.58-4.38Zm5.22-2.48c.35-.88.68-1.72,1-2.58l.81-2.06.18-.46,2.56,1.49c0,.09-.05.18-.08.26-.2.62-.41,1.24-.61,1.88h0l-.09.27q-.41,1.28-.81,2.58l-.09.3h0l-.48,1.57v.05l0,0c-.06.23-.13.46-.2.68l-.18.61-.09.3h0l-.27.92-3.42-1.33L-130,410Zm14.38-24.87h0a13.24,13.24,0,0,0-.86,1h0v0c-.17.22-.35.48-.52.74l-.19.27-.17.24c-.23.37-.48.78-.72,1.2l-.18.3c-.11.19-.22.41-.33.62l-.11.18v0c-.15.27-.29.56-.44.85v0h0s0,.08,0,.11l-.39.77v0c-.16.32-.31.64-.46,1v0h0c-.4.85-.8,1.77-1.2,2.72-.09.22-.18.45-.28.67-.19.46-.38.92-.57,1.4h0c0,.11-.09.24-.14.35-.1.28-.21.55-.32.83l-.12.31,0,.05-.12.32-.15.39-.06.16-.86-.5-.31-.18,2-2.43-1.92-1.59c.19-.5.37-1,.55-1.45s.27-.71.41-1.06l1-2.63c.14-.35.27-.7.4-1.05.28-.74.55-1.46.82-2.16l.48-1.3c.23-.6.45-1.18.66-1.76s.33-.87.48-1.29c.06-.16.13-.33.18-.49h.79v3.27Zm-20.39,39.93c.07-.16.13-.32.19-.47l2.22,1,1.66-3.72,1.71.67c-.31,1.17-.62,2.35-.92,3.52v0h0c-.41,1.61-.8,3.21-1.19,4.8h0l0,.2c-.27,1.14-.53,2.27-.79,3.39v.06l-5.64-2.54.16-.39Q-136.35,425.87-135.06,422.65Zm38.34-40.13-1.8-.56-.44-1.15c-.13-.37-.27-.75-.41-1.11l-.09-.25h1l.18.33c.33.58.66,1.19,1,1.8Zm-15.44-28v0h1.51v0Zm5.87,0h-1.5v0h1.52Zm3.92,0h-1.06a.79.79,0,0,0-.06-.22,0,0,0,0,0,0,0v0l0-.08a.2.2,0,0,1,0-.08.21.21,0,0,0,0-.06l-.1-.15-.06-.07s0,0,0,0l-.06-.05,0,0,0,0v0l0,0-.12-.09-.12-.06-.05,0,0,0h0l-.16,0a.29.29,0,0,0-.1,0,1.15,1.15,0,0,0-.26,0h0l-.23,0-.09,0h0v-2.2h-.88v-.29h0V350h0v-.29h0v-1.27h0v-.16h0v-.43h.43v-.5h-.67v-1h.19V346h.06V346h-.24v-.21h-.18a3.18,3.18,0,0,0-2.14-2v-.14h-.11v-.42h.23v-.42h-.11l-.32-1.12H-109a.37.37,0,0,0-.38-.37h0a.36.36,0,0,0-.24.11.35.35,0,0,0-.11.26h-.09l-.32,1.12h-.12v.42h.24v.42h-.11v.14a3.23,3.23,0,0,0-2.14,2h-.17V346h-.24V346h.06v.34h.17v1h-.67v.5h.44v3.34h-.88v2.16a1.43,1.43,0,0,0-.87.32.47.47,0,0,0-.09.06,1.45,1.45,0,0,0-.43.75s0,0,0,.07h-1.51a.74.74,0,0,0,0-.14l7.07-17.95.11.26h0Zm-38.47,82.2c.1-.25.21-.51.32-.76l6.77,3.05a1.55,1.55,0,0,1,0,.21c0,.14-.05.27-.08.41h0c0,.09,0,.17,0,.26-.3,1.49-.58,3-.83,4.37v0c-.09.52-.17,1-.26,1.54,0,.06,0,.14,0,.2h0c-.17,1-.34,2-.48,3,0,0,0,.06,0,.09l-9.22-3s0-.08.05-.13Q-142.74,441.31-140.84,436.76ZM-95.06,383c-.7-1.24-1.34-2.4-2-3.51a1.43,1.43,0,0,0-.12-.21v-1.87l.09.1,2.36,3,0,0q1.28,1.6,2.72,3.38l.08.11ZM-234.14,606.11h.85V603.2l2.93-2.9-2.93-2.94h-2.9l2.9-2.88-2.92-3h-2.17l2.9-2.88-2.92-2.94h-.52V583h.51v-3.7h-.33a4,4,0,0,0-.42-1.71,8.27,8.27,0,0,0-2.29-2.68h0a3.62,3.62,0,0,0-.3.24l-.05,0a8.43,8.43,0,0,0-.7.68l-.08.08-.08-.1-6.6-7.52c.37-.42.74-.86,1.1-1.28.71-.8,1.41-1.63,2.12-2.44,1.15-1.34,2.3-2.64,3.46-4l7.05,8,5.15-4.59-7.7-8.74c.3-.35.59-.72.89-1.07l1.6-1.95c1.08-1.31,2.16-2.61,3.25-4l9.11,7.22L-219,550l-9-7.17,1.42-1.81,2.4-3c1.13-1.44,2.26-2.85,3.39-4.32l7.91,7.89,4.85-4.92-8.24-8.22-2.15,2.18c.83-1.08,1.67-2.21,2.5-3.3l2.54-3.36c.7-.94,1.4-1.84,2.11-2.79l8.59,6.62,4.19-5.51-8.67-6.66c1.26-1.71,2.51-3.43,3.77-5.16l2.69-3.73,10.2,5.29,3.15-6.16-9.29-4.82.89-1.27q2.58-3.64,5.1-7.28c.23-.34.48-.69.72-1l8.75,5.88,3.83-5.76-8.66-5.82.45-.68q3-4.33,5.83-8.62l.41-.61,9.43,6,3.68-5.85-9.28-5.9.74-1.13c1.5-2.26,3-4.52,4.42-6.75l.76-1.16,4,2.53,5.13,3.23h0l1.83-2.93,1.83-2.93-9-5.71L-165,454l3-4.67,1-1.58,8.48,6.22,4.06-5.59-8.85-6.5.35-.57c1.86-3,3.65-5.88,5.41-8.74l.46-.75,8.49,6.24c-.09.21-.17.42-.27.64-1,2.44-2.05,4.92-3.12,7.44l-.51,1.2q-1.38,3.25-2.81,6.57l-.9,2.11c-1,2.4-2.08,4.81-3.15,7.25-.11.24-.21.47-.31.71q-1.74,4-3.53,8c-.32.72-.64,1.44-1,2.16-1,2.18-2,4.36-2.95,6.56-.29.62-.57,1.24-.85,1.87-1.24,2.72-2.5,5.46-3.77,8.2l-.78,1.66c-1.05,2.26-2.12,4.52-3.19,6.79l-1.08,2.28c-1.33,2.78-2.66,5.57-4,8.35-2.27,4.66-4.53,9.19-6.77,13.63-.7,1.39-1.4,2.74-2.09,4.1q-2.38,4.65-4.75,9.16c-.75,1.42-1.5,2.85-2.25,4.25q-2.62,4.93-5.23,9.65c-.47.85-.94,1.74-1.41,2.58l-.24.41-.52.59c-.38.41-.74.83-1.11,1.25-1.08,1.23-2.14,2.49-3.16,3.78-.33.42-.68.83-1,1.26q-1.87,2.43-3.57,5c-.27.41-.53.83-.79,1.24-.9,1.4-1.77,2.82-2.59,4.27-.3.51-.6,1-.88,1.55-1,1.81-1.93,3.64-2.8,5.51-.16.34-.29.69-.45,1-.72,1.61-1.39,3.25-2,4.9-.22.59-.44,1.17-.65,1.77-.15.4-.32.8-.46,1.21l-.51.81-.94,1.41c-2,3.11-4.1,6.14-6.12,9-.18.26-.36.5-.55.76-2.14,3-4.27,6-6.38,8.77-.67.89-1.33,1.72-2,2.57v-4.2ZM16,611.38c-.86-1.09-1.72-2.18-2.58-3.32l2.58.36v3Z" fill="#ff5554"/><path d="M1321.54,649.38v-3h-4.28v-3h-3.82v-3h-10.26v-7.59H1302v-1.64h-.47v-46h.47v-1.29h1v-7.59h2.36V571.9h-1.52v-3.45h4.49V565h2.51v-3.45h-2.66v-21h-12.33v2.41h-57.79V530.6h5v-4.05h-2.38v-4.87h-1.11v-.95h0v-3.11l-5.84-2.61a39.11,39.11,0,0,0-27.49-37.09V475h.52v-1.92h-1a.72.72,0,0,0-.59-.35.68.68,0,0,0-.36.15,12.81,12.81,0,0,0-19.52-.41.75.75,0,0,0-.56-.28.77.77,0,0,0-.76.77v.12h-.81V475h.51v2.83a38.41,38.41,0,0,0-24.54,22A39.13,39.13,0,0,0,1156,515l-5.84,2.61v4.07H1149v4.87h-2.34v4.05h5v12.33h-57.93v-2.41h-12.34v21h-2.66V565h2.51v3.45h4.5v3.45h-1.52v4.39h2.35v7.59h1v1.29h.47v46h-.47v1.64h-1.14v7.59h-10.26v3h-3.81v3h-4.29v3h-3.85v3H1325.4v-3Zm-42.62-69.29a1.89,1.89,0,0,0,1.66,1h.51v.26h-1v1h1v51.29h-1v1h1v.52h-.51a1.86,1.86,0,0,0-1.8,1.46h-.58v3.8h-4.43V632.1h.46v-2.16h-.46v-.8h-.29a1.39,1.39,0,0,0,.62-1.14,1.41,1.41,0,1,0-2.81,0,1.39,1.39,0,0,0,.62,1.14h-.29v.8h-11.73v-.8h-.28a1.4,1.4,0,1,0-2.2-1.14,1.39,1.39,0,0,0,.62,1.14h-.29v.8H1257v2.16h.79v8.25h-5.46v-3.8h-.58a1.86,1.86,0,0,0-1.8-1.46h-.81v-.52h1.05v-1h-1.05V582.33h1.05v-1h-1.05v-.26h.81a1.89,1.89,0,0,0,1.66-1h.57v-3.8h25.92v3.8Zm-38,0a1.86,1.86,0,0,0,1.65,1h.52v.26h-1v1h1v51.29h-1v1h1v.52h-.52a1.86,1.86,0,0,0-1.8,1.46h-.58v3.8h-2.56v-.11h.5v-7.42H1238V577.61h0v-1.32h2v3.8Zm49.45,60.26v-3.8h-.58a1.86,1.86,0,0,0-1.8-1.46h-.82v-.52h1v-1h-1V582.33h1v-1h-1v-.26h.82a1.87,1.87,0,0,0,1.65-1h.58v-3.8h.72v7.59h1v1.29h.47v46h-.47v1.64h-.84v7.59Z" fill="#cc4843"/><path d="M916.52,653.55h-.25c-3.36-.14-6.76-.37-10.18-.63-1.65-.14-3.31-.3-5-.46s-3.63-.35-5.47-.56c-2.21-.25-4.43-.53-6.67-.82l-2-.28,11-1.3v0h0l-2.51-9L868,647.65q-5.31-1-10.7-2.27l-3.5-.82c-.78-.18-1.57-.39-2.35-.58l7.32-2.17v0h0l-1.26-9.14-23.62,6.7-1.34-.37c-3.26-1-6.55-2-9.84-3-1.43-.45-2.85-.87-4.29-1.34L826,632.4v0h0l-3.4-9.14-19.61,6.1q-6.41-2.31-12.88-4.82l6.39-.59v0h0l-1-9.56-24,2.53c-3.26-1.4-6.52-2.8-9.81-4.27l6-.56v0h0l-1-9.56-21.87,2.3c-1.6-.77-3.2-1.56-4.81-2.35-2.54-1.25-5.09-2.49-7.65-3.79l-1.61-.83,7.49-.69v0h0l-1-9.56-21.83,2.29c-1.23-.65-2.45-1.31-3.68-2q-3.15-1.71-6.32-3.46c-1-.52-1.9-1.06-2.85-1.59l8.17-.75v0h0l-1-9.56-21.41,2.25-2.48-1.44c-1.42-.83-2.85-1.68-4.27-2.53q-2.56-1.51-5.15-3.08l6.07.15.53-9.59h0v0l-22.48-.27q-6.4-4-12.86-8.19l10.2-1.11v0h0L656.79,539l-21.33,2.6c-6.51-4.33-13.08-8.82-19.67-13.39l10.19,6,14.94-2.39v0h0l-2.9-9.86-25.17,4.28q-5.43-3.79-10.91-7.71l.89.51,14.93-2.38v0h0l-2.89-9.86-23.65,4L587.46,508l-3.38-2.49-3.86-2.87,15.11-2.42v0h0l-2.06-10-24.15,4.11q-5.31-4-10.63-8.13L573,484.76v0h0l-2-10-23.92,2.51q-5.71-4.5-11.47-9.12l14.27-1.7v0h0l-1.1-9.67-23.84,2.75c-1.22-1-2.43-2-3.64-3-2.62-2.15-5.2-4.29-7.78-6.44l10.67.27.53-9.59h0v0L502,440.41q-4.78-4-9.49-8.07L506.7,432v0h0l-1.11-10.13-24.26.86q-4.77-4.15-9.43-8.26L487,414v0h0l-1.12-10.13-24.83.87q-4.26-3.81-8.42-7.58l14.76-.37v0h0l-1.12-10.13-24.25.85q-4.29-3.93-8.47-7.82l1.44,1.15,15.18-.38v0h0L449,370.28l-24.62.87q-3.63-3.4-7.16-6.76l11.83-1.48v0h0l-.9-10.14-21.3,1.75L402,349.75l11.78-1.42v0h0l-.83-10.15-21.16,1.65-6.42-6.32,1.07.9,12.42-1.5v0h0L398,322.69l-21.78,1.69q-3.11-3.11-6.07-6.1l12.15-.51v0h0L381,307.66l-20.63.69q-3.48-3.57-6.72-6.92l11.87-.5v0h0l-1.31-10.08-20.12.67-3.19-3.35.91-3.39h0v0l-5.54-1.48c-5.36-5.69-9.85-10.54-13.34-14.34l.36-2.47h1.63V253h0v0h-1v-8h0v0h-1v-7.55h-1.81v-6.82h0v0h-1.38v-.86h.72v-2.15h0v0H316l-.08-.29-6.49-24.58h1.52v-2.11h0v0h0v0h-.75v-2.9h0v0h0v0h-1.3v0h0v1h-1l-.24-1.25h0l-.12-.68h.35v0h0v0h0l-.29-1.52h0l-.12-.68h.12v0h0v0h0l-.73-3.7h0a1.33,1.33,0,0,0-.22-.55,1.37,1.37,0,0,0-.23-.25.93.93,0,0,0-.13-.15h.38v0h0s0,0,0,0h0c0-.07-.05-.13-.07-.2l0-.08a1.15,1.15,0,0,0-.12-.25h0l0,0-.05-.06a1.81,1.81,0,0,0-.18-.23,2.73,2.73,0,0,0-.25-.23s0,0-.06-.06l-.06,0-.09-.06a1.17,1.17,0,0,0,.23-.67v0h0a0,0,0,0,0,0,0h0a1.13,1.13,0,0,0-.15-.55s-.06-.06-.09-.09a1.12,1.12,0,0,0-.27-.3v-.91h0v0h-.28v-2.44h0v0h-.24v0h-.23v2.47h-.28v0h0v.91a1.13,1.13,0,0,0-.51.95h0s0,0,0,0a1.08,1.08,0,0,0,.28.71s0,0,0,0a1.88,1.88,0,0,0-.87,1.22h0l0,0h.41a1.61,1.61,0,0,0-.61,1h0l-.73,3.71h0v0h.14l-.14.72h0l-.29,1.51h0v0h.22l-.13.63v.08h0l-.25,1.26H301v-.66h-1.29v2.57h-.76v2.11h0v0h1.38l-6.57,24.87H289v2.15h0v0h.84v.86h-1.5v6.85h-1.81v7.55h-1v8.05h-1v13.5h1.63l.25,1.69c-24.42,26.66-101,107.91-199,188.36-69.82,57.31-136.66,103-198.65,135.7q-29,15.33-56.63,26.88h0q-6.52,2.73-13,5.23l-1.33.52q-7.08,2.75-14.06,5.23l-.56.14v0h0v0c-1.48.53-3,1-4.44,1.52-3.16,1.09-6.31,2.17-9.44,3.18-2.15.69-4.28,1.34-6.41,2-2.82.86-5.62,1.7-8.41,2.49-2.18.63-4.36,1.25-6.53,1.83-2.76.75-5.51,1.44-8.24,2.12-2.09.51-4.19,1.06-6.26,1.54-3.73.86-7.42,1.64-11.1,2.38-2.81.56-5.59,1.06-8.37,1.55-2.45.43-4.9.88-7.33,1.25s-4.75.68-7.12,1c-2.1.28-4.21.55-6.3.78q-3.63.4-7.25.74c-2,.17-3.92.31-5.88.45-2.43.17-4.87.34-7.27.45-1.84.08-3.65.1-5.47.14-2.23.06-4.47.15-6.67.15v0h0v1.66c2.17,0,4.39-.12,6.59-.17,1.87-.05,3.74-.07,5.63-.15,2.4-.11,4.82-.28,7.25-.45,2-.14,4-.28,6-.46,2.4-.21,4.8-.46,7.22-.73,2.13-.24,4.28-.51,6.43-.8,2.35-.31,4.69-.62,7.06-1s5-.84,7.56-1.29,4.88-.85,7.35-1.34q6-1.18,12.09-2.59c2-.46,4.06-1,6.09-1.5,2.82-.7,5.64-1.41,8.49-2.17q3.19-.87,6.42-1.8c2.86-.81,5.73-1.67,8.61-2.55,2.09-.64,4.18-1.28,6.29-2,3.21-1,6.46-2.14,9.71-3.26,1.43-.49,2.83-.92,4.27-1.43l4.71,13.88,10.64-2.71v0h0l-5.07-14.93,1.58-.63q5.7-2.18,11.48-4.52c1.22-.5,2.41-.93,3.63-1.44l8,13.74,9.9-4.32v0h0l-7.94-13.62,3-1.35c1.67-.74,3.34-1.47,5-2.23,4.41-2,8.84-4,13.31-6.12l8,13.63,9.9-4.32,0,0h0l-8.17-14,1.53-.78c3.2-1.59,6.42-3.25,9.65-4.91,2-1,4-2,5.94-3l7.84,13.57,9.92-4.29,0,0h0L-101.58,589l1.51-.84Q-92,583.75-83.81,579c.6-.34,1.19-.65,1.79-1l10.67,12.29,8.87-5.77,0,0h0l-10.31-11.87c1.81-1.07,3.64-2.21,5.46-3.3q3.35-2,6.7-4.06l2.47-1.49,8,12.81,9.75-4.58,0,0h0l-8.68-13.85q5.85-3.67,11.73-7.48l11.24,12.16,8.65-6h0l0,0-11-11.95,2.15-1.44,1.81-1.21c3.57-2.38,7.14-4.75,10.74-7.21l9,12.34,9.38-5.1v0h0L-5,529l2.68-1.88,4.09-2.89c2-1.39,3.93-2.75,5.91-4.16l9.05,12.38,9.37-5.13v0h0l-9.8-13.42c2.22-1.61,4.45-3.26,6.68-4.89.58-.44,1.17-.86,1.75-1.29.89-.66,1.78-1.29,2.67-1.95l12.24,11.57,8.18-6.49,0,0h0l-12-11.33q7-5.24,14-10.62l9.88,11.77,9-5.64,0,0h0L58.05,482.33l3-2.4c1.62-1.27,3.24-2.56,4.86-3.84,1.9-1.5,3.79-3,5.7-4.5l10.58,12L91,477.7l0,0,0,0L79.81,465c3-2.42,6-4.84,9-7.31,1.85-1.51,3.66-3,5.5-4.55l10.9,12.24,8.77-5.87v0h0l-11.41-12.81-2.29,1.52q6.66-5.56,13.17-11.12l13.45,10.55,7.45-7.11,0,0,0,0-13-10.17c2.8-2.41,5.55-4.81,8.3-7.2l12,11.81,8.32-6.34v0h0L137.65,416.4l-2.44,1.86q4.64-4.08,9.19-8.13l13.65,10.7,7.45-7.11,0,0,0,0-13.36-10.47c2.91-2.61,5.77-5.21,8.62-7.79l15.11,9.18,6.36-7.86h0l0,0-13.76-8.35q5.28-4.86,10.41-9.63l12.55,10.87,7.84-6.79,0,0h0l-12.84-11.12c4.08-3.85,8.1-7.66,12-11.39l11.63,11,8.17-6.49,0,0h0l-12.33-11.65q4.65-4.49,9.11-8.84l14.83,9.36,6.53-7.75h0v0l-14-8.83c3.57-3.53,7-6.94,10.35-10.29l12.37,7.83C238,344.72,230.25,355.6,221.92,367l-2,2.75q-4.74,6.45-9.7,13.09c-.94,1.25-1.87,2.5-2.82,3.75-3.07,4.1-6.22,8.24-9.41,12.42l-3.42,4.45q-3.93,5.1-8,10.24c-1.79,2.29-3.58,4.57-5.4,6.87q-3,3.75-6,7.52l-5.41,6.71q-4.11,5.06-8.29,10.14l-5.35,6.44-4.36,5.22c-1.52,1.81-3,3.57-4.55,5.35-2.16,2.53-4.31,5.05-6.46,7.53s-4.11,4.76-6.16,7.1q-4.94,5.61-9.82,11.08c-1.94,2.16-3.87,4.26-5.8,6.38q-3.26,3.57-6.49,7.07c-2.12,2.29-4.25,4.58-6.36,6.82q-4.56,4.84-9.09,9.53c-1.81,1.88-3.61,3.72-5.41,5.56q-4.05,4.13-8.07,8.12c-2.12,2.12-4.24,4.19-6.35,6.25q-3.76,3.69-7.52,7.26c-1.61,1.53-3.21,3.06-4.8,4.56q-5.07,4.75-10.1,9.3c-1.5,1.35-3,2.67-4.48,4q-3.87,3.45-7.72,6.78c-1,.83-1.93,1.68-2.89,2.5V571H40v-.46h-1v-.93h-.79a14.24,14.24,0,0,0-9.48-8.88v-.61h-.5v-1.81h1v-1.92H28.7l-1.43-4.94h-.42a1.66,1.66,0,1,0-3.32,0h-.37l-1.43,4.94h-.52v1.92h1.05v1.81h-.51v.62a14.24,14.24,0,0,0-9.45,8.87h-.79v.93h-1V571h.24v1.45h0v0h.77v4.31h-3V579h2v6.13l-10.55.63H-3.3v3.5H.84v13L-.93,603.5q-4.24,3-8.45,5.81c-1.33.89-2.66,1.79-4,2.65-2.46,1.61-4.88,3.13-7.31,4.64-1.16.72-2.32,1.47-3.48,2.17v-.84h.84v-1H-24.6V615h.36v-.66h.11v-.23h-.46v-.41h-.34a6.33,6.33,0,0,0-4.15-4v-.27h-.22v-.79h.44v-.87h-.2l-.63-2.21h-.18a.74.74,0,0,0-.73-.74.73.73,0,0,0-.72.74h-.16l-.63,2.21h-.23v.84h0v0h.46v.79h-.22v.28a6.29,6.29,0,0,0-4.13,4h-.35v.41H-37v.23h.1V615h.34v1.9h-1.29v1h0v0H-37v2.65H-41.9l-6.67,11.32-2.8,1.13v0h0l.23.42-.8.4c-2.47,1.18-4.91,2.27-7.34,3.34-.83.37-1.68.78-2.51,1.14q-4.68,2-9.28,3.73c-1.37.52-2.72,1-4.08,1.46-1.77.63-3.53,1.26-5.28,1.83-1.56.51-3.1,1-4.64,1.43s-3,.9-4.51,1.31c-1.65.45-3.28.86-4.92,1.25-1.34.33-2.67.64-4,.93-1.72.37-3.43.72-5.13,1-1.18.22-2.36.41-3.53.6-1.8.29-3.59.57-5.37.79-1,.12-1.92.2-2.88.3-1.94.2-3.88.4-5.79.52l-.7,0c-2.44.14-4.87.23-7.27.23v1.66h0v0c2.37,0,4.78-.12,7.19-.25l.88,0c1.91-.12,3.85-.32,5.79-.52,1-.1,2-.19,3-.31,1.78-.22,3.58-.5,5.37-.79,1.2-.19,2.4-.38,3.61-.6q2.56-.48,5.16-1,2-.44,4-.93c1.65-.4,3.3-.81,5-1.27,1.5-.41,3-.85,4.53-1.31s3.12-.92,4.7-1.44c1.75-.57,3.52-1.2,5.28-1.83,1.39-.49,2.76-.95,4.16-1.48q4.29-1.62,8.65-3.47c1-.44,2.07-.91,3.11-1.36,2.5-1.1,5-2.22,7.52-3.42.26-.13.51-.23.77-.35l-1.1,1.86h0l0,0h2.3l5.8,10.74,1.87-.75v12.34H648.85V637h10v0h0L657,633.82c.36.18.72.32,1.08.5,2.78,1.36,5.54,2.64,8.28,3.87.69.3,1.38.63,2.06.92q4.85,2.11,9.62,4l.5.2q5.09,2,10.07,3.59c.72.24,1.43.43,2.15.66,2.43.76,4.85,1.5,7.25,2.15,1.32.37,2.62.68,3.93,1,1.76.44,3.51.87,5.26,1.25,1.52.33,3,.63,4.53.91s3,.53,4.43.77c1.64.26,3.27.51,4.88.71,1.27.16,2.52.28,3.78.4,1.74.18,3.49.36,5.21.47.85,0,1.68.06,2.52.09,1.92.09,3.84.21,5.73.21V653.8a135.53,135.53,0,0,1-15.68-.95l-.88-.11q-3.42-.42-6.89-1l-1.53-.27q-3.22-.59-6.48-1.31l-1.74-.39c-2.25-.52-4.51-1.11-6.79-1.74l-1.38-.36c-5.15-1.46-10.37-3.2-15.67-5.18l12.63-3.2v0h0l-2.55-9.71-24.73,6.89-1.27-.57q-4.09-1.87-8.25-3.94l-1.69-.84-3.3-5.6,7.59-1.15v0h0l-1.28-9.9-13.62,2.38V615h.37v-.66h.11v-.19h0v0h-.46v-.41h-.35a5.42,5.42,0,0,0-.77-1.49,6.3,6.3,0,0,0-3.37-2.48v-.27h-.22v-.79h.44v0h0v-.84h-.2l-.63-2.21h-.18a.72.72,0,0,0-.73-.74h0a.72.72,0,0,0-.51.21.77.77,0,0,0-.21.53h-.16l-.56,1.94-.07.27H637v.84h0v0h.46v.47h0v.32h-.22v0h0v.25a6.31,6.31,0,0,0-3.53,2.68,5.51,5.51,0,0,0-.6,1.28h-.35v.41h-.45v.23h.1V615h.34v1.9h-1.3v.77c-1.14-.7-2.29-1.43-3.44-2.15-1.67-1.06-3.34-2.1-5-3.19l-1-.68,14.48-2.91.37-9.74h0v0l-26.36,4.86-1.75-1.24V589.27h4.14V585.8h0v0h-3.22l-3.19-.19,0-.56h0v0l-7-.22v-3.86h0V579h1.91v-2.26h-3v-2.61h0v-1.7h.83V571h.25v-.43h0v0h-1v-.93h-.79a12.53,12.53,0,0,0-1.38-2.86,14.55,14.55,0,0,0-4.87-4.64,13.44,13.44,0,0,0-3.23-1.38v-.61h-.5v-.79h0v-1h1v-1.92h-.47l-1.43-4.94h-.42a1.66,1.66,0,1,0-3.32,0h-.37l-1.43,4.94h-.52v1.92h1.05v1.81h-.51v0h0v.59a14.41,14.41,0,0,0-8.25,6.33l-9,.13-1.57-1.36-2.22-2-4.77-4.26,13.47-.07v0h0l-.85-10.15-23.4.35c-3.15-2.94-6.31-6-9.48-9l14.44-.07v0h0l-.84-10.15-23.68.36c-1.62-1.62-3.24-3.23-4.87-4.88L519,524.67l-1.73-1.78,14,.82,0-10.17h0v0l-24.21-1.18-2.94-3.09c-1.36-1.44-2.72-2.88-4.08-4.34l-2.37-2.55,14.85.53.88-9.69h0v0l-25.06-1-2.19-2.42L481.08,484l-3.44-3.87,9.27,1.68,2.47-9.36h0v0l-21.64-3.61q-4-4.68-8.08-9.46l14,1.8,1-10.14h0v0l-24.42-2.9q-3.92-4.73-7.77-9.45l14.43,1.86,1-10.14h0v0l-24.44-2.9q-3.61-4.5-7.14-9l14.38,1.86,1-10.14h0v0l-24.07-2.85c-1.44-1.86-2.89-3.72-4.3-5.56l14.51,1.87,1-10.14h0v0l-24-2.85q-2.62-3.46-5.2-6.91l12.12.15,1-10.14h0v0l-21.39-1.18q-3.79-5.13-7.44-10.15l.48.54,12.53.16,1-10.14h0v0l-21.67-1.19c-2.72-3.8-5.35-7.5-7.92-11.15l.12-.38h0v0l-.49-.11q-5.16-7.33-9.91-14.2l1.06-4h0v0l-4.7-1.25c-2.1-3.07-4.12-6-6.08-8.92l2.2-8.27h0v0l-9.51-2.54c-1.6-2.38-3.12-4.67-4.58-6.88l2.91.75,1.18-4.44c.44.47.86.9,1.3,1.38h-.35l0,0h0l2.05,1.73c35.71,37.39,99.53,101.12,176.57,164.35,69.93,57.39,136.87,103.13,199,135.93,77.71,41,148.05,61.86,209.05,61.86V653.8C924.18,653.8,920.37,653.71,916.52,653.55ZM380.27,360.63q5.44,7.51,11.22,15.33l1.31,1.77q8.93,12,18.57,24.61c.67.88,1.35,1.75,2,2.63q5.3,6.88,10.8,13.85l2.75,3.49q9.66,12.18,19.83,24.51,2,2.4,4,4.79c1.66,2,3.29,4,5,6,5.74,6.82,11.45,13.42,17.13,19.9l1.38,1.58q3.84,4.35,7.65,8.61l1.94,2.16c2.51,2.78,5,5.55,7.51,8.27l1.34,1.45q11.54,12.54,22.88,24.11c1.07,1.08,2.13,2.18,3.19,3.25,2,2,3.9,3.91,5.84,5.84l3.83,3.79c1.86,1.82,3.72,3.64,5.57,5.42,1.33,1.29,2.66,2.55,4,3.82s2.75,2.65,4.12,3.93h0l0,0h0l.61.51c.33.31.65.59,1,.89,3.76,3.52,7.5,6.92,11.22,10.26q1.89,1.71,3.78,3.38,5.69,5,11.32,9.82l1.08.94v1.19h-3V579H570v4.37l-12.85-.78h-7.89V567.72h3.32v0h0v-3.46H541.94l-40.82-3h-9.64V546.88H494v-3.47h0v0h-2.54l-25.48-3v-4.67l3.47-6.93h0v0L466,527.53v-3.59h2.73v-4.72H457.15V508.86h-1.92l-7.84-2.81c-.53-1.5-1.1-3-1.69-4.47-.18-.46-.35-.91-.54-1.37-1-2.32-2-4.64-3.09-6.94l-.64-1.3-.45-.91,1.42-2.84h0v0l-3.6-1.29c-.34-.62-.66-1.25-1-1.87,0-.06-.06-.12-.1-.17-1.31-2.34-2.72-4.64-4.18-6.92-.27-.43-.54-.86-.82-1.29-.7-1.07-1.43-2.14-2.16-3.2l2.63-5.23h0l0,0-8.71-3c-.7-.88-1.39-1.77-2.11-2.64l-.19-.24c-1.77-2.13-3.62-4.22-5.51-6.28l-1.07-1.16c-.74-.79-1.49-1.57-2.25-2.35l6.72,2,3.1-9.82h0v0l-23.8-6.87q-2.86-5.25-5.67-10.48l14,4.2,3.1-9.81h0v0L387,414.85q-2.55-4.87-5.06-9.7l13.38,4,3.1-9.82h0v0l-22.87-6.6-3.16-6.23,12.92,3.87,3.11-9.81h0v0l-22.21-6.41c-1.29-2.6-2.57-5.18-3.82-7.74l11.33,2,3.1-9.81h0v0L356.41,354q-1.5-3.09-2.94-6.12L365.18,350l2.28-7.2c4,5.65,8.23,11.55,12.57,17.54ZM622.06,613.79c2,1.27,3.9,2.48,5.84,3.69,1.47.93,3,1.92,4.43,2.8v.3h-23.6V604.87l.57.3,1.28.87c2.55,1.78,5.08,3.49,7.61,5.17C619.48,612.08,620.78,613,622.06,613.79Zm-635.26.15c2.95-1.9,5.91-3.84,8.89-5.89l5.15,8.11v4.42H-16.84l-2.33-2.84c1-.61,2-1.25,2.94-1.87S-14.22,614.6-13.2,613.94ZM50,565.2l1.72-1.51,8.56,6.71v12.2H52.73l-2.26.14-9-10.09c1.26-1.08,2.54-2.23,3.81-3.33Q47.64,567.28,50,565.2Zm19.44-17.82c.87-.83,1.73-1.61,2.6-2.44l11.09,10.9,8.32-6.35,0,0h0l-12-11.75c.58-.56,1.16-1.15,1.73-1.71,1.51-1.48,3-3,4.53-4.5s3-2.94,4.49-4.46l11.35,11.07,8.29-6.37h0l0,0-12.38-12.1c.57-.59,1.15-1.21,1.73-1.8l2.49-2.61c1.67-1.74,3.33-3.46,5-5.23l14.66,10,6.87-7.54h0l0,0-14.54-9.93c.66-.71,1.32-1.45,2-2.17,1.83-2,3.67-4,5.51-6,1.37-1.51,2.74-3,4.12-4.51l12.74,10.94,7.81-6.82,0,0h0l-13.27-11.4-3.41,3c.93-1,1.87-2.13,2.8-3.18,2.05-2.32,4.11-4.65,6.17-7,.83-.95,1.65-1.86,2.47-2.81l13.85,9.17,6.74-7.62,0,0,0,0-13.94-9.23c2-2.36,4-4.72,6.06-7.12,1.45-1.72,2.88-3.45,4.32-5.17l16.43,7.33,5.08-8.54h0v0l-15-6.67c1-1.15,1.86-2.29,2.8-3.44,1.25-1.52,2.49-3.05,3.73-4.57,1.42-1.75,2.87-3.51,4.27-5.25l14.1,8.15,6.16-8h0l0,0-13.94-8.06c.6-.76,1.17-1.5,1.77-2.25q3.62-4.57,7.15-9.12c.61-.78,1.25-1.57,1.85-2.35l15.18,8.31,5.93-8.12h0l0,0-14.93-8.16c1.6-2.08,3.13-4.12,4.7-6.18l1.48-1.94c1.1-1.46,2.24-2.94,3.33-4.39l14.71,8,5.89-8.13h0l0,0L213.86,381c2.59-3.47,5.14-6.92,7.63-10.31l13.65,8.62,6.54-7.75h0l0,0-14.24-9c2.06-2.83,4-5.56,6-8.32l1.5-2.09c.83-1.16,1.71-2.36,2.52-3.5l13.66,8.63c-5.57,11.52-11.56,23.62-17.92,36.1l-.14.27q-2.16,4.26-4.39,8.56l-.21.41c-4.44,8.61-9,17.36-13.8,26.18l-.32.6c-1.27,2.36-2.56,4.73-3.85,7.1l-1.62,3c-.57,1-1.16,2.09-1.73,3.14l-.3.27c-1,.82-1.9,1.64-2.83,2.48l-1.47,1.36q-1.38,1.28-2.73,2.58c-.48.46-.94.93-1.41,1.39q-1.33,1.32-2.64,2.67c-.45.47-.89,1-1.34,1.43-.86.91-1.71,1.82-2.54,2.75-.43.47-.84,1-1.26,1.44-.83,1-1.66,1.9-2.46,2.86L187,463.24c-.81,1-1.61,2-2.39,3l-1,1.39c-.78,1-1.56,2.05-2.31,3.1-.32.44-.63.9-.94,1.34-.76,1.07-1.51,2.15-2.24,3.23l-.83,1.29c-.73,1.11-1.45,2.23-2.15,3.36-.24.39-.47.79-.71,1.19-.71,1.17-1.41,2.35-2.09,3.54l-.53,1c-.71,1.26-1.4,2.52-2.06,3.79-.12.24-.23.48-.36.72-.69,1.37-1.38,2.74-2,4.12l-.06.13a129.82,129.82,0,0,0-5.77,14.45h-8.77v10.36H141.13v4.72h2.74V540.4h0l-25.78,3h-2.54v3.46h0v0h2.54v14.36h-9.37l-39.87,2.89-9.43-7.39c.77-.7,1.55-1.45,2.31-2.16Q65.57,551,69.44,547.38Zm562.89,70.83-.44-.28h.44ZM221.21,420.46c.55-1,1.12-2.08,1.66-3.11l14.28,4.8-1.54.82c-1.11.6-2.21,1.22-3.31,1.84l-1.82,1.05c-1.08.64-2.16,1.3-3.23,2l-1.78,1.12q-1.59,1-3.15,2.07l-1.24.83-5-1.69c1.44-2.67,2.84-5.31,4.25-8ZM231,401.69c1-1.92,2-3.85,3-5.75l16.56,5.52,4-9h0l0,0-16.07-5.36q2.47-4.91,4.88-9.74l17.31,4.8L264,373h0v0l-16.28-4.51c1.19-2.43,2.31-4.76,3.47-7.13.29-.61.59-1.22.88-1.82.82-1.7,1.68-3.45,2.49-5.12l15.82,6.14,1.62-3.14v5.18h-2.35V382.2H272v21.33h-5.61v6.9l-1.39.41c-.68.2-1.36.39-2,.6-1.24.38-2.46.79-3.68,1.2-.67.23-1.35.45-2,.69-1.22.42-2.42.88-3.62,1.34l-2,.76c-1.18.47-2.36,1-3.53,1.47-.65.28-1.31.55-2,.84-1.16.52-2.3,1.05-3.45,1.6l-1.92.92-.81.39,3-6.8h0v0l-15.62-5.26c.8-1.53,1.56-3,2.35-4.55ZM361.66,369.1c.71,1.44,1.39,2.85,2.11,4.3h0l0,0h0l.34.61c.42.84.87,1.72,1.29,2.57q2.4,4.84,4.9,9.8c1.07,2.11,2.14,4.23,3.23,6.36q2.6,5.12,5.27,10.3c1.07,2.08,2.16,4.16,3.25,6.25q2.12,4.06,4.28,8.16t4.46,8.39q2.17,4.08,4.41,8.19c.75,1.38,1.47,2.75,2.22,4.13-.56-.44-1.14-.87-1.72-1.31-.41-.32-.82-.64-1.24-.95q-3.37-2.54-6.88-4.91l-1.08-.71c-2.34-1.54-4.72-3-7.14-4.47l-.44-.27c-2.5-1.46-5.06-2.84-7.65-4.16-.46-.24-.92-.48-1.39-.71-2.56-1.28-5.16-2.5-7.81-3.64l-1.13-.47q-3.92-1.66-7.93-3.1l-.6-.22c-2.76-1-5.57-1.85-8.41-2.66l-.83-.26v-6.78h0v0h-5.61V382.2h2.36V371.36h0v-2.91h0v-5.83h0v0h-2.36v-8.94h-2.22v-9.27h-2v-9.27h-1.51v-3.32h0v-6h-2.65v-9.23h0v0h-1.69v-9.26h-1.44v-9.24h0v0h-1.12v-7.66c8.52,19.3,20.87,46.37,35.9,77ZM271.2,310.73h0l0,0L266,307.42c.78-1.15,1.55-2.3,2.3-3.43l6.28,3.14c-2.62,5.78-5.46,12-8.49,18.51l-9.88-3.83c1.4-2.05,2.79-4.07,4.13-6l4.3,2.71ZM323,286l1.22,2.79H323Zm-48.74,67.67H274l.28-.54Zm44.82-74.15h-.31v-3.24c.19.46.38.89.59,1.37ZM276.29,308l5.79,2.89v5.7h-1.69v8.09l-10.17-3.39Q273.42,314.31,276.29,308Zm10.28-22.53v3.32h-1.7l1.7-3.88Zm-3.05,15-1.21-.6,1.21-1.26Zm.54-2.43.58-.6v.6Zm.58-3.32v1.15l-2.21-1.58,2.21-5ZM290.8,276v3.48h-.31l-.4-2.7c.12-.27.22-.52.34-.78Zm0-5.68c-.39.92-.79,1.87-1.23,2.89l-.21-1.37,1.44-2.25Zm-2.95,6.86c-.31.74-.66,1.53-1,2.3h-.29v.65c-1.68,3.88-3.6,8.24-5.71,13l-3.62-2.59c4-6.07,7.43-11.37,10.26-15.78Zm-17.91,54.29,7.79,2.6v1h-1.5v9.27h-2v7.11l-15.41-6q2.5-5.24,4.85-10.25l3.58,1.39Zm50-57.81h-.22c-.34-.77-.65-1.5-1-2.21v-1.11l1.34,2.12Zm-55.49,32.75-7.24-4.58c2.62-2.7,5.1-5.29,7.48-7.78l5.43,3.89ZM211.51,439l-.24.19-.18.15.22-.41Zm109-169.3-1.41-2.23,1.5,1.64Zm.15-3.23H321l0,.3Zm-30.08,0c-.5.8-1.06,1.69-1.65,2.61l-.11-.75,1.69-1.86ZM287.08,272c-3,4.72-6.82,10.62-11.35,17.52l-4-2.85c6.13-6.48,11.19-11.94,15.1-16.19ZM250.9,326.25l-10.85-6.86c3.45-3.49,6.81-6.9,10-10.15l8.75,5.53C256.28,318.45,253.64,322.3,250.9,326.25Zm-3.78,9.53,4.42-5.24,10.4,4-3.76,8c-.25.52-.49,1-.73,1.54l-1.94,4.05-12.23-7.73c1.16-1.64,2.31-3.27,3.43-4.88Zm100.49-.22c-1.1-2.34-2.18-4.66-3.24-6.93l11.94,3.08.94-3.55q3.79,5.47,7.86,11.25Zm-8.9-19.17-2.83-6.21,11,2.83q2.25,3.32,4.64,6.79ZM330.38,298c-1-2.19-1.92-4.31-2.82-6.34l6,1.55c1.44,2.2,3,4.49,4.55,6.86ZM323,279.69v-.19h-.77l-.64-1.46.39-2.64c1,1.53,2,3.15,3.14,4.87Zm-.61-7.11.2-1.36q4.34,4.69,10.35,11.13L327.8,281Q324.79,276.33,322.39,272.58Zm-26.85-42.1h-.3l.23-.86h.07Zm9.68-27.91h1.86l3.11,11.78h-2.75s-.05-.09-.07-.14a3.13,3.13,0,0,1-.15-.32,3,3,0,0,0-.27-.54.91.91,0,0,0,.14-.07c.08,0,.16-.05.21-.11a.57.57,0,0,0,.17-.41v0h0v0s0,0,0-.08-.06-.1-.08-.16a.64.64,0,0,0-.1-.22.53.53,0,0,0-.39-.18h-.25a.28.28,0,0,0,0-.09h0v-.05h0v0a3.06,3.06,0,0,0-.06-.45c0-.06,0-.12,0-.17a.14.14,0,0,1,0-.06l-.06-.14a1.17,1.17,0,0,1,0-.11l0-.05,0,0h0s-.08-.07-.1-.11a2.18,2.18,0,0,0-.45-.46s-.06-.08-.09-.1a.25.25,0,0,1,0-.08,2.25,2.25,0,0,0,.12-.69.24.24,0,0,0,0-.09v0h0v0h0a3.89,3.89,0,0,0,0-.49l0-.18a0,0,0,0,1,0,0,.5.5,0,0,0,0-.13l0-.13s0,0,0-.06l-.05-.12a.14.14,0,0,0,0-.06c0-.06-.05-.11-.07-.16a.21.21,0,0,0,0-.06v0l-.11-.16a.52.52,0,0,0-.1-.11l-.09-.11Zm6.14,24.24v0h0v0h-.82a9.78,9.78,0,0,1-1.1-1.64c-.17-.32-.31-.67-.47-1s-.26-.53-.38-.81h4l.77,2.93.33,1.22h-2.29v-.63Zm-3-4a1.42,1.42,0,0,1-.08-.18,3.78,3.78,0,0,0-.17-.35c0-.06-.05-.12-.08-.17s-.14-.25-.22-.37l0,0-.07-.09-.05-.08-.12-.15-.09-.11a0,0,0,0,0,0,0,3.11,3.11,0,0,0-.32-.31l-.09-.08h0l-.14-.1-.4-.25-.05,0c.05,0,.06-.12.1-.16a2.77,2.77,0,0,0,.47-.73c0-.06.07-.09.09-.14h0a10,10,0,0,1,1.13-2.07h.27a.61.61,0,0,0,.61-.61v-.09a.14.14,0,0,0,0-.07c0-.07-.05-.11-.07-.17s0-.17-.11-.22a.52.52,0,0,0-.39-.18h-.17a8.12,8.12,0,0,1-.65-1.2h2.61l2.1,8Zm3.51,6.82h.61v.86h-.61Zm2.26,0h.07l.23.86h-.3Zm-12.84-13.55h-.25a.61.61,0,0,0-.6.61v.09a.61.61,0,0,0,.61.61h.16a10,10,0,0,1,1.12,2.07s0,.06.07.1a2.58,2.58,0,0,0,.64.93,3.43,3.43,0,0,0-1.11.87v0a4.57,4.57,0,0,0-.78,1.28,1,1,0,0,1-.08.18h-3.82l2.11-8H302A8,8,0,0,1,301.31,216.07ZM317,230.48v-.86h1.18v.86Zm-12.61-23.14a1.49,1.49,0,0,0-.55.75s0,0,0,0a3,3,0,0,0-.22,1.13v0h0c0,.06,0,.09,0,.14a2.51,2.51,0,0,0,.17.81,2,2,0,0,0-.85,1.67v0h0a.5.5,0,0,0,0,.12h-.24a.62.62,0,0,0-.61.61v.06h0v0a.61.61,0,0,0,.61.61h0a3.19,3.19,0,0,0-.29.55l-.07.18a2.69,2.69,0,0,0-.16.29h-2.74l3.12-11.82h1.76Zm-3.49,15.95c-.08.2-.17.39-.26.59-.16.37-.32.74-.51,1.1a11.69,11.69,0,0,1-1.19,1.8h-.82v.66H296l1.1-4.15Zm-3.69,7.19v-.86h.38v.86Zm-4.48-.86v.86h-1.18v-.86ZM38.9,572.49v0H39Zm-63.06,46.29Z" fill="#cc4843"/><path d="M92.89,626.23a25.72,25.72,0,0,0-18.08,7.36,25.87,25.87,0,0,0-35.93-.21A25.74,25.74,0,0,0,21,626.23a26.11,26.11,0,0,0-26,25h123.9A26.13,26.13,0,0,0,92.89,626.23Z" fill="#ff7b83"/><path d="M78.94,556.29c5.93-.37,25.15,7,25.14,6.71-1.35-20.53-24.58-15-25-15.72s19.32-5.78,19-6c-19.24-16.77-26.09,4.29-26.28,2.24C70.66,531.36,56.78,530,56.78,530s11,14.65,7.5,12.55c-19.92-11.83-28.93,8.95-27,8.12,7.53-3.12,26.81,1,25.61,1.18-17.44,3.25-19.17,24-19.17,24A40.9,40.9,0,0,0,69.2,559.65c-1.58,19.74-4.75,57.49-8.65,94.19l11.21,2.3,2.14-88.43C77,579.67,87.52,587.83,88,586.8,97.2,565.28,78.43,556.32,78.94,556.29Z" fill="#ff7b83"/><path d="M109.54,639.59a12.06,12.06,0,0,0-8.49,3.44A12.18,12.18,0,0,0,84.17,643a12.06,12.06,0,0,0-8.38-3.36,12.29,12.29,0,0,0-12.23,11.72h58.21A12.28,12.28,0,0,0,109.54,639.59Z" fill="#ffaeb9"/><path d="M8.52,639.59A12.06,12.06,0,0,0,0,643a12.06,12.06,0,0,0-8.49-3.44A12.1,12.1,0,0,0-16.85,643a12.06,12.06,0,0,0-8.38-3.36,12.29,12.29,0,0,0-12.23,11.72H20.75A12.28,12.28,0,0,0,8.52,639.59Z" fill="#ffaeb9"/><path d="M779.8,651.41a53.61,53.61,0,0,0-107.12,0Z" fill="#ff7b83"/><path d="M726.23,651.41H779.8A53.81,53.81,0,0,0,726.23,600Z" fill="#ff5462"/><path d="M943.29,523.15s2.83,74.07,7.43,129.15l-15.19.72,3.92-129.7Z" fill="#ff5475"/><path d="M992.21,567.55s-4.15-36.13-34.86-40.81c-2.11-.32,31.38-8.55,44.75-3.48,3.45,1.29-13.46-34.52-47.64-12.74-6.08,3.89,12.41-22.35,12.41-22.35s-24.21,3.1-25.57,24.32c-.22,3.6-13.39-32.83-46.11-2.4-.55.49,34.19,8.19,33.59,9.49S887.2,512.49,886,548.47c0,.51,33.2-13.45,43.57-13.18.91.08-31.41,16.8-14.11,53.92.92,1.86,21.51-15.26,24.4-38.8A164.64,164.64,0,0,0,941.15,532S955.13,561.36,992.21,567.55Z" fill="#ff5475"/><path d="M1229.8,651.76a44.9,44.9,0,0,0-89.72,0Z" fill="#ff5475"/><path d="M1184.94,651.76h44.86a45.06,45.06,0,0,0-44.86-43Z" fill="#ff5462"/><path d="M959.87,632.37a19.3,19.3,0,0,1,13.56,5.52,19.41,19.41,0,0,1,27-.16,19.29,19.29,0,0,1,13.38-5.36,19.58,19.58,0,0,1,19.51,18.72H940.35A19.59,19.59,0,0,1,959.87,632.37Z" fill="#ff5462"/><path d="M250.64,641.43a12.05,12.05,0,0,0-8.48,3.44,12.19,12.19,0,0,0-16.88-.09,12.07,12.07,0,0,0-8.38-3.35,12.27,12.27,0,0,0-12.23,11.71h58.2A12.27,12.27,0,0,0,250.64,641.43Z" fill="#ffaeb9"/><path d="M796.68,637a16.52,16.52,0,0,0-11.63,4.71,16.71,16.71,0,0,0-23.14-.11,16.49,16.49,0,0,0-11.48-4.6,16.82,16.82,0,0,0-16.76,16h79.77A16.82,16.82,0,0,0,796.68,637Z" fill="#ffaeb9"/><path d="M1133.5,634.41a18.6,18.6,0,0,1,13,5.31,18.6,18.6,0,0,1,25.86-.16,18.57,18.57,0,0,1,12.87-5.15,18.82,18.82,0,0,1,18.75,18h-89.26A18.81,18.81,0,0,1,1133.5,634.41Z" fill="#ffaeb9"/><path d="M941.26,639.05a13.09,13.09,0,0,0-9.22,3.74,13.23,13.23,0,0,0-18.34-.09,13.09,13.09,0,0,0-9.1-3.65,13.35,13.35,0,0,0-13.29,12.73h63.23A13.33,13.33,0,0,0,941.26,639.05Z" fill="#ffaeb9"/></g></g><path d="M597.65,470.59l33,12.82,1,.39c2.12-3.54,6.83-4.68,10.94-4.29,3.93.36,7.65,1.77,11.54,2.38a.15.15,0,0,0,.11,0c.17,0,.35,0,.53.07,4.11.5,8.78-.35,11.22-3.72,2.3-3.18,5.28-17.38,5.88-20.32.07-.35.11-.53.11-.53s10.62-2.05,12-4.25a.78.78,0,0,0,.15-.39c.14-2.34-10.34-5.2-10.8-10.44A19.72,19.72,0,0,1,674,437c1.24-7.08-.64-18.19-5-23.86,0,0-22.34-17-51.23-6.23C602.08,428.85,597.65,470.59,597.65,470.59Z" fill="#ffa19d"/><path d="M588.31,932q-5.79-9-11.57-18l-11.25,7.23,13.06,20.79" fill="#ffa19d"/><path d="M572.42,942.91l-2.5-6.41L587,928.24l4.65,5.46a9.67,9.67,0,0,1,2.36-1.56c2.05-.9,4.39-.7,6.63-.74,9-.14,17.42-4.23,25.49-8.24l6.47-3.2a5.31,5.31,0,0,1,2,1,7.47,7.47,0,0,1,2.8,7.25c-1.28,1.39-2.64,2.72-4,4,0,0-8.09,8.16-14.58,12.58s-16.53,7.08-20.07,10.33-15.6,10.54-19.3,7.78c-5-3.73-7.74-10-8.94-16.13a3.72,3.72,0,0,1,.24-2.83A2.74,2.74,0,0,1,572.42,942.91Z" fill="#000725"/><path d="M731.61,700.51c-.58-.45-1.77-1.39-4-8.94l-.48-1.6,7.77-8.64,4.44,4-5.52,6.13a30,30,0,0,0,1.85,4.7,1.91,1.91,0,0,0-.34-.33Z" fill="#6d6d6d"/><path d="M738.81,719.12c-.29-.84-4.46-11-7-17.24l5.52-2.26c1.6,3.9,6.85,16.68,7.15,17.6l-5.66,1.88,2.83-.94Z" fill="#6d6d6d"/><rect x="725.63" y="693.45" width="15.64" height="9.44" transform="translate(1671.19 1080.32) rotate(158.58)" fill="#6d6d6d"/><path d="M737.3,690.57l27-8s1.77-13.28-7.31-11.73a135.18,135.18,0,0,0-19.89,5.53Z" fill="#000725"/><path d="M564.12,922.12l17.93-5.66c-4.16-7.48-2.25-16.7-.65-25.11,4.44-23.39-14.07-207.94-19-240.11a316.33,316.33,0,0,0-82-15.81,68.15,68.15,0,0,0,2.94,65.23c3.31,5.33,7.41,10.26,9.67,16.12,3.49,9.05,26,70,29.48,79.34q23,61,40.52,123.86" fill="#001038"/><path d="M817.18,1001.14A105.95,105.95,0,1,1,923.12,895.19,106.07,106.07,0,0,1,817.18,1001.14Zm0-208.91a103,103,0,1,0,103,103A103.07,103.07,0,0,0,817.18,792.23Z" fill="#909a9e"/><path d="M702.94,895.19a114.24,114.24,0,1,1,114.24,114.24A114.36,114.36,0,0,1,702.94,895.19Zm8.95,0A105.29,105.29,0,1,0,817.18,789.91,105.41,105.41,0,0,0,711.89,895.19Z" fill="#000725"/><path d="M425,1001.14A105.95,105.95,0,1,1,531,895.19,106.07,106.07,0,0,1,425,1001.14Zm0-208.91a103,103,0,1,0,103,103A103.08,103.08,0,0,0,425,792.23Z" fill="#909a9e"/><path d="M310.8,895.19A114.24,114.24,0,1,1,425,1009.43,114.36,114.36,0,0,1,310.8,895.19Zm9,0A105.29,105.29,0,1,0,425,789.91,105.4,105.4,0,0,0,319.76,895.19Z" fill="#000725"/><path d="M528.67,755.19c-.54-2-10-26.16-15.82-41l5.55-2.18c2.58,6.53,15.45,39.25,16.05,41.68l-5.79,1.44,2.9-.72Z" fill="#6d6d6d"/><rect x="771.15" y="704.03" width="14.16" height="199.1" transform="translate(-252.29 368.36) rotate(-23.02)" fill="#ff3831"/><rect x="544.51" y="813.76" width="244.37" height="14.16" transform="translate(-389.06 760.44) rotate(-47.64)" fill="#ff3831"/><rect x="549.41" y="729.98" width="14.16" height="183.48" transform="translate(-253.65 248.5) rotate(-20.61)" fill="#ff3831"/><path d="M534.8,764.19V759l1.35,5c5.2-1.21,150.31-25.88,205.79-35.29l-1.78-10.47S688.58,727,637,735.77c-25.79,4.4-51.58,8.81-70.92,12.15L542.7,752l-6.58,1.19c-2.46.46-7,1.31-6.64,6.14Z" fill="#ff3831"/><polygon points="411.21 913.34 586.14 913.34 586.14 902.72 432.68 902.72 537.25 765.64 528.81 759.19 411.21 913.34" fill="#ff3831"/><path d="M553.39,716.68c-1.77.59-73.76,0-73.76,0-5.71-7.89-4.52-17.18,0-27.14Z" fill="#000725"/><path d="M561.23,811l-18.14,19.33a2.43,2.43,0,0,1-1.46.93,2.37,2.37,0,0,1-1.5-.65l-7.58-5.67a98.21,98.21,0,0,1,13.93-16.32l7.8-7Z" fill="#ffa19d"/><path d="M517.19,833.28a2.54,2.54,0,0,1,1.26-.94l11.16-5,5.49-8.54,11.81,9.08c.81,5.91,3.59,11.38,6.88,16.35a82.08,82.08,0,0,0,16.15,17.94c1.61,2.84,2,6.2-.63,9.19-1.5,1.69-5.82,2.06-7.74,2.08-.15,0-.3,0-.44,0a74.73,74.73,0,0,1-7.78-3.81c-14.55-8.12-27.74-19.38-35.78-34A2.51,2.51,0,0,1,517.19,833.28Z" fill="#000725"/><path d="M595.76,655.31l97,51.45s14.43,14.43-4.47,33.33-113.91,83.06-113.91,83.06L548,800.77l75.61-61.18L478.85,692.34s-17.41-41.78,6-67.15S595.76,655.31,595.76,655.31Z" fill="#001e5a"/><path d="M475.51,626.7a692.53,692.53,0,0,1,99.78,22.09q10.31,3.13,20.47,6.52a518.12,518.12,0,0,0,15.4-50.14,513.91,513.91,0,0,0,13.42-76.79c1.34-13.46,2.26-27.48,8.78-39.34-7.05-18.52-17.78-34.13-35.52-42.81l-1.94,1c-26.06,10.55-49.61,30.13-67.74,52.4-6,7.43-10.37,16.14-14.44,24.86A690.52,690.52,0,0,0,475.51,626.7Z" fill="#a62c32"/><path d="M553,484.45a221.54,221.54,0,0,0,30.16-43.16c-39.52-29.7-80.73-58.93-128-73.27-2.5-.76-5.22-1.47-7.66-.54S443.37,371,442,373.3l-86,144c-1.13,1.89-2.29,4.14-1.45,6.18a7.1,7.1,0,0,0,2.22,2.57,390.67,390.67,0,0,0,134.63,73c14.52-10.32,18.1-29.83,23.83-46.7,9.1-26.82,26-50.21,42.59-73.16" fill="#d66d45"/><path d="M720,670.24a15.76,15.76,0,0,1,1.62-1.65,3.86,3.86,0,0,0,.71-3.79l5-4.48a34.16,34.16,0,0,0,7.77,2.09c7.48,1.29,17.18-.16,19.24,7.7v2.79a1.63,1.63,0,0,0-.37-.13q-.32,5.88-.62,11.76c-.12,2.31-.29,4.77-1.64,6.65-2.45,3.4-7.42,3.39-11.59,3a2.84,2.84,0,0,1-2-.69,2.61,2.61,0,0,1-.42-2c.14-1.9.9-4.15,2.76-4.57.87-.19,1.83.07,2.63-.31,1-.48,1.36-1.76,1.57-2.88.37-2,.67-4.18-.53-5.77-1.53-2-4.55-1.87-7.08-1.67a62.91,62.91,0,0,1-11.15-.13,9.35,9.35,0,0,1-4.79-1.48C719.81,673.68,719.08,671.66,720,670.24Z" fill="#ffa19d"/><path d="M620.08,568c-69.56,14.27-115.31,16.68-134.55,5.9L479,592.17S562.83,593.94,620.08,568Z" fill="#04258e"/><rect x="602.37" y="948.01" width="25.97" height="12.98" transform="translate(1625.51 1473.46) rotate(150)" fill="#001e5a"/><circle cx="818.06" cy="897.55" r="13.28" fill="#bababa"/><path d="M419.73,923.22S587,939.75,587.91,938l5-56.07c-1.77.6-175.26,15.35-175.26,15.35" fill="#878787"/><circle cx="587.91" cy="909.95" r="28.03" fill="#878787"/><circle cx="588.95" cy="910.24" r="17.78" fill="#bababa"/><path d="M589.23,911.69c-1.63,0-7.23-4.41-45.43-36.6a1.49,1.49,0,1,1,1.92-2.28c16.27,13.7,41.07,34.39,43.69,36a1.46,1.46,0,0,1,.73.53,1.49,1.49,0,0,1-.3,2.08A.92.92,0,0,1,589.23,911.69Z" fill="#666"/><rect x="525.66" y="861.26" width="25.97" height="12.98" transform="translate(459.15 1885.99) rotate(-143.71)" fill="#001e5a"/><path d="M729.62,683.33a7.46,7.46,0,1,0,7.46-7.47A7.46,7.46,0,0,0,729.62,683.33Z" fill="#001038"/><circle cx="419.73" cy="909.95" r="13.28" fill="#bababa"/><path d="M415.6,910a4.13,4.13,0,1,0,4.13-4.14A4.13,4.13,0,0,0,415.6,910Z" fill="#878787"/><path d="M813.93,897.55a4.13,4.13,0,1,0,4.13-4.13A4.13,4.13,0,0,0,813.93,897.55Z" fill="#878787"/><rect x="396.93" y="495.96" width="181.32" height="2.98" transform="translate(-178.16 702.34) rotate(-62.68)" fill="#261b2d"/><path d="M569.6,438.67c-26.73-14.52-54-28.53-80-44.31a1.11,1.11,0,0,1,1.12-1.92c27.08,13.87,53.29,29.7,79.67,44.83a.81.81,0,0,1-.82,1.4Z" fill="#fff"/><path d="M483.05,390.54c-3.2-1.73-6.46-3.35-9.66-5.1-3.38-1.84-7.25-3.43-10.18-5.94a.9.9,0,0,1,.87-1.49c3.66,1.24,7,3.77,10.3,5.74,3.13,1.86,6.18,3.84,9.3,5.71a.63.63,0,0,1-.63,1.08Z" fill="#fff"/><path d="M375.54,504.07c-4.82,7.95-9.42,14.64-7,24.36a.81.81,0,0,1-1.48.63c-5.05-8.93,1.16-19.24,6.92-26.16.7-.85,2.07.25,1.51,1.17Z" fill="#fff"/><path d="M376.73,536.66c2.8,1.52,6.09,3.38,8,6,.35.49-.33,1.06-.8.79-2.79-1.6-5.19-3.83-8-5.4-.91-.51-.1-1.89.82-1.4Z" fill="#fff"/><path d="M496.54,493.11c-7.91,21.67-18.66,43.51-29.24,64-.39.77-1.75.22-1.42-.6,8.72-21.37,18.32-43.78,29.63-63.88.31-.54,1.25-.17,1,.44Z" fill="#fff"/><path d="M464.08,562.05c-1.3,1.92-2.55,4.61-4.38,6-.69.55-1.89.08-1.59-.93.65-2.24,2.64-4.37,3.95-6.3.84-1.24,2.87-.07,2,1.19Z" fill="#fff"/><path d="M575.29,648.79q10.31,3.13,20.47,6.52a518.12,518.12,0,0,0,15.4-50.14l-13.95-103c-2.66.89-24.79,35.41-25.67,88.52C571.08,617.67,573.17,636.65,575.29,648.79Z" fill="#721922"/><path d="M730.28,656.49c-1.77,0-74.36-25.38-74.36-25.38L621.7,486S595.14,475.32,583.93,516s3.54,108.58,31.87,129.83,103.27,41.9,103.27,41.9Z" fill="#a62c32"/><path d="M628.69,514.77c-5.72-6.47-57.2-42.16-79.21-30.59s11.57-22,11.57-22l53,36.56s12.44,7.58,13.43,9.94S629.56,514.27,628.69,514.77Z" fill="#04258e"/><path d="M673.17,416.09a70.83,70.83,0,0,0,4.6-16.34c-5.5.19-11,.37-16.49.4-21.74.12-44-1.57-65.59,1.64-1.76,9.79-.49,20.28.85,30.29L600,457.52a4.17,4.17,0,0,0,1,2.65,4.09,4.09,0,0,0,1.33.68l9.5,3.52q1.84-4,3.67-7.95c-4.23-1.87-6.51-7.09-5.41-11.59a12.4,12.4,0,0,1,9.71-8.84c4.05-.75,9.08,1.15,9.79,5.21.3,1.71,0,3.93,1.56,4.72a3.81,3.81,0,0,0,1.61.29l6.86.22A3.64,3.64,0,0,0,642,446c.93-.72.94-2.09.87-3.26q-.75-12-1.49-23.94c10-.43,20.2.35,29.92-2.09C671.92,416.51,672.54,416.28,673.17,416.09Z" fill="#001038"/><path d="M640.41,425.55c-.75.49-18.9,48.12-16.17,51S646.38,426,646.38,426" fill="#834649"/><path d="M690.4,423.33l-50.74,7.25s-.6-.27-1.82-.75a76.31,76.31,0,0,0-10.36-2.89c-5.87-1.22-10.65-.15-17.9,1.49-3.25.75-7,1.58-11.61,2.39-14.74,2.6-21.22-10.6-21.22-10.6l10.09-30.29-7-2.86,1-2.6s9.07-4.89,24.86-7,44.56-3.37,63.95,9.07S690.4,423.33,690.4,423.33Z" fill="#834649"/><path d="M638.17,427.9a3.44,3.44,0,0,1-.33,1.93,76.31,76.31,0,0,0-10.36-2.89c-5.87-1.22-10.65-.15-17.9,1.49C606.12,415.24,591.91,401,591.91,401L602,402.53S638,426.73,638.17,427.9Z" fill="#bf3240"/><path d="M629.22,391.72s22.75-3,33.57,4.85-10.45,14.18-10.45,14.18Z" fill="#bf3240"/><path d="M672,457.42l-26.71-8.65-6.19,31S674.81,500.3,672,457.42Z" fill="#a7cbd4"/><rect x="619.71" y="413.14" width="2.24" height="54.14" transform="translate(-16.89 855.57) rotate(-68.42)" fill="#a7cbd4"/><path d="M628.94,508c7,1.68,14.82-4.3,15-11.52.12-4.75-2.16-10.53,1.48-13.58-19.54-10.57-30.11-32.8-48.53-45.21A12.94,12.94,0,0,1,588,444c-2.71.47-5.75.13-7.94,1.79a10.38,10.38,0,0,0-2.76,4q-2.34,4.9-4.69,9.8a12.46,12.46,0,0,0-1.23,3.34,9.11,9.11,0,0,0,.4,4c2.32,7.82,9.79,12.78,16.73,17.07l38,23.47"/><path d="M656.22,444.79a4.28,4.28,0,1,0,4.28-4.28A4.27,4.27,0,0,0,656.22,444.79Z" fill="#001038"/><path d="M718.5,686.11c-32.68-11.76-71.82-20.46-99.64-42.09-30.78-23.92-38.15-67.87-38-104.63a1.49,1.49,0,0,0-3,0c-.18,35.19,6.39,77.47,33.63,102.47,27.84,25.55,71.62,34.7,106.17,47.13,1.81.65,2.59-2.24.79-2.88Z"/><path d="M596.79,499.73a36.17,36.17,0,0,0-13.23,28.46,1.5,1.5,0,0,0,3,0,33.29,33.29,0,0,1,12.35-26.35c1.48-1.22-.64-3.32-2.11-2.11Z"/><path d="M630.42,537.74a93.14,93.14,0,0,0-47.92,19.4c-1.51,1.18.61,3.28,2.11,2.11a89.48,89.48,0,0,1,45.81-18.53c1.89-.2,1.91-3.19,0-3Z"/><path d="M629.61,489.74c-9.3-6-21-11.59-26.4-21.71-.91-1.7-3.48-.19-2.58,1.5,5.71,10.64,17.73,16.48,27.47,22.79,1.62,1,3.12-1.54,1.51-2.58Z"/><path d="M643.39,483.39c1.23,1.78-1,4.34-1.31,6.09-.45,2.41.67,4.42,1.36,6.65a7.63,7.63,0,0,1-4.32,9.71c-4.13,1.92-8.77.6-12.7-1.19-1.73-.79-3.25,1.78-1.5,2.58,7,3.17,16.58,4.24,20.93-3.62,1.82-3.29,1.14-6.32-.05-9.66-1.5-4.22,2.83-8.22.16-12.07-1.08-1.56-3.67-.07-2.57,1.51Z"/><path d="M619.12,501q-22.25-13.81-43-29.68c-1.53-1.17-3,1.42-1.51,2.57q20.82,15.89,43.06,29.69c1.63,1,3.13-1.57,1.5-2.58Z"/><line x1="125.44" y1="848.06" x2="84.75" y2="848.06" fill="none" stroke="#0096c2" strokeLinecap="round" strokeLinejoin="round"/><line x1="286.49" y1="848.06" x2="152.56" y2="848.06" fill="none" stroke="#0096c2" strokeLinecap="round" strokeLinejoin="round"/><line x1="165.28" y1="883.48" x2="31.35" y2="883.48" fill="none" stroke="#0096c2" strokeLinecap="round" strokeLinejoin="round"/><line x1="262.94" y1="883.48" x2="211.23" y2="883.48" fill="none" stroke="#0096c2" strokeLinecap="round" strokeLinejoin="round"/><line x1="262.21" y1="923.43" x2="146.93" y2="923.43" fill="none" stroke="#0096c2" strokeLinecap="round" strokeLinejoin="round"/><line x1="128.9" y1="959.75" x2="76.34" y2="959.75" fill="none" stroke="#0096c2" strokeLinecap="round" strokeLinejoin="round"/><line x1="285.71" y1="959.75" x2="158.99" y2="959.75" fill="none" stroke="#0096c2" strokeLinecap="round" strokeLinejoin="round"/></svg>