<!DOCTYPE svg PUBLIC "-//W3C//DTD SVG 1.1//EN" "http://www.w3.org/Graphics/SVG/1.1/DTD/svg11.dtd">
<!-- Uploaded to: SVG Repo, www.svgrepo.com, Transformed by: SVG Repo Mixer Tools -->
<svg height="800px" width="800px" version="1.1" id="Layer_1" xmlns="http://www.w3.org/2000/svg" xmlns:xlink="http://www.w3.org/1999/xlink" viewBox="0 0 512.016 512.016" xml:space="preserve" fill="#000000">
<g id="SVGRepo_bgCarrier" stroke-width="0"/>
<g id="SVGRepo_tracerCarrier" stroke-linecap="round" stroke-linejoin="round"/>
<g id="SVGRepo_iconCarrier"> <circle cx="377.128" cy="450.56" r="61.456"/> <circle style="fill:#999999;" cx="377.128" cy="450.56" r="29.856"/> <polygon points="145.544,151.36 105.184,31.92 0.68,31.92 0.68,0 128.096,0 175.784,141.136 "/> <circle cx="191.752" cy="450.56" r="61.456"/> <polygon style="fill:#FFFFFF;" points="147.824,353.584 78.992,132.552 499.992,132.552 421.216,353.584 "/> <path style="fill:#25950f;" d="M488.648,140.56L415.576,345.6H153.704l-63.84-205.04L488.648,140.56 M511.336,124.56H68.128 l73.808,237.04h284.92L511.336,124.56z"/> <circle style="fill:#999999;" cx="191.752" cy="450.56" r="29.856"/> <circle style="fill:#25950f;" cx="315.664" cy="151.36" r="108"/> <polygon style="fill:#FFFFFF;" points="352.784,102.312 297.84,170.072 274.752,147.28 259.52,164.056 299.624,203.632 369.696,117.216 "/> </g>
</svg>