<?xml version="1.0" encoding="utf-8"?>
<!-- Generator: Adobe Illustrator 27.5.0, SVG Export Plug-In . SVG Version: 6.00 Build 0)  -->
<svg version="1.1" xmlns="http://www.w3.org/2000/svg" xmlns:xlink="http://www.w3.org/1999/xlink" x="0px" y="0px"
	 viewBox="0 0 1400 1000" style="enable-background:new 0 0 1400 1000;" xml:space="preserve">
<g id="BG">
	<rect style="fill:#FFFFFF;" width="1400" height="1000"/>
</g>
<g id="Object">
	<path style="fill:#E8ECED;" d="M1221.919,877.968c35.819-7.21,72.451-15.877,103.795-41.518
		c31.344-25.641,56.735-72.023,56.073-123.366c-0.583-45.166-21.256-86.212-47.685-111.378
		c-26.429-25.166-58.048-36.747-89.335-45.015c-141.843-37.485-284.454,13.827-424.268-14.26
		c-127.661-25.646-260.934,2.029-390.614,2.18c-110.131,0.129-243.566,1.484-337.244,90.953
		c-39.671,37.888-58.626,126.621-34.073,184.861c7.233,17.156,18.852,29.703,31.014,39.787
		c51.579,42.766,114.063,46.836,173.76,49.81C583.201,925.957,905.036,941.755,1221.919,877.968z"/>
	<path style="opacity:0.13;" d="M657.301,777.203c17.29-2.028,34.972-4.466,50.102-11.678c15.13-7.212,27.386-20.259,27.067-34.701
		c-0.281-12.705-10.26-24.25-23.017-31.329c-12.757-7.079-28.02-10.336-43.122-12.662c-68.468-10.544-137.306,3.889-204.794-4.011
		c-61.622-7.214-125.953,0.571-188.55,0.613c-53.16,0.036-108.981,4.971-154.2,30.138c-19.149,10.657-36.887,31.063-25.035,47.445
		c3.491,4.826,9.1,8.355,14.971,11.192c24.897,12.029,55.058,13.174,83.874,14.011C348.991,790.702,504.341,795.146,657.301,777.203
		z"/>
	<path style="opacity:0.13;" d="M890.903,748.027c3.067-0.578,6.203-1.273,8.886-3.329c2.683-2.056,4.857-5.774,4.8-9.891
		c-0.05-3.621-1.82-6.912-4.082-8.93c-2.263-2.018-4.97-2.946-7.648-3.609c-12.143-3.005-24.352,1.109-36.322-1.143
		c-10.929-2.056-22.339,0.163-33.441,0.175c-9.428,0.01-19.329,1.417-27.349,8.59c-3.396,3.038-6.542,8.854-4.44,13.523
		c0.619,1.375,1.614,2.381,2.655,3.19c4.416,3.429,9.765,3.755,14.876,3.993C836.222,751.875,863.774,753.141,890.903,748.027z"/>
	<path style="opacity:0.13;" d="M1099.853,754.44c3.067-0.578,6.203-1.273,8.886-3.329c2.683-2.056,4.857-5.775,4.801-9.891
		c-0.05-3.621-1.82-6.912-4.082-8.93c-2.263-2.018-4.969-2.946-7.648-3.609c-12.143-3.005-24.352,1.109-36.322-1.143
		c-10.929-2.056-22.339,0.163-33.441,0.175c-9.428,0.01-19.329,1.417-27.349,8.59c-3.396,3.038-6.542,8.854-4.44,13.523
		c0.619,1.375,1.614,2.381,2.655,3.19c4.416,3.429,9.765,3.755,14.876,3.993C1045.172,758.288,1072.724,759.554,1099.853,754.44z"/>
	<path style="opacity:0.13;" d="M1316.789,746.169c3.066-0.578,6.203-1.273,8.886-3.329c2.683-2.056,4.857-5.774,4.8-9.891
		c-0.05-3.621-1.82-6.912-4.082-8.93c-2.262-2.018-4.969-2.946-7.648-3.609c-12.143-3.005-24.352,1.109-36.322-1.143
		c-10.929-2.056-22.339,0.163-33.441,0.175c-9.428,0.01-19.329,1.417-27.349,8.59c-3.396,3.038-6.542,8.854-4.44,13.523
		c0.619,1.375,1.614,2.381,2.655,3.19c4.416,3.429,9.765,3.755,14.876,3.994C1262.108,750.017,1289.66,751.284,1316.789,746.169z"/>
	<g>
		<g>
			<path style="fill:#C89A81;" d="M451.911,444.408c-2.61-2.836-2.361-11.762,1.486-11.86c-1.244,0.032-2.914-0.303-2.973-1.546
				c-0.037-0.776,0.64-1.372,1.234-1.872c2.544-2.141,4.651-4.799,6.156-7.764c0.137-0.271,0.281-0.542,0.406-0.823
				c3.553-7.987,7.646-15.718,11.27-23.672c3.627-7.963,6.319-16.044,10.444-23.769c1.203-2.253,2.407-4.506,3.634-6.746
				c1.279-2.336,2.585-4.657,3.915-6.964c1.566-2.715,3.82-7.487,6.646-9.164c2.97-1.762,8.217-0.52,9.908,2.476
				c2.652,4.696-2.327,10.103-4.406,14.008c-2.874,5.399-5.744,10.801-8.616,16.202c-1.606,6.916-7.883,14.824-11.236,21.128
				c-3.598,6.765-6.725,13.099-11.312,19.227c-2.352,3.142-4.725,6.32-6.298,9.915c-1.134,2.591-1.849,5.39-3.393,7.759
				C455.691,445.679,453.36,445.983,451.911,444.408z"/>
		</g>
		<g>
			<path style="fill:#C89A81;" d="M664.024,431.704c2.126-3.214,0.464-11.988-3.35-11.474c1.234-0.166,2.829-0.762,2.69-1.999
				c-0.086-0.772-0.85-1.253-1.516-1.652c-2.852-1.71-5.354-4-7.311-6.688c-0.179-0.246-0.364-0.491-0.531-0.748
				c-4.776-7.321-10.045-14.305-14.885-21.583c-4.845-7.286-8.786-14.837-14.086-21.809c-1.546-2.033-3.091-4.067-4.659-6.084
				c-1.634-2.103-3.291-4.187-4.971-6.254c-1.977-2.432-4.961-6.786-8.017-7.992c-3.212-1.268-8.195,0.791-9.39,4.017
				c-1.873,5.057,3.902,9.605,6.573,13.13c3.695,4.875,7.386,9.752,11.079,14.628c2.684,6.574,10.137,13.385,14.448,19.076
				c4.626,6.108,8.719,11.865,14.221,17.187c2.821,2.729,5.668,5.49,7.792,8.79c1.531,2.378,2.681,5.028,4.581,7.122
				C660.494,433.559,662.843,433.489,664.024,431.704z"/>
		</g>
		<g>
			<path style="fill:#E6E6E6;" d="M595.619,300.27c2.074,17.08,4.147,34.16,6.221,51.239c1.91-0.725,3.592,1.468,4.365,3.359
				c4.964,12.145,5.483,27.302,15.888,35.294c6.085-5.826,12.171-11.652,18.256-17.478c-10.725-13.779-19.049-29.421-24.486-46.014
				c-1.834-5.597-3.375-11.374-6.427-16.411C606.386,305.222,601.474,300.913,595.619,300.27z"/>
			<g>
				<g>
					<path style="fill:#333333;" d="M570.524,697.004c5.538-0.446,11.13-0.21,16.61,0.7c4.225,3.145,8.854,5.747,13.737,7.722
						c1.418,0.573,2.911,1.129,3.958,2.244c1.047,1.115,1.47,2.991,0.492,4.167c-0.855,1.028-2.367,1.138-3.703,1.153
						c-10.235,0.108-20.48-0.763-30.55-2.597c-0.604-0.11-1.245-0.243-1.681-0.675c-0.349-0.345-0.512-0.832-0.639-1.306
						C567.719,704.585,568.381,700.337,570.524,697.004z"/>
					<path style="fill:#333333;" d="M512.308,695.162c5.396,0.623,10.715,1.91,15.799,3.823c3.456,3.818,7.402,7.193,11.711,10.013
						c1.251,0.819,2.578,1.635,3.37,2.904c0.792,1.268,0.843,3.147-0.318,4.09c-1.015,0.824-2.486,0.643-3.771,0.403
						c-9.837-1.839-19.499-4.618-28.809-8.288c-0.558-0.22-1.148-0.469-1.485-0.966c-0.269-0.398-0.333-0.896-0.365-1.374
						C508.179,701.901,509.62,697.952,512.308,695.162z"/>
					<path style="fill:#6D8699;" d="M517.607,576.243c1.667-36.853-1.834-74.439-1.529-111.521
						c-1.096-12.854,0.681-25.945,5.198-38.03c0.28-0.75,0.585-1.518,1.143-2.092c1.732-1.783,4.695-0.835,6.994,0.112
						c22.042,9.085,48.075,6.946,68.171-5.881c3.969,6.046,5.109,13.464,6.088,20.63c1.583,11.585,3.318,23.148,3.743,34.784
						c0.001,0.022,0.004,0.044,0.005,0.066l-0.002,0c0.09,2.499,0.141,5,0.093,7.507c-0.277,14.504-3.077,28.796-5.265,43.092
						c-1.427,9.326-2.683,18.716-2.802,28.165c-0.098,7.733,0.987,14.801-0.743,22.372c-4.261,18.645-4.272,38.957-6.073,58.006
						c-1.929,20.399-3.835,40.802-5.412,61.232c-0.063,0.814-0.125,1.627-0.187,2.441c-1.029,0.275-16.744,3.892-16.744-0.177
						c-1.26-39.655-2.52-79.309-3.78-118.964c-0.53-16.687-1.095-33.617-5.325-49.516c-1.743,0.175-3.487,0.349-5.23,0.523
						c-9.582,52.475-19.164,104.95-28.746,157.425c-0.844,4.621,1.252,10.106-1.794,13.083c-3.046,2.977-11.852,1.643-12.752-2.962
						C515.47,656.444,515.792,616.361,517.607,576.243z"/>
				</g>
				<path style="fill:#C89A81;" d="M576.261,234.102c0.055-2.332,0.091-4.761-0.849-6.876c-2.135-4.803-8.068-5.901-13.105-6.375
					c-10.497-0.988-22.859-1.194-29.421,7.446c-0.601,0.791-1.58,1.736-2.363,1.146c0.183,7.07,0.366,14.141,0.549,21.211
					c0.207,7.991,0.576,16.513,5.011,23.018c2.628,3.854,6.442,6.606,10.199,9.241c2.953,2.07,6.166,4.197,9.719,4.12
					c5.299-0.115,9.248-4.949,12.457-9.367c1.631-2.246,3.273-4.51,4.454-7.046c2.579-5.539,2.773-11.92,2.917-18.08
					C575.973,246.393,576.117,240.248,576.261,234.102z"/>
				<path style="fill:#333333;" d="M589.817,224.028c1.219-2.006-0.71-4.526-2.8-5.595c2.402-1.807,0.811-6.501-2.195-6.476
					c0.917-2.172,0.026-4.95-1.983-6.184c-2.009-1.234-4.889-0.773-6.413,1.026c0.104-1.3-0.065-2.621-0.492-3.853
					c-2.498-0.379-5.153,0.473-6.964,2.235c-0.439-3.011-4.825-4.5-7.006-2.378c0.087-1.596-1.782-2.723-3.364-2.501
					c-1.583,0.222-2.874,1.333-4.067,2.396c0.148-1.949-2.105-3.44-4.029-3.096c-1.924,0.345-3.384,1.964-4.272,3.705
					c-2.43-1.315-5.4-1.594-8.032-0.752c-0.1,0.95-0.201,1.9-0.301,2.85c-3.294-2.336-8.372-1.584-10.853,1.601
					c-1.382,0.223-2.679,1.097-3.204,2.406c-0.719,1.793,0.171,3.99,1.794,4.977c-1.753-0.502-3.853,0.192-4.806,1.775
					c-0.701,1.165-0.686,2.658-0.129,3.89c-2.378,0.656-4.421,1.874-5.149,4.147c-0.707,2.207,0.295,4.554,2,6.191
					c0.126,0.492,0.337,0.951,0.684,1.338c0.561,0.625,1.549,0.755,2.319,0.503c0.216,0.079,0.435,0.147,0.655,0.212
					c-0.022,0.892,0.299,1.797,0.929,2.432c0.722,0.273,1.563,0.212,2.237-0.163c0.053,0.638,0.338,1.233,0.755,1.717
					c0.061,0.245,0.135,0.488,0.213,0.727c0.644,1.982,1.288,3.965,1.933,5.947c0.708,2.179,1.416,4.358,2.125,6.538
					c0.816,0.023,1.633,0.046,2.449,0.068c-0.287-4.03-0.434-8.07-0.449-12.111c0.54,0.337,1.188,0.534,1.799,0.452
					c1.739-0.235,3.172-1.516,4.881-1.913c1.312-0.306,3.316-1.252,2.395-2.236c2.362,0.727,4.981,0.586,7.251-0.391
					c1.743,2.341,5.768,2.4,7.58,0.112c2.382,1.268,5.515,0.952,7.595-0.767c1.146,2.469,5.043,3.001,6.808,0.928
					c-0.625,1.324-0.008,3.093,1.303,3.742c1.289,0.638,3.025,0.083,3.724-1.169c0.025,0.016,0.054,0.03,0.08,0.045
					c0.023,0.067,0.046,0.133,0.069,0.199c-0.152,2.804-0.303,5.607-0.455,8.411c-0.08,1.484-0.047,3.225,1.146,4.111
					c0.122,0.09,0.261,0.171,0.413,0.173c0.324,0.004,0.534-0.332,0.673-0.625c1.57-3.317,2.661-6.86,3.237-10.485
					c0.143,0.167,0.313,0.31,0.508,0.401c0.87,0.409,1.894,0.178,2.814-0.099c1.635-0.491,3.352-1.198,4.241-2.656
					c0.494-0.809,0.543-1.887,0.217-2.758c0.88-2.156,1.115-4.561,0.674-6.839c0.045-0.197,0.104-0.391,0.2-0.576
					C588.874,225.051,589.459,224.617,589.817,224.028z"/>
				<path style="fill:#E6E6E6;" d="M595.027,292.841c9.766,11.565,14.025,26.288,16.769,40.762
					c6.669,35.189,5.73,71.19,4.769,106.908c-37.873,3.022-75.746,6.043-113.619,9.064c5.688-41.938,9.251-84.124,10.673-126.373
					c0.234-6.944,0.442-14.047,3.124-20.533c2.682-6.486,8.382-12.349,15.76-13.508c8.186,10.083,26.681,10.679,35.6,1.146
					c1.341-1.434,2.49-3.047,4.082-4.24C579.13,280.863,589.521,286.32,595.027,292.841z"/>
				<g>
					<path style="fill:#E6E6E6;" d="M492.485,478.515c1.199-13.631,3.846-27.172,7.919-40.406
						c3.588-11.661,3.862-21.268,6.455-33.113c2.159-9.864,7.258-21.742,7.937-31.755c1.93-28.475,4.419-57.247,6.349-85.721
						c12.919-1.091,12.567-0.07,12.223,10.737c-0.278,8.735-0.552,17.469-0.828,26.204c14.564,2.664,29.479,3.976,44.385,3.903
						c1.473-0.007,2.645-34.432,3.936-37.504c1.623-3.862,2.861-3.107,7.962-2.75c5.62,0.393,6.275,7.301,6.323,13.162
						c0.21,25.889,12.872,48.396,14.285,74.257c0.912,16.685,2.143,25.367,4.918,41.844c3.164,18.786,2.911,45.762,8.191,64.21
						c0.475,1.89,0.941,3.781,1.448,5.667c1.528,5.674,3.241,11.354,5.562,16.828c0.462,1.378,0.896,2.767,1.37,4.141
						c0.448,1.301,1.217,2.29,2.15,3.056c0.666,1.177,1.366,2.34,2.12,3.482c-23.902-1.034-47.804-2.069-71.706-3.104
						c-11.659-0.505-23.319-1.009-34.978-1.514c-8.966-0.388-19.237-0.479-28.025-1.821c-9.521-1.454-8.762-6.046-8.736-13.544
						C491.761,489.348,492.009,483.924,492.485,478.515z"/>
					<g>
						<path style="fill:#32363D;" d="M549.952,426.231c-1.267-21.165-1.597-42.321-0.815-63.507
							c0.43-11.647-0.475-24.171,0.079-36.336c1.842,0.221,3.679,0.48,5.527,0.655c0.796,13.035-0.051,26.47,0.609,39.172
							c0.917,17.673,1.311,35.378,2.522,53.036c2.1,30.622,5.435,61.31,3.685,91.958c-2.179-0.1-4.358-0.199-6.537-0.299
							C556.189,482.748,551.632,454.289,549.952,426.231z"/>
						<path style="fill:#32363D;" d="M531.852,459.35c-2.971-21.048-4.29-41.232-4.352-62.426
							c-0.069-23.77-2.924-46.767-6.866-69.66c0.977-13.39,1.949-26.778,2.803-40.099c12.219-1.091,11.885-0.07,11.56,10.737
							c-0.263,8.734-0.522,17.469-0.783,26.204c0.674,0.13,1.358,0.218,2.033,0.341c-0.5,11.334,0.186,22.858-0.223,33.931
							c-0.78,21.103-0.883,42.196,0.381,63.289c1.742,29.097,7.004,59.198,5.593,88.649c-3.142-0.144-6.284-0.288-9.426-0.431
							C535.616,493.199,534.239,476.264,531.852,459.35z"/>
						<path style="fill:#32363D;" d="M506.107,427.984c1.431-7.673,2.082-14.95,3.82-23.343c1.013-4.892,2.709-10.28,4.24-15.69
							c0.055,2.65,0.08,5.306,0.06,7.973c-0.16,21.206,1.505,41.381,4.352,62.426c2.266,16.761,3.906,33.461,0.603,49.971
							c-1.899-0.087-3.796-0.198-5.68-0.329C512.992,481.829,509.866,454.887,506.107,427.984z"/>
						<path style="fill:#333333;" d="M496.334,478.161c0.314-3.773,0.757-7.536,1.28-11.29c1.341,13.326,2.248,26.687,2.565,40.098
							c-5.048-2.077-4.567-6.3-4.547-12.55C495.649,488.994,495.884,483.57,496.334,478.161z"/>
						<path style="fill:#32363D;" d="M587.445,287.754c3.251,0.24,4.74,2.921,5.421,6.305c-0.202,3.076-0.427,6.156-0.68,9.245
							c-2.094,25.609-1.617,51.277-0.041,76.9c1.672,27.191,3.515,54.388,7.098,81.431c1.622,12.248,2.828,24.228,3.095,36.557
							c0.11,5.072,0.373,10.046,1.176,14.939l-7.021-0.321c-0.758-41.976-5.93-83.514-8.029-125.427
							c-1.628-32.509-5.111-64.663-8.535-96.91C581.457,286.653,582.637,287.399,587.445,287.754z"/>
						<path style="fill:#32363D;" d="M615.412,486.772c-0.687-11.393-2.655-22.715-4.056-34.049
							c-3.162-25.565-4.84-51.38-6.198-77.074c-0.307-5.804-0.446-11.608-0.484-17.411c1.114,5.529,1.963,11.146,2.262,16.935
							c0.862,16.685,2.026,25.367,4.651,41.844c2.993,18.786,2.753,45.762,7.746,64.21c0.449,1.89,0.89,3.781,1.37,5.667
							c1.445,5.673,3.065,11.354,5.26,16.828c0.437,1.378,0.847,2.767,1.295,4.141c0.424,1.301,1.151,2.29,2.034,3.057
							c0.63,1.176,1.292,2.34,2.005,3.483l-14.096-0.645C615.362,504.918,615.965,495.952,615.412,486.772z"/>
						<path style="fill:#32363D;" d="M575.19,387.381c2.323,41.702,7.254,83.054,8.023,124.82c-2.809-0.129-5.617-0.257-8.426-0.386
							c1.879-32.32-2.035-64.6-3.919-96.925c-1.118-19.194-1.836-38.427-2.685-57.633c-0.428-9.691-0.094-19.594-0.463-29.413
							c1.299,0.044,2.598,0.083,3.896,0.114C573.703,347.708,574.086,367.557,575.19,387.381z"/>
					</g>
				</g>
				<path style="fill:#E6E6E6;" d="M522.223,292.552c-2.074,17.08-4.147,34.16-6.221,51.239c-1.91-0.725-3.592,1.468-4.365,3.359
					c-4.964,12.145-5.483,27.302-15.888,35.294c-6.086-5.826-12.171-11.652-18.257-17.478
					c10.725-13.779,19.049-29.421,24.486-46.014c1.834-5.597,3.375-11.374,6.427-16.411
					C511.457,297.504,516.369,293.195,522.223,292.552z"/>
			</g>
		</g>
	</g>
	<path style="fill:#4D4D4D;" d="M305.461,447.146c-1.02-16.605-2.5-33.146-4.185-49.635c-1.631-15.964-3.689-31.831-5.957-47.629
		c-1.388-9.663-1.89-18.873-8.201-24.065c-6.558-5.394-18.978-1.874-26.174-1.912c-46.128-0.243-92.441,2.188-138.645,3.187
		c-2.343,0.051-4.898,0.176-6.659,1.643c-1.265,1.053-1.888,2.623-2.41,4.141c-3.59,10.441-4.603,21.496-5.591,32.437
		c-0.968,10.71-13.144,99.767-4.728,100.684c45.464,4.949,91.585,3.561,137.163,4.202c11.431,0.16,22.863,0.282,34.294,0.384
		c5.081,0.046,10.161,0.081,15.242,0.115c2.901,0.019,8.372,0.972,11.03-1.792C306.25,463.071,306.048,456.7,305.461,447.146z"/>
	<g>
		<g>
			<path style="fill:#774977;" d="M375.58,423.333c6.514-0.468,13.028-0.936,19.542-1.405c0.045,8.261-0.058,16.531-0.308,24.754
				c-6.395-0.185-12.794,0.822-19.154,3.015C375.634,440.909,375.607,432.121,375.58,423.333z"/>
			<path style="fill:#9AC1AB;" d="M385.357,423.333c6.514-0.468,13.028-0.936,19.542-1.405c0.045,8.261-0.058,16.531-0.308,24.754
				c-6.395-0.185-12.794,0.822-19.154,3.015C385.411,440.909,385.384,432.121,385.357,423.333z"/>
			<path style="fill:#E5DBB0;" d="M395.698,423.333c6.514-0.468,13.028-0.936,19.542-1.405c0.045,8.261-0.058,16.531-0.308,24.754
				c-6.395-0.185-12.794,0.822-19.154,3.015C395.752,440.909,395.725,432.121,395.698,423.333z"/>
		</g>
		<path style="fill:#E5DBD1;" d="M363.809,440.339c21.06-0.468,42.12-0.936,63.18-1.405c0.145,8.261-0.187,16.531-0.995,24.754
			c-20.676-0.185-41.363,0.822-61.923,3.015C363.984,457.915,363.896,449.127,363.809,440.339z"/>
	</g>
	<g>
		<g>
			<path style="fill:#F4F3E9;" d="M678.718,720.261c-11.623,6.917-32.538,7.122-45.427,7.128
				c-120.151,0.064-240.301,0.129-360.452,0.193c-26.049,0.014-52.099,0.028-78.149,0.042c-22.555,0.012-72.509,5.513-92.053-3.508
				c-14.526-6.705-7.508-22.215-8.045-33.552c-0.568-11.727-1.012-23.457-1.332-35.19c-0.666-24.442-0.794-48.892-0.384-73.337
				c0.411-24.492,0.141-49.033,2.853-73.446c2.853-25.686-0.923-26.488,12.956-26.675c22.797-0.306,52.655-0.454,75.212-1.88
				c54.442-3.443,109.165-2.984,163.752-2.537c95.908,0.787,191.816,1.573,287.724,2.36c13.087,0.107,34.448,1.085,45.937,3.018
				c11.996,2.018,11.996,2.018,11.365,10.029c-1.473,18.702-5.387,44.199-4.464,61.538c1.029,19.33,1.574,38.674,1.635,58.018
				c0.051,16.305-0.242,32.611-0.879,48.91c-0.589,15.059,3.598,37.4-3.168,51.602C684.364,715.991,681.886,718.375,678.718,720.261
				z"/>
			<path style="fill:#808080;" d="M690.803,694.253c-0.589,7.769,3.598,19.295-3.168,26.622c-1.436,1.556-3.914,2.786-7.083,3.759
				c-11.623,3.568-32.538,3.674-45.427,3.678c-120.151,0.033-240.301,0.066-360.452,0.1c-26.05,0.007-52.099,0.014-78.149,0.022
				c-22.555,0.006-72.509,2.844-92.053-1.81c-14.526-3.459-7.508-11.461-8.045-17.31c-0.568-6.05-0.692-6.049-1.012-12.102
				L690.803,694.253z"/>
		</g>
		<path style="fill:#E6E6E6;" d="M666.713,514.108c-45.297-1.309-90.852-0.15-136.175-0.145
			c-46.957,0.005-93.914,0.038-140.871,0.067c-92.353,0.058-184.697,0.111-277.046,0.778c-4.3,0.031-4.3,5.775,0,5.806
			c92.349,0.667,184.694,0.72,277.046,0.778c45.391,0.029,90.783,0.062,136.175,0.067c46.886,0.005,94.012,1.21,140.871-0.145
			C672.048,521.162,672.048,514.263,666.713,514.108z"/>
		<path style="fill:#E6E6E6;" d="M665.184,551.383c-45.297-1.309-90.852-0.15-136.175-0.145
			c-46.957,0.005-93.914,0.038-140.871,0.067c-92.353,0.058-184.697,0.111-277.046,0.778c-4.3,0.031-4.3,5.775,0,5.806
			c92.349,0.667,184.694,0.72,277.046,0.778c45.391,0.029,90.783,0.062,136.175,0.067c46.886,0.005,94.012,1.21,140.871-0.145
			C670.52,558.437,670.52,551.538,665.184,551.383z"/>
		<path style="fill:#E6E6E6;" d="M663.655,588.658c-45.297-1.309-90.851-0.15-136.175-0.145
			c-46.957,0.005-93.914,0.038-140.871,0.067c-92.353,0.058-184.697,0.111-277.046,0.778c-4.3,0.031-4.3,5.775,0,5.806
			c92.349,0.667,184.694,0.72,277.046,0.778c45.391,0.029,90.783,0.062,136.175,0.067c46.886,0.005,94.012,1.21,140.871-0.145
			C668.991,595.711,668.991,588.813,663.655,588.658z"/>
		<path style="fill:#E6E6E6;" d="M662.127,625.933c-45.297-1.309-90.851-0.15-136.175-0.145
			c-46.957,0.005-93.914,0.038-140.871,0.067c-92.353,0.058-184.697,0.111-277.046,0.778c-4.3,0.031-4.3,5.775,0,5.806
			c92.349,0.667,184.694,0.72,277.046,0.778c45.391,0.029,90.783,0.062,136.175,0.067c46.886,0.005,94.012,1.21,140.871-0.145
			C667.463,632.986,667.463,626.087,662.127,625.933z"/>
		<path style="fill:#E6E6E6;" d="M660.598,663.208c-45.297-1.309-90.851-0.15-136.175-0.145
			c-46.957,0.006-93.914,0.038-140.871,0.067c-92.353,0.058-184.697,0.111-277.046,0.778c-4.3,0.031-4.3,5.775,0,5.806
			c92.349,0.667,184.694,0.72,277.046,0.778c45.391,0.029,90.783,0.062,136.175,0.067c46.886,0.005,94.012,1.21,140.871-0.145
			C665.934,670.261,665.934,663.362,660.598,663.208z"/>
	</g>
	<g>
		<g>
			<path style="fill:#EBCC58;" d="M597.104,566.331c-1.472-6.987-1.879-14.198-1.201-21.307
				c33.495-8.078,68.502,0.976,102.957,0.876c-0.008,6.296-0.015,12.592-0.022,18.888
				C665.02,567.718,630.994,568.234,597.104,566.331z"/>
			<path style="fill:#EBCC58;" d="M591.916,774.326c3.168-0.252,6.335-0.504,9.503-0.756c-1.002-69.521,1.557-139.178,7.661-208.556
				c-2.9-2.452-7.563-0.624-9.704,2.695c-2.141,3.319-2.446,7.539-2.672,11.53C593.017,644.229,591.42,709.309,591.916,774.326z"/>
			<path style="fill:#EBCC58;" d="M698.997,717.527c1.763-51.431,3.5-103.384-3.951-154.005c-4.475,0.183-8.951,0.366-13.426,0.549
				c3.215,72.506,4.93,145.117,5.14,217.734c3.287,1.388,6.948-1.424,8.629-5.232s1.869-8.338,2.018-12.688
				C697.937,748.432,698.467,732.979,698.997,717.527z"/>
			<path style="fill:#EBCC58;" d="M653.38,689.967c1.371-43.746,2.721-87.938-3.071-130.996c-3.479,0.156-6.958,0.311-10.436,0.467
				c2.499,61.673,3.832,123.435,3.996,185.203c2.555,1.18,5.401-1.211,6.708-4.45c1.307-3.239,1.453-7.092,1.569-10.792
				C652.557,716.254,652.969,703.111,653.38,689.967z"/>
			<path style="fill:#EBCC58;" d="M685.731,557.173c-2.982-2.893-6.93-4.572-10.894-5.817c-18.422-5.784-38.289-3.364-57.438-0.888
				c-2.12,0.274-4.307,0.57-6.147,1.659c-2.286,1.353-3.736,3.752-4.882,6.149c-3.937,8.235-5.369,17.648-4.057,26.681
				c9.572-7.82,19.916-15.666,32.125-17.591c13.668-2.156,27.236,3.452,39.939,8.939c5.881,2.54,11.761,5.08,17.642,7.62
				C692.532,574.476,692.524,563.763,685.731,557.173z"/>
		</g>
		<path style="fill:#D3B453;" d="M689.46,690.527c-9.463-6.09-18.927-12.181-28.39-18.271c-5.34-3.437-8.978-5.673-15.078-3.057
			c-18.292,7.844-37.318,16.237-49.897,32.317c-2.204,2.818,1.56,6.846,4.029,4.029c1.004-1.146,2.056-2.211,3.104-3.281
			c0.296,0.253,0.686,0.412,1.188,0.378c28.014-1.911,55.297-6.465,83.527-6.513C691.021,696.123,691.929,692.116,689.46,690.527z
			 M650.13,673.986c3.375-1.309,11.565,5.815,14.214,7.521c4.492,2.891,8.984,5.782,13.476,8.673
			c-23.169,0.272-47.751,1.618-69.916,7.656c9.439-8.253,20.31-14.177,31.991-19.475
			C643.267,676.831,646.678,675.325,650.13,673.986z"/>
	</g>
	<g>
		<g>
			<path style="fill:#EBCC58;" d="M392.276,563.791c-1.472-6.987-1.879-14.198-1.201-21.307
				c33.495-8.078,68.502,0.976,102.957,0.876c-0.007,6.296-0.015,12.592-0.022,18.888
				C460.193,565.178,426.167,565.694,392.276,563.791z"/>
			<path style="fill:#EBCC58;" d="M387.089,771.785c3.168-0.252,6.335-0.504,9.503-0.756c-1.002-69.521,1.557-139.179,7.661-208.556
				c-2.9-2.452-7.563-0.624-9.704,2.695c-2.141,3.319-2.446,7.539-2.673,11.531C388.19,641.689,386.593,706.769,387.089,771.785z"/>
			<path style="fill:#EBCC58;" d="M494.169,714.986c1.763-51.431,3.5-103.384-3.951-154.005c-4.475,0.183-8.951,0.366-13.426,0.549
				c3.215,72.506,4.93,145.117,5.14,217.734c3.287,1.388,6.948-1.424,8.629-5.232c1.681-3.808,1.869-8.338,2.018-12.688
				C493.109,745.891,493.639,730.439,494.169,714.986z"/>
			<path style="fill:#EBCC58;" d="M448.553,687.426c1.371-43.746,2.721-87.938-3.071-130.996c-3.479,0.156-6.958,0.311-10.436,0.467
				c2.5,61.673,3.832,123.435,3.996,185.203c2.555,1.18,5.401-1.211,6.708-4.45c1.307-3.239,1.453-7.092,1.569-10.792
				C447.729,713.714,448.141,700.57,448.553,687.426z"/>
			<path style="fill:#EBCC58;" d="M480.903,554.633c-2.982-2.893-6.93-4.572-10.894-5.816c-18.422-5.784-38.289-3.364-57.438-0.889
				c-2.12,0.274-4.307,0.57-6.147,1.659c-2.286,1.353-3.736,3.752-4.882,6.149c-3.938,8.235-5.369,17.648-4.057,26.681
				c9.572-7.82,19.916-15.666,32.125-17.591c13.668-2.156,27.236,3.452,39.939,8.939c5.881,2.54,11.761,5.08,17.642,7.62
				C487.704,571.936,487.697,561.222,480.903,554.633z"/>
		</g>
		<path style="fill:#D3B453;" d="M484.632,687.986c-9.463-6.09-18.927-12.181-28.39-18.271c-5.34-3.437-8.978-5.673-15.078-3.057
			c-18.292,7.844-37.319,16.237-49.897,32.317c-2.204,2.818,1.56,6.846,4.029,4.029c1.004-1.146,2.056-2.211,3.104-3.281
			c0.296,0.253,0.686,0.412,1.188,0.378c28.014-1.911,55.297-6.465,83.527-6.513C486.194,693.583,487.101,689.575,484.632,687.986z
			 M445.302,671.446c3.375-1.308,11.565,5.815,14.214,7.521c4.492,2.891,8.984,5.782,13.476,8.673
			c-23.169,0.272-47.751,1.618-69.916,7.656c9.439-8.253,20.31-14.177,31.991-19.475C438.439,674.29,441.85,672.784,445.302,671.446
			z"/>
	</g>
	<path style="fill:#BCA48E;" d="M90.301,470.698c1.636,6.673-5.658,13.345-4.022,20.018c209.327-0.285,424.924-0.084,633.988-2.495
		c2.635-5.964,2.053-12.672-1.241-19.443c-135.565-4.408-274.7,0.991-410.074-0.896C236.077,466.866,163.185,469.759,90.301,470.698
		z"/>
	<g>
		<path style="fill:#E5DBB0;" d="M330.246,399.202c-2.428,0.209-4.981,0.58-6.894,2.09c-2.42,1.91-3.251,5.165-3.816,8.195
			c-2.685,14.407-2.678,29.311,0.02,43.716c0.649,3.466,1.664,7.228,4.568,9.227c2.149,1.48,4.902,1.675,7.507,1.822
			c5.151,0.291,10.302,0.582,15.453,0.873c3.289,0.186,6.822,0.313,9.607-1.448c3.952-2.498,4.917-7.753,5.382-12.405
			c1.285-12.854,1.59-25.806,0.91-38.707c-0.192-3.641-0.701-7.743-3.611-9.939c-1.368-1.032-3.081-1.475-4.755-1.842
			C346.634,399.038,338.388,398.502,330.246,399.202z"/>
		<path style="fill:#988955;" d="M329.052,397.32c-2.524,0.055-5.177,0.154-7.166,0.553c-2.516,0.505-3.379,1.366-3.967,2.167
			c-2.791,3.81-2.784,7.752,0.021,11.561c0.675,0.917,1.73,1.912,4.748,2.44c2.234,0.391,5.095,0.443,7.803,0.482
			c5.354,0.077,10.709,0.154,16.063,0.231c3.419,0.049,7.092,0.083,9.986-0.383c4.108-0.66,5.111-2.05,5.594-3.281
			c1.336-3.399,1.652-6.825,0.946-10.236c-0.199-0.963-0.729-2.048-3.754-2.629c-1.422-0.273-3.202-0.39-4.942-0.487
			C346.087,397.276,337.515,397.135,329.052,397.32z"/>
	</g>
	<g>
		<path style="fill:#EADDD0;" d="M814.09,320.765c-0.155,4.09-0.046,8.19,0.326,12.266c0.535,5.864,1.659,11.801,4.555,16.927
			c2.897,5.126,7.806,9.37,13.622,10.291c8.082,1.28,16.037-4.143,20.26-11.152c4.223-7.009,5.506-15.344,6.706-23.438
			c0.365-2.463,0.73-4.926,1.095-7.389c0.368-2.481,0.552-5.462-1.409-7.025c-4.226-3.367-11.968,3.845-16.716,4.743
			c-6.751,1.275-12.365,1.172-18.967-0.456C818.956,314.397,814.325,314.563,814.09,320.765z"/>
		<path style="fill:#EADDD0;" d="M738.344,435.523c3.274,2.033,11.996,0.117,11.372-3.68c0.202,1.228,0.843,2.806,2.076,2.631
			c0.769-0.109,1.228-0.886,1.608-1.563c1.627-2.9,3.844-5.467,6.474-7.501c0.241-0.186,0.48-0.378,0.732-0.552
			c7.18-4.986,14.009-10.454,21.144-15.502c7.143-5.054,14.577-9.211,21.393-14.71c1.988-1.604,3.976-3.208,5.946-4.832
			c2.055-1.694,4.091-3.411,6.107-5.15c2.374-2.047,6.64-5.155,7.757-8.244c1.175-3.248-1.028-8.169-4.287-9.27
			c-5.109-1.726-9.489,4.177-12.935,6.95c-4.766,3.834-9.535,7.665-14.302,11.497c-6.493,2.873-13.086,10.519-18.651,14.993
			c-5.972,4.801-11.608,9.058-16.769,14.712c-2.646,2.898-5.324,5.824-8.561,8.043c-2.333,1.599-4.948,2.825-6.987,4.785
			C736.388,432.048,736.526,434.395,738.344,435.523z"/>
		<path style="fill:#EADDD0;" d="M797.521,388.047c0.534,0.329,1.142,0.504,1.792,0.583c2.094-0.265,4.062-0.994,5.606-2.51
			c2.9-2.846,3.969-7.336,4.776-11.176c1.159-5.518,1.662-11.343,3.036-16.868c0.376-3.537,1.237-7.097,2.23-10.476
			c2.847-9.695,8.023-23.689-2.24-30.924c-2.902-2.046-7.18-0.704-9.514,1.971c-2.335,2.676-3.214,6.285-4.018,9.744
			c-3.44,14.797-3.248,30.628-3.438,45.85C795.707,377.704,794.109,385.945,797.521,388.047z"/>
		<g>
			<path style="fill:#EADDD0;" d="M825.846,244.745c-2.308,0.848-4.115,2.666-5.705,4.542c-7.268,8.577-11.624,19.58-12.195,30.808
				c-0.137,2.693-0.055,5.447,0.82,7.998c0.941,2.744,2.747,5.102,4.663,7.279c4.479,5.09,9.737,9.494,15.534,13.011
				c0.999,0.606,2.055,1.2,3.219,1.309c1.431,0.134,2.815-0.481,4.109-1.104c3.556-1.711,7.029-3.596,10.401-5.646
				c3.054-1.856,6.115-3.936,8.034-6.951c2.304-3.619,2.67-8.105,2.868-12.39c0.146-3.165,0.236-6.333,0.27-9.501
				c0.024-2.286,0.017-4.59-0.421-6.834c-0.92-4.711-3.714-8.906-7.214-12.191c-3.5-3.285-7.689-5.74-11.948-7.954
				C834.422,245.115,829.931,243.245,825.846,244.745z"/>
			<g>
				<path style="fill:#333333;" d="M813.629,262.015c-1.082,0.843-1.949,1.956-2.436,3.763c-0.591,2.196-0.472,4.514-0.308,6.782
					c0.44,6.107,1.19,12.285,3.52,17.947c1.02,2.48,3.719,6.852,2.804,9.658c-1.085,3.325-4.994-1.243-6.631-2.933
					c-4.661-4.812-7.683-11.088-9.378-17.519c-1.926-7.309-2.314-15.084-0.587-22.443c1.727-7.358,5.633-14.273,11.403-19.155
					c7.745-6.553,18.6-9.061,28.556-7.11c9.956,1.95,18.895,8.173,24.66,16.521c2.005,2.904,3.664,6.099,4.419,9.546
					c0.652,2.978,0.614,6.071,0.265,9.1c-1.455,12.654-8.531,24.556-18.952,31.879c1.621-9.191,1.487-18.689-0.394-27.831
					c-0.25-1.213-0.546-2.458-1.278-3.457c-0.703-0.961-1.746-1.61-2.788-2.186c-3.381-1.87-7.033-3.234-10.328-5.251
					c-3.295-2.017-6.313-4.857-7.436-8.553c-2.872,3.19-6.318,5.849-9.888,8.21C816.993,260.212,815.11,260.861,813.629,262.015z"/>
				<path style="fill:#333333;" d="M871.637,230.499c-1.151,7.226-6.415,13.65-13.274,16.199c-6.858,2.549-15.04,1.122-20.631-3.598
					c-2.416-8.932-4.415-19.702,1.951-26.417c3.833-4.043,9.666-5.326,15.129-6.412c3.125-0.621,6.502-1.215,9.386,0.139
					c2.588,1.216,4.266,3.79,5.423,6.405C871.513,221.089,872.372,225.882,871.637,230.499z"/>
			</g>
		</g>
		<g>
			<path style="fill:#F2E7D6;" d="M834.494,633.817c-5.628,0.216-11.209,1.56-16.319,3.928c1.94,28.147,3.708,56.306,5.302,84.475
				c2.235-0.008,4.47-0.016,6.706-0.025C831.62,692.736,833.057,663.277,834.494,633.817z"/>
			<path style="fill:#F2E7D6;" d="M874.182,633.561c-5.791,0.222-11.534,1.605-16.792,4.042c1.997,28.963,3.815,57.939,5.456,86.924
				c2.3-0.008,4.6-0.017,6.9-0.025C871.225,694.188,872.704,663.875,874.182,633.561z"/>
			<path style="fill:#736357;" d="M861.136,725.33c4.888-0.394,9.825-0.186,14.663,0.618c3.73,2.777,7.816,5.073,12.127,6.816
				c1.252,0.506,2.57,0.997,3.494,1.981c0.924,0.985,1.298,2.64,0.435,3.678c-0.755,0.907-2.089,1.005-3.269,1.018
				c-9.035,0.095-18.079-0.674-26.969-2.293c-0.533-0.097-1.099-0.214-1.484-0.596c-0.308-0.305-0.452-0.735-0.564-1.153
				C858.66,732.022,859.244,728.272,861.136,725.33z"/>
			<path style="fill:#736357;" d="M832.495,720.877c-4.903-0.1-9.819,0.405-14.599,1.498c-3.556,2.996-7.497,5.534-11.695,7.532
				c-1.219,0.58-2.505,1.149-3.368,2.188c-0.863,1.038-1.137,2.713-0.213,3.698c0.808,0.86,2.146,0.878,3.324,0.819
				c9.025-0.448,18.006-1.758,26.782-3.908c0.526-0.129,1.085-0.28,1.446-0.684c0.289-0.323,0.407-0.761,0.494-1.185
				C835.368,727.408,834.56,723.7,832.495,720.877z"/>
			<path style="fill:#685C65;" d="M880.282,521.63c1.097-11.524,2.164-23.051,3.204-34.58c0.197-2.185,0.352-4.549-0.813-6.408
				c-0.923-1.472-2.521-2.362-4.073-3.144c-20.218-10.19-44.389-12.258-66.044-5.651c-2.391,0.729-4.871,1.64-6.482,3.55
				c-2.347,2.783-2.201,6.825-1.931,10.455c2.934,39.415,7.274,79.077,7.274,118.692c0.547,11.691,1.096,23.389,2.246,35.036
				c1.345,13.62,3.514,27.158,6.492,40.516c4.493,0.694,9.064,0.879,13.598,0.549c3.652-39.378,5.725-78.902,6.23-118.446
				c0.797-1.912,1.679-3.641,2.653-5.107c1.57,2.57,3.311,6.93,5.073,11.519c0.653,13.939,1.306,27.878,1.958,41.817
				c0.548,11.691,1.096,23.388,2.247,35.036c1.345,13.62,3.514,27.158,6.491,40.516c4.493,0.694,9.064,0.879,13.598,0.549
				c3.146-33.922,5.127-67.952,5.939-102.01c0.386-16.193-0.599-32.56,0.964-48.6C879.37,531.158,879.829,526.395,880.282,521.63z"
				/>
		</g>
		<path style="fill:#EFBF6A;" d="M816.404,312.504c1.345,10.399,2.691,20.797,4.036,31.196c4.311,3.094,8.765,6.254,13.923,7.5
			c5.158,1.246,11.256,0.13,14.475-4.089c1.695-2.222,2.415-5.019,3.034-7.745c2.613-11.512,4.129-23.273,4.519-35.071
			c3.74-1.295,7.98,0.757,10.437,3.86c2.457,3.103,3.526,7.049,4.536,10.875c2.523,9.552,5.046,19.103,7.568,28.655
			c2.179,8.251,4.358,16.501,6.537,24.752c6.34,24.004,12.68,48.008,18.932,72.035c2.125,8.167,4.256,16.47,4.026,24.906
			c-0.231,8.436-3.143,17.174-9.584,22.628c-19.739-11.352-42.625-15.777-65.148-19.121c-7.957-1.181-16.163-2.239-23.968-0.291
			c-3.724,0.93-13.164,9.538-15.865,8.617c-6.269-2.139-0.896-12.252,0.296-16.796c11.807-45.023,14.671-91.04,13.057-137.367
			c-0.115-3.349-0.204-6.838,1.189-9.886C809.796,314.115,813.155,311.684,816.404,312.504z"/>
		<path style="fill:#EADDD0;" d="M867.526,388.398c0.601,0.284,1.261,0.397,1.954,0.404c2.173-0.524,4.159-1.522,5.606-3.298
			c2.719-3.335,3.318-8.186,3.717-12.323c0.573-5.943,0.421-12.133,1.22-18.109c-0.018-3.767,0.471-7.614,1.12-11.287
			c1.862-10.538,5.67-25.873-5.98-32.286c-3.294-1.813-7.639,0.099-9.783,3.189c-2.144,3.09-2.646,6.992-3.088,10.726
			c-1.887,15.977,0.169,32.617,1.752,48.66C864.405,377.723,863.688,386.585,867.526,388.398z"/>
		<g>
			<path style="fill:#3D3C3B;" d="M785.446,529.253c-1.079,3.248-2.169,6.558-2.232,9.98c-0.174,9.407,8.827,17.937,18.211,17.259
				c7.688-20.191,12.92-41.315,15.542-62.761c0.27-2.21,1.875-4.118,4.071-4.483c2.507-0.418,3.821,1.541,4.885,3.32
				c13.461,22.512,24.673,46.368,33.416,71.098c8.482,0.159,16.997-2.086,24.298-6.408l-23.309-47.95
				c-6.563-5.925-12.285-12.78-16.943-20.296c-2.797-4.513-5.292-9.362-9.298-12.847c-7.82-6.804-20.911-6.349-28.24,0.982
				c-4.535,4.536-6.7,10.86-8.722,16.947C793.232,505.814,789.339,517.534,785.446,529.253z"/>
			<path style="fill:#333333;" d="M799.983,490.906c8.626-5.876,12.153-11.337,22.126-9.918c5.928,0.844,11.731,3.019,17.704,2.964
				c11.427-0.105,24.045-8.007,33.407-0.544c8.811,7.023,7.482,21.998,5.739,34.086c-3.986,27.646-2.862,31.419-0.678,56.383
				c0.205,2.348,2.752,3.731,4.823,2.606c11.714-6.366,13.545-4.562,20.159-18.584c4.715-9.996,4.595-18.313,5.994-29.547
				c1.404-11.278-0.717-22.697-2.828-33.831c-2.259-11.918-5.101-24.903-13.717-32.14c-4.207-3.534-9.355-5.262-14.434-6.669
				c-13.679-3.789-27.752-5.73-41.829-5.769c-10.601-0.029-20.568,3.911-30.699,7.463
				C788.825,463.34,790.257,478.774,799.983,490.906z"/>
			<path style="fill:#3A3A3A;" d="M813.058,466.292c-0.942,0.725-1.794,1.608-2.291,2.687c-0.623,1.353-0.642,2.897-0.617,4.385
				c0.057,3.504,0.325,6.999,0.797,10.471c0.328,2.413,0.762,5.002,2.374,6.851c1.522,1.745,4.432,2.484,6.175,0.96
				c0.838-0.733,1.685-1.987,2.715-1.566l1.386,2.259c1.02,0.797,2.624-0.007,3.152-1.189c0.528-1.182,0.337-2.541,0.246-3.833
				c-0.324-4.622,0.774-9.211,1.201-13.824c0.252-2.715,0.134-5.798-1.846-7.672c-0.699-0.662-1.578-1.108-2.487-1.424
				C820.263,463.147,816.077,463.966,813.058,466.292z"/>
			<g style="opacity:0.59;">
				<path style="fill:#FFFFFF;" d="M812.958,503.455c-5.572,0.028-11.956,0.326-17.227-1.788c-0.271-0.109-0.456,0.34-0.198,0.469
					c2.133,1.067,4.711,1.386,7.052,1.697c3.422,0.454,6.926,0.728,10.373,0.422C813.463,504.21,813.481,503.452,812.958,503.455z"
					/>
				<path style="fill:#FFFFFF;" d="M811.905,518.605c-3.401,0.363-6.752,0.347-10.143-0.126c-3.399-0.474-8.154-1.231-10.306-4.168
					c-0.189-0.258-0.623-0.018-0.438,0.256c1.792,2.646,5.102,3.392,8.039,4.1c4.184,1.009,8.586,1.16,12.848,0.658
					C812.359,519.271,812.368,518.555,811.905,518.605z"/>
				<path style="fill:#FFFFFF;" d="M808.175,533.792c-3.734,0.483-7.417,0.488-11.144-0.067c-1.596-0.237-3.164-0.632-4.713-1.078
					c-2.023-0.582-5.145-1.301-6.35-3.169c-0.171-0.265-0.584-0.028-0.425,0.248c1.606,2.8,6.852,3.725,9.715,4.386
					c4.256,0.982,8.71,1.076,13.023,0.457C808.721,534.507,808.617,533.735,808.175,533.792z"/>
				<path style="fill:#FFFFFF;" d="M802.521,547.097c-2.398,1.436-4.962,1.558-7.674,1.309c-1.474-0.135-2.946-0.423-4.409-0.648
					c-1.339-0.206-2.806-0.243-3.928-1.074c-0.226-0.167-0.522,0.217-0.3,0.389c2.142,1.663,5.958,1.627,8.548,1.985
					c2.852,0.393,5.639,0.172,8.143-1.308C803.322,547.503,802.94,546.846,802.521,547.097z"/>
				<path style="fill:#FFFFFF;" d="M843.694,491.342c-1.401,1.722-3.093,2.954-5.028,4.016c-2.413,1.325-5.211,2.801-8,2.786
					c-0.318-0.002-0.311,0.467,0,0.488c2.519,0.176,4.769-1.019,7.005-2.041c2.491-1.138,4.821-2.572,6.533-4.742
					C844.486,491.492,843.989,490.979,843.694,491.342z"/>
				<path style="fill:#FFFFFF;" d="M855.295,506.478c-3.472,4.474-9.684,8.286-15.221,9.429c-0.316,0.065-0.179,0.532,0.132,0.478
					c3.267-0.573,6.114-2.008,8.902-3.76c2.505-1.574,5.009-3.281,6.764-5.702C856.115,506.586,855.55,506.149,855.295,506.478z"/>
				<path style="fill:#FFFFFF;" d="M866.704,522.826c-4.864,5.171-11,8.725-17.839,10.582c-0.302,0.082-0.174,0.543,0.129,0.468
					c6.986-1.731,13.198-5.401,18.243-10.517C867.577,523.012,867.036,522.472,866.704,522.826z"/>
				<path style="fill:#FFFFFF;" d="M876.518,546.706c-2.336,2.733-4.365,5.791-7.472,7.716c-3.159,1.958-7.151,2.464-10.759,2.973
					c-0.31,0.044-0.237,0.588,0.074,0.547c3.576-0.466,7.107-0.991,10.396-2.544c3.528-1.665,5.956-5.167,8.338-8.114
					C877.422,546.881,876.864,546.302,876.518,546.706z"/>
				<path style="fill:#FFFFFF;" d="M907.768,504.903c-8.898,2.438-17.801,2.581-26.856,0.971c-0.301-0.054-0.433,0.385-0.128,0.464
					c8.888,2.293,18.423,1.938,27.242-0.496C908.631,505.675,908.375,504.737,907.768,504.903z"/>
				<path style="fill:#FFFFFF;" d="M908.019,530.409c-4.633,1.779-9.523,2.048-14.435,2.096c-5.151,0.051-10.312,0.064-15.422-0.671
					c-0.327-0.047-0.477,0.441-0.14,0.506c5.13,0.989,10.357,0.96,15.562,0.956c4.985-0.004,9.959-0.279,14.659-2.077
					C908.742,531.027,908.525,530.215,908.019,530.409z"/>
				<path style="fill:#FFFFFF;" d="M903.17,555.36c-8.062,3.489-16.788,3.412-25.404,3.375c-0.356-0.001-0.352,0.535,0,0.55
					c8.709,0.383,17.679,0.258,25.819-3.216C904.07,555.862,903.652,555.151,903.17,555.36z"/>
				<path style="fill:#FFFFFF;" d="M898.31,469.882c-5.535,8.368-16.748,9.84-25.659,12.525c-0.353,0.107-0.201,0.597,0.149,0.541
					c5.384-0.854,10.931-2.632,16.005-4.61c4.101-1.599,8.039-4.119,10.314-7.983C899.428,469.83,898.641,469.382,898.31,469.882z"
					/>
				<path style="fill:#FFFFFF;" d="M866.899,453.644c-0.259,9.653-3.498,18.352-8.998,26.222c-0.168,0.24,0.221,0.541,0.406,0.313
					c6.012-7.416,9.226-17.046,9.51-26.535C867.836,453.051,866.915,453.053,866.899,453.644z"/>
				<path style="fill:#FFFFFF;" d="M840.149,449.924c-0.036-0.563-0.917-0.566-0.879,0c0.76,11.303-0.238,23.089-7.299,32.413
					c-0.196,0.258,0.248,0.6,0.449,0.346C839.768,473.38,840.893,461.371,840.149,449.924z"/>
				<path style="fill:#FFFFFF;" d="M815.204,454.727c-0.218-0.44-0.855-0.055-0.653,0.382c1.329,2.871,1.83,5.726,1.716,8.88
					c-0.01,0.285,0.464,0.358,0.505,0.068C817.221,460.862,816.636,457.611,815.204,454.727z"/>
			</g>
			<g style="opacity:0.29;">
				<path style="opacity:0.2;fill:#FFFFFF;" d="M810.172,477.311c-5.486,0.609-10.735,2.141-15.668,4.62
					c-0.278,0.14-0.034,0.552,0.243,0.416c4.875-2.396,10.025-3.918,15.425-4.515C810.502,477.796,810.505,477.274,810.172,477.311z
					"/>
				<g style="opacity:0.31;">
					<path style="fill:#FFFFFF;" d="M800.919,490.423c-3.821,18.76-6.436,38.472-15.074,55.79c-0.136,0.273,0.272,0.513,0.409,0.239
						c4.192-8.344,6.814-17.299,9.093-26.325c2.454-9.72,4.76-19.594,6.28-29.509C801.698,490.16,801.015,489.952,800.919,490.423z"
						/>
					<path style="fill:#FFFFFF;" d="M810.259,493.458c-1.239,10.918-2.664,21.815-4.272,32.685
						c-0.736,4.977-1.532,9.945-2.546,14.874c-1.047,5.089-2.048,10.78-5.335,14.959c-0.227,0.289,0.179,0.699,0.407,0.407
						c2.844-3.652,3.862-8.195,4.888-12.62c1.27-5.477,2.142-11.042,2.974-16.6c1.676-11.205,3.116-22.445,4.365-33.706
						C810.775,493.149,810.294,493.153,810.259,493.458z"/>
					<path style="fill:#FFFFFF;" d="M867.514,561.368c-4.8-14.104-9.63-28.228-16.077-41.683
						c-3.097-6.463-6.62-12.721-10.607-18.677c-3.495-5.222-7.509-11.43-12.787-14.985c-0.26-0.176-0.502,0.244-0.245,0.418
						c2.911,1.976,5.094,4.828,7.268,7.552c2.218,2.778,4.266,5.69,6.219,8.659c3.789,5.758,7.059,11.847,10.027,18.062
						c6.284,13.159,10.955,27.023,15.627,40.814C867.061,561.89,867.638,561.734,867.514,561.368z"/>
					<path style="fill:#FFFFFF;" d="M875.303,560.503c-6.154-20.94-14.488-41.119-25.152-60.172
						c-0.15-0.269-0.562-0.028-0.412,0.241c10.568,18.995,19.063,39.168,25.003,60.086
						C874.844,561.018,875.409,560.864,875.303,560.503z"/>
					<path style="fill:#FFFFFF;" d="M898.207,469.684c-17.151-5.887-35.144-8.788-53.239-9.429
						c-17.056-0.604-35.019,0.401-50.653,7.88c-0.283,0.136-0.036,0.548,0.245,0.419c15.777-7.252,33.287-8.297,50.408-7.768
						c18.039,0.557,36.019,3.53,53.079,9.478C898.414,470.391,898.572,469.809,898.207,469.684z"/>
					<path style="fill:#FFFFFF;" d="M902.648,477.775c-5.919,0.055-11.822-0.153-17.718-0.695
						c-6.121-0.562-12.146-1.726-18.237-2.499c-12.473-1.581-25.161-0.488-37.67,0.129c-0.304,0.015-0.306,0.485,0,0.474
						c12.237-0.443,24.603-1.526,36.808-0.071c6.091,0.726,12.11,1.908,18.216,2.543c6.174,0.642,12.394,0.911,18.6,0.832
						C903.107,478.481,903.108,477.77,902.648,477.775z"/>
					<path style="fill:#FFFFFF;" d="M885.926,501.429c-0.079-6.423-0.313-14.948-5.167-19.794c-0.221-0.221-0.561,0.119-0.343,0.343
						c2.589,2.652,3.546,6.113,4.149,9.673c0.748,4.409,1.046,8.914,0.816,13.372c-0.48,9.32-1.806,17.647-3.141,25.981
						c-2.468,15.41-5.323,31.361-1.124,46.724c0.101,0.369,0.672,0.212,0.572-0.158c-4.535-16.839-0.955-34.091,1.831-50.897
						C884.905,518.322,886.03,509.911,885.926,501.429z"/>
					<path style="fill:#FFFFFF;" d="M892.798,480.989c-0.084-0.291-0.537-0.167-0.454,0.125c8.482,29.682-0.09,60.363-1.776,90.336
						c-0.022,0.387,0.581,0.386,0.601,0C892.711,541.379,901.396,510.754,892.798,480.989z"/>
					<path style="fill:#FFFFFF;" d="M907.26,501.27c0.069-0.32-0.42-0.457-0.492-0.136c-4.349,19.398-6.056,39.322-5.4,59.181
						c0.013,0.396,0.631,0.396,0.615,0C901.206,540.47,903.086,520.676,907.26,501.27z"/>
				</g>
			</g>
		</g>
		<path style="fill:#EADDD0;" d="M830.313,476.629c4.078,0.168,11.121-6.143,8.567-9.319c0.826,1.027,2.239,2.147,3.285,1.344
			c0.652-0.501,0.67-1.457,0.668-2.279c-0.011-3.521,0.695-7.043,2.061-10.289c0.125-0.297,0.246-0.598,0.387-0.891
			c4.022-8.338,7.468-16.938,11.416-25.31c3.952-8.382,8.64-16.087,12.059-24.709c0.997-2.514,1.994-5.029,2.964-7.554
			c1.012-2.632,1.994-5.276,2.947-7.93c1.122-3.124,3.436-8.212,2.856-11.643c-0.609-3.606-5.204-6.996-8.782-6.312
			c-5.61,1.071-6.571,8.796-8.304,13.148c-2.396,6.018-4.797,12.035-7.195,18.052c-4.49,6.032-6.583,16.517-9.383,23.541
			c-3.004,7.538-5.982,14.4-7.795,22.301c-0.929,4.051-1.873,8.144-3.702,11.876c-1.318,2.69-3.09,5.183-3.948,8.053
			C826.698,474.445,828.048,476.536,830.313,476.629z"/>
	</g>
	<g>
		<path style="fill:#F2E7D6;" d="M974.542,294.956c4.303-0.164,11.807,5.787,9.147,8.79c0.861-0.971,2.34-2.031,3.453-1.274
			c0.694,0.472,0.724,1.375,0.73,2.151c0.028,3.326,0.811,6.651,2.289,9.715c0.135,0.28,0.266,0.565,0.419,0.841
			c4.338,7.869,8.071,15.987,12.331,23.889c4.265,7.911,9.299,15.182,13.003,23.32c1.08,2.373,2.161,4.747,3.213,7.13
			c1.097,2.485,2.163,4.98,3.199,7.486c1.219,2.949,3.718,7.751,3.144,10.992c-0.603,3.407-5.416,6.614-9.201,5.974
			c-5.933-1.004-7.034-8.298-8.911-12.406c-2.596-5.681-5.197-11.36-7.795-17.04c-4.806-5.691-7.132-15.591-10.165-22.221
			c-3.255-7.115-6.474-13.592-8.475-21.052c-1.026-3.825-2.067-7.689-4.039-11.212c-1.421-2.538-3.319-4.891-4.257-7.6
			C970.75,297.024,972.152,295.047,974.542,294.956z"/>
		<path style="fill:#2D2C2B;" d="M1011.747,451.925c-0.951,0-0.951,1.474,0,1.474
			C1012.698,453.399,1012.698,451.925,1011.747,451.925z"/>
		<g>
			<path style="fill:#F2E7D6;" d="M1007.229,423.599c3.496,10.4,3.673,22.013,0.497,32.527c-0.303,1.004-0.64,2.039-0.521,3.085
				c0.231,2.032,2.056,3.391,3.781,4.319c8.665,4.662,18.749,5.143,28.471,5.166c15.646,0.036,31.293-0.873,46.841-2.722
				c1.785-2.187,0.583-5.498-0.244-8.252c-2.489-8.298-0.618-17.242,0.256-25.898c0.1-0.987,0.175-2.041-0.264-2.919
				c-0.402-0.805-1.168-1.322-1.908-1.787c-10.985-6.908-23.744-10.622-36.523-10.631c-5.199-0.004-10.385,0.592-15.527,1.405
				C1023.697,419.217,1015.387,421.125,1007.229,423.599z"/>
			<path style="fill:#4D4D4D;" d="M1091.805,603.318c-1.726-38.176,1.9-77.112,1.584-115.524
				c1.135-13.315-0.706-26.877-5.385-39.395c-0.29-0.777-0.606-1.572-1.183-2.167c-1.795-1.847-4.864-0.865-7.245,0.116
				c-22.833,9.411-49.801,7.195-70.618-6.092c-4.112,6.263-5.292,13.947-6.307,21.37c-1.64,12.001-3.437,23.979-3.877,36.033
				c-0.001,0.023-0.004,0.046-0.005,0.068l0.002,0c-0.093,2.589-0.146,5.179-0.096,7.776c0.287,15.025,3.187,29.83,5.454,44.639
				c1.479,9.661,2.779,19.388,2.903,29.176c0.101,8.011-1.022,15.333,0.77,23.175c4.414,19.314,4.425,40.356,6.291,60.089
				c1.999,21.132,3.972,42.267,5.606,63.431c0.065,0.843,0.13,1.686,0.194,2.528c1.066,0.285,17.345,4.032,17.345-0.183
				c1.305-41.078,2.611-82.156,3.916-123.234c0.549-17.286,1.134-34.824,5.516-51.293c1.806,0.181,3.612,0.362,5.418,0.542
				c9.926,54.359,19.852,108.718,29.778,163.077c0.874,4.786,1.934,9.95,5.089,13.035c3.155,3.084,9.047,2.22,9.979-2.55
				C1094.018,686.397,1093.684,644.875,1091.805,603.318z"/>
			<path style="fill:#2D2C2B;" d="M1084.967,472.793c-0.306-0.744-1.528-0.434-1.229,0.339c0.838,2.164,1.39,4.402,1.628,6.712
				c0.09,0.87,1.463,0.877,1.37,0C1086.476,477.401,1085.902,475.068,1084.967,472.793z"/>
			<path style="fill:#2D2C2B;" d="M1088.582,497.711c-0.077-0.797-1.33-0.807-1.255,0c0.15,1.621,0.301,3.243,0.452,4.864
				c0.075,0.812,1.354,0.817,1.274,0C1088.896,500.953,1088.739,499.332,1088.582,497.711z"/>
			<path style="fill:#2D2C2B;" d="M1088.279,524.079c-0.002-0.84-1.302-0.84-1.303,0c-0.004,1.758-0.007,3.517-0.01,5.275
				c-0.002,0.853,1.323,0.853,1.322,0C1088.285,527.595,1088.282,525.837,1088.279,524.079z"/>
			<path style="fill:#2D2C2B;" d="M1089.081,553.7c-0.002-0.828-1.282-0.828-1.284,0c-0.005,1.894-0.01,3.787-0.014,5.681
				c-0.002,0.846,1.314,0.846,1.312,0C1089.091,557.488,1089.086,555.594,1089.081,553.7z"/>
			<path style="fill:#2D2C2B;" d="M1087.697,576.805c0.092-0.727-1.181-0.898-1.279-0.173c-0.322,2.362-0.416,4.713-0.249,7.093
				c0.062,0.878,1.44,0.879,1.37,0C1087.353,581.409,1087.405,579.11,1087.697,576.805z"/>
			<path style="fill:#2D2C2B;" d="M1087.677,604.808c0.083-0.83-1.21-0.821-1.293,0c-0.288,2.845-0.349,5.685-0.184,8.54
				c0.048,0.835,1.353,0.84,1.303,0C1087.333,610.493,1087.392,607.653,1087.677,604.808z"/>
			<path style="fill:#2D2C2B;" d="M1015.796,593.47c0.067-0.995-1.436-0.967-1.531,0c-0.235,2.391-0.046,4.736,0.352,7.098
				c0.149,0.883,1.454,0.496,1.33-0.367C1015.625,597.968,1015.646,595.716,1015.796,593.47z"/>
			<path style="fill:#2D2C2B;" d="M1012.166,572.147c-0.181-0.95-1.603-0.541-1.44,0.397c0.34,1.955,0.426,3.926,0.284,5.905
				c-0.066,0.917,1.308,0.882,1.408,0C1012.658,576.324,1012.565,574.246,1012.166,572.147z"/>
			<path style="fill:#2D2C2B;" d="M1011.705,547.211c0.076-0.946-1.376-0.929-1.465,0c-0.226,2.381-0.074,4.74,0.391,7.083
				c0.167,0.837,1.375,0.464,1.256-0.346C1011.56,551.705,1011.523,549.469,1011.705,547.211z"/>
			<path style="fill:#2D2C2B;" d="M1006.609,518.804c0.003,2.435,0.006,4.869,0.01,7.304c0.001,0.859,1.33,0.859,1.331,0
				c0.003-2.435,0.006-4.869,0.01-7.304C1007.96,517.932,1006.607,517.932,1006.609,518.804z"/>
			<path style="fill:#2D2C2B;" d="M1005.749,492.022c0.008,2.57,0.016,5.14,0.024,7.71c0.003,0.902,1.396,0.902,1.398,0
				c0.008-2.57,0.016-5.14,0.024-7.71C1007.198,491.09,1005.747,491.09,1005.749,492.022z"/>
			<path style="fill:#2D2C2B;" d="M1007.901,462.049c-0.968,1.739-1.393,3.64-1.31,5.627c0.036,0.879,1.391,0.886,1.37,0
				c-0.043-1.753,0.354-3.358,1.164-4.912C1009.545,461.957,1008.347,461.248,1007.901,462.049z"/>
			<path style="fill:#333333;" d="M1095.854,725.183c0.947,0.6,1.386,1.737,1.699,2.814c0.595,2.048,0.951,4.165,1.059,6.295
				c0.067,1.318-0.005,2.763-0.871,3.758c-0.941,1.082-2.513,1.295-3.941,1.437c-5.724,0.569-11.447,1.138-17.171,1.708
				c-1.625,0.162-3.513,0.228-4.607-0.985c-1.012-1.122-0.874-2.835-0.657-4.33c0.128-0.885,0.311-1.857,1.015-2.409
				c0.52-0.408,1.217-0.494,1.877-0.539c3.053-0.21,6.444,0.024,8.797-1.933c1.686-1.402,2.482-3.696,4.27-4.965
				c1.563-1.109,3.595-1.238,5.509-1.328C1093.869,724.658,1094.979,724.628,1095.854,725.183z"/>
			<path style="fill:#333333;" d="M1033.676,725.215c1.008,0.639,1.475,1.85,1.808,2.996c0.633,2.18,1.013,4.434,1.128,6.702
				c0.071,1.403-0.005,2.942-0.928,4.001c-1.002,1.152-2.676,1.379-4.195,1.53c-6.093,0.606-12.187,1.212-18.28,1.818
				c-1.73,0.172-3.74,0.243-4.904-1.048c-1.077-1.195-0.93-3.018-0.7-4.61c0.136-0.942,0.332-1.977,1.081-2.565
				c0.554-0.435,1.296-0.526,1.998-0.574c3.25-0.223,6.861,0.025,9.365-2.058c1.794-1.493,2.642-3.934,4.546-5.286
				c1.664-1.181,3.827-1.318,5.865-1.414C1031.562,724.656,1032.744,724.624,1033.676,725.215z"/>
		</g>
		<path style="fill:#8CAF9E;" d="M1022.821,325.416c2.757,2.025,5.701,3.792,8.832,5.116c12.36,5.228,27.444,2.794,37.668-6.078
			c8.278,2.912,14.187,10.52,17.226,18.983c3.04,8.463,3.587,17.628,4.104,26.638c2.42,42.165,4.841,84.331,7.261,126.496
			c0.121,2.106,0.222,4.321-0.679,6.215c-1.829,3.844-6.719,4.624-10.862,4.865c-27.996,1.625-56.116,0.967-84.012-1.965
			c-1.152-0.121-2.349-0.261-3.333-0.893c-2.161-1.388-2.448-4.46-2.492-7.087c-0.66-40.055,1.326-80.156,5.937-119.932
			c1.689-14.566,3.799-29.339,9.827-42.625c1.228-2.706,2.704-5.443,5.108-7.109
			C1019.811,326.373,1020.463,323.683,1022.821,325.416z"/>
		<path style="fill:#F2E7D6;" d="M1063.849,276.756c-0.279-2.73-0.736-5.452-1.566-8.068c-2.895-9.121-13.582-21.994-24.499-17.277
			c-2.538,1.097-4.63,3.004-6.599,4.945c-2.022,1.993-3.981,4.069-5.6,6.401c-3.057,4.405-5.024,9.933-5.057,15.328
			c-0.031,5.018,1.755,10.199,3.458,14.858c2.258,6.178,5.435,12.592,11.27,15.628c7.766,4.041,17.943,0.282,23.172-6.739
			C1063.657,294.812,1064.74,285.465,1063.849,276.756z"/>
		<path style="fill:#F2E7D6;" d="M1073.788,339.55c-0.839-0.817-1.847-1.485-2.977-1.79c-4.5-1.218-8.283,3.357-10.706,7.34
			c-8.185,13.452-16.383,27.014-23.028,41.254c-1.272-0.701-2.801-0.955-4.264-1.177c-16.694-2.539-30.609-4.244-49.071-6.273
			c-0.627-0.069-1.31-0.221-2.013-0.392c-4.208-1.521-8.65-4.01-11.205-6.142c-0.741-0.619-1.471-1.281-2.357-1.666
			c-0.886-0.385-1.983-0.442-2.765,0.125c-0.781,0.568-1.01,1.869-0.286,2.508c-2.135-0.643-4.336-1.294-6.557-1.093
			c-2.221,0.201-4.498,1.459-5.226,3.567c-0.98,2.839,1.14,5.828,3.545,7.628c5.39,4.035,14.328,6.628,21.454,6.695
			c3.422,1.465,7.315,2.445,9.639,3.149c10.522,3.186,21.044,6.372,31.566,9.558c4.973,1.506,10.045,3.026,15.24,2.93
			c2.829-0.052,5.538-0.702,8.121-1.825c15.848-6.889,26.951-31.582,31.972-45.246
			C1077.207,352.337,1078.645,344.277,1073.788,339.55z"/>
		<g>
			<path style="fill:#333333;" d="M1091.627,290.809c-1.861-6.062-3.723-12.123-5.584-18.185
				c-2.792-9.091-5.767-18.513-12.051-25.435c-11.74-12.932-32.446-13.135-47.264-4.319c-4.229,2.516-8.212,5.762-10.676,10.151
				c-4.734,8.432-2.974,19.101-0.447,28.517c2.528,9.416,5.704,19.286,3.357,28.752c2.577-0.099,4.728-2.305,5.683-4.812
				c0.955-2.507,0.958-5.283,0.96-7.981c0.006-7.536,0.129-15.206,2.34-22.377c2.211-7.172,6.843-13.891,13.532-16.679
				c13.096,14.317,20.709,33.981,20.829,53.801c4.761-1.389,9.861-1.484,14.666-0.271c1.989,0.502,3.972,1.229,6.016,1.136
				c4.313-0.195,8.954-3.888,12.475-1.275C1095.849,304.666,1093.726,297.642,1091.627,290.809z"/>
			<path style="fill:#CD82D1;" d="M1056.56,313.824c3.666-2.07,4.794-8.902,2.077-12.584c-2.192-3.133-0.113-8.382,2.962-10.022
				c3.076-1.641,6.584-0.937,9.928-0.707c6.222,0.429,12.428-0.894,18.652-1.279c0.858-0.053,1.772-0.072,2.508,0.476
				c1.097,0.815,1.421,2.564,1.643,4.123c1.359,9.522,2.718,19.044,4.077,28.566c-0.759,2.227-3.356,2.298-5.139,1.309
				c-1.782-0.989-3.409-2.673-5.361-2.768c-3.135-0.152-5.742,3.867-8.856,3.404c-1.453-0.216-2.705-1.395-4.139-1.758
				c-2.915-0.737-6.097,1.976-8.786,0.398c-0.756-0.443-1.381-1.194-2.16-1.571c-1.375-0.666-2.916-0.052-4.307,0.562
				C1058.43,319.382,1057.391,316.65,1056.56,313.824z"/>
			<path style="fill:#CD82D1;" d="M1008.725,318.59c-0.379-0.601-0.507-1.327-0.544-2.036c-0.35-6.75,6.557-11.799,7.731-18.455
				c0.316-1.79,0.275-3.821,1.532-5.135c1.697-1.772,4.9-1.025,6.444,0.881c1.544,1.907,1.855,4.505,2.008,6.954
				c0.319,5.121,0.126,10.576-2.642,14.896c-2.768,4.32-8.907,6.835-13.244,4.093C1009.511,319.474,1009.04,319.09,1008.725,318.59z
				"/>
		</g>
		<path style="fill:#A1CEA5;" d="M1062.829,332.875c-7.089,11.746-14.178,23.492-21.268,35.238
			c-2.215,3.67-4.494,7.415-7.809,10.133c-3.315,2.717-7.925,4.254-11.97,2.836c-1.93-0.676-4.307-1.894-5.749-0.444
			c-0.687,0.691-0.813,1.745-0.902,2.714c-1.062,11.608-2.124,23.215-3.186,34.823c12.248-1.407,24.495-2.813,36.743-4.219
			c1.723-0.198,3.554-0.44,4.882-1.555c1.008-0.847,1.586-2.086,2.134-3.283c8.216-17.973,16.433-35.946,24.649-53.919
			c2.653-5.803,5.125-13.197,0.965-18.035C1077.071,332.224,1069.285,333.737,1062.829,332.875z"/>
		<path style="fill:#E6E6E6;" d="M1103.902,473.474c0.188-13.218-2.165-26.477-5.472-39.215c-0.645-2.485-2.794-3.695-5.177-3.942
			c-0.328-0.034-0.612,0.005-0.928-0.009c0.632-2.643,0.687-5.723,0.728-9.025c0.215-17.316-1.668-34.623-4.608-51.664
			c-2.042-11.839-3.896-25.339-13.312-33.723c-5.043-4.491-14.444-3.885-18.901,1.219c-8.522,9.762-14.07,22.84-17.643,36.843
			c2.155-1.634,4.332-3.238,6.596-4.738c0.699-0.464,1.438-0.591,2.161-0.566c0.734-0.418,1.467-0.574,2.161-0.545
			c2.399-6.754,5.213-13.361,8.557-19.733c4.781-0.619,9.563-1.237,14.344-1.855c1.58,2.88,2.717,5.916,3.413,9.108
			c1.974,7.205,3.035,14.747,4.215,22.111c2.308,14.398,3.058,28.98,3.104,43.542c0.048,15.404-23.238,4.958-39,4.035
			c-0.584-0.152-1.155-0.162-1.714-0.061c-1.205-0.013-2.356,0.041-3.436,0.182c0.06-1.526,0.189-3.051,0.279-4.577
			c-2.344-0.49-4.473-1.171-6.554-2.101c-0.113,2.983-0.192,5.909-0.223,8.702c-0.003,0.288,0.089,0.508,0.143,0.755
			c-0.449,0.455-0.865,0.948-1.207,1.532c-4.573,7.806-4.111,20.933-5.063,29.792c-1.716,15.967-2.187,32.033-2.078,48.08
			c0.02,2.937,2.414,5.302,5.339,5.339c19.793,0.245,52.926,2.721,69.131-10.779C1105.31,496.726,1103.802,480.54,1103.902,473.474z
			 M1094.204,477.051c-0.207-0.64-0.458-1.264-0.686-1.896c0.246-0.311,0.544-0.597,0.758-0.923c0.037,0.97,0.031,1.908,0.034,2.852
			C1094.274,477.079,1094.241,477.056,1094.204,477.051z"/>
	</g>
	<g>
		<g>
			<g>
				<path style="fill:#DDCEBF;" d="M683.341,437.529c-0.322-0.319-0.402-0.841-0.462-1.322c-1.499-12.091-2.215-24.324-2.14-36.57
					c8.018,0.889,16.072,1.45,24.139,1.682c-0.826,12.307-1.676,24.753-5.084,36.552c-5.122,0.573-10.283,0.585-15.385,0.036
					C684.03,437.865,683.624,437.809,683.341,437.529z"/>
				<path style="fill:#517267;" d="M701.721,416.705c0.18,0.078,0.367,0.179,0.455,0.355c0.079,0.159,0.061,0.346,0.042,0.523
					c-0.196,1.754-0.392,3.509-0.589,5.263c-6.217-0.113-12.433-0.226-18.65-0.339c-0.313-2.645-0.382-5.32-0.208-7.978
					c4.726,1.276,9.64,1.858,14.533,1.721C698.797,416.209,700.351,416.111,701.721,416.705z"/>
			</g>
			<path style="fill:#736357;" d="M678.281,402.891c0.004-1.534,0.007-3.067,0.011-4.601c9.579-0.102,19.161,0.182,28.717,0.849
				c-0.137,1.213-0.274,2.427-0.411,3.64c-0.023,0.2-0.056,0.42-0.21,0.549c-0.13,0.109-0.313,0.124-0.483,0.133
				C696.689,403.972,687.375,404.478,678.281,402.891z"/>
		</g>
		<g>
			<g>
				<path style="fill:#DDCEBF;" d="M725.003,440.017c-0.322-0.319-0.402-0.841-0.461-1.322c-1.5-12.091-2.215-24.324-2.14-36.57
					c8.018,0.889,16.072,1.45,24.139,1.682c-0.826,12.307-1.676,24.753-5.084,36.552c-5.122,0.573-10.283,0.585-15.385,0.036
					C725.692,440.354,725.287,440.298,725.003,440.017z"/>
				<path style="fill:#517267;" d="M743.384,419.194c0.18,0.078,0.367,0.179,0.455,0.355c0.079,0.159,0.061,0.346,0.042,0.523
					c-0.196,1.754-0.392,3.509-0.588,5.263c-6.217-0.113-12.433-0.226-18.65-0.339c-0.313-2.646-0.382-5.32-0.208-7.978
					c4.726,1.276,9.639,1.858,14.533,1.721C740.46,418.698,742.014,418.6,743.384,419.194z"/>
			</g>
			<path style="fill:#736357;" d="M720.105,405.738c0.004-1.534,0.008-3.067,0.011-4.601c9.578-0.102,19.161,0.182,28.717,0.849
				c-0.137,1.213-0.274,2.427-0.411,3.64c-0.023,0.2-0.056,0.42-0.21,0.55c-0.13,0.109-0.313,0.124-0.483,0.133
				C738.512,406.819,729.199,407.325,720.105,405.738z"/>
		</g>
		<path style="fill:#A89382;" d="M762.957,422.282c-0.93-0.922-1.795-1.889-2.381-3.031c-0.253-0.493-0.499-1.025-0.957-1.336
			c-0.487-0.331-1.115-0.347-1.704-0.349c-4.121-0.013-8.243,0.1-12.358,0.337c-0.456,1.878-0.873,3.765-1.249,5.661
			c-0.306,1.539-0.229,4.228-0.979,5.569c-1.188,2.125-5.337,1.443-7.511,1.301c-5.22-0.342-11.247-0.327-12.758-6.38
			c-0.44-1.764-0.608-4.021-0.589-5.849c-0.002,0.204-17.209-0.952-18.954-0.255c-0.142,6.191-0.764,11.656-7.814,12.761
			c-3.626,0.569-8.087,0.36-11.213-1.776c-3.889-2.658-3.74-9.269-3.615-13.476c-3.776,0.164-7.551,0.327-11.327,0.491
			c-2.338,2.712-4.488,5.482-6.892,8.154c-1.337,1.487-2.675,2.974-4.012,4.461c-0.46,0.512-3.193,4.222-3.726,4.142
			c16.901,2.53,34.187,1.996,51.332,1.453c21.928-0.694,43.857-1.388,65.785-2.083c-1.182,0.037-5.531-6.161-6.45-7.185
			C764.773,423.987,763.836,423.154,762.957,422.282z"/>
		<path style="fill:#BCA48E;" d="M736.026,387.23c-10.565-0.481-21.131-0.962-31.699-1.366c-3.527-0.135-7.095-0.942-10.575-0.923
			c-5.123,0.027-10.247,0.053-15.37,0.08c-1.646,0.009-4.322-0.589-5.51,0.776c-1.099,1.263-0.912,4.106-0.958,5.643
			c-0.185,6.082-0.737,12.146-1.434,18.188c-0.341,2.953-0.719,5.902-1.105,8.85c-0.098,0.748-0.85,3.135-0.346,3.762
			c0.617,0.767,3.187,0.338,4.013,0.184c-0.014-10.119,0.509-20.24,1.566-30.304c0.028-0.263,0.064-0.544,0.24-0.741
			c0.214-0.24,0.568-0.281,0.888-0.307c5.954-0.485,11.786-1.315,17.823-1.341c6.407-0.027,12.808,0.328,19.195,0.801
			c6.423,0.476,12.837,1.077,19.26,1.549c1.705,0.125,19.166,0.39,19.262,0.78c2.196,8.946,3.159,18.193,2.852,27.4
			c1.741,0.398,3.523,0.613,5.309,0.641c-1.775-10.831-2.834-21.78-3.166-32.75C749.523,387.844,742.774,387.537,736.026,387.23z"/>
	</g>
	<g>
		<path style="fill:#EADDD0;" d="M1194.729,337.544c-0.016-0.795,0.007-1.66,0.354-2.392c0.33-0.696,0.89-1.131,1.434-1.423
			c2.37,0.586,4.286,2.862,5.029,5.974c0.38-1.112,1.111-2.495,1.861-2.19c0.468,0.19,0.602,0.962,0.706,1.633
			c0.445,2.871,1.333,5.504,2.595,7.692c0.116,0.201,0.229,0.406,0.354,0.597c8.538,12.397,13.445,23.516,23.534,33.306
			c2.497-4.837,3.836-10.831,4.797-16.461c1.605-9.403,3.305-23.308,11.678-26.464c2.368-0.892,4.395,1.618,4.849,4.696
			c0.454,3.078-0.248,6.522-0.944,9.811c-2.975,14.069-8.4,27.915-13.399,41.344c-1.137,3.055-2.978,10.792-5.66,11.576
			c-2.862,0.836-5.372-5.069-7.051-6.869c-0.47-0.504-0.858-1.169-1.219-1.834c-7.4-13.611-14.799-27.223-22.198-40.834
			c0.019-0.039,0.041-0.075,0.06-0.114C1197.421,351.655,1194.88,344.996,1194.729,337.544z"/>
		<path style="fill:#EADDD0;" d="M1230.383,448.47c3.107,9.244,3.265,19.566,0.442,28.912c-0.27,0.892-0.569,1.813-0.463,2.742
			c0.206,1.806,1.828,3.014,3.36,3.839c7.702,4.144,16.665,4.572,25.306,4.591c13.907,0.032,27.815-0.776,41.635-2.42
			c1.587-1.944,0.518-4.887-0.216-7.335c-2.212-7.376-0.549-15.325,0.228-23.02c0.089-0.877,0.155-1.814-0.234-2.595
			c-0.357-0.716-1.038-1.175-1.696-1.588c-9.764-6.14-21.105-9.441-32.463-9.45c-4.621-0.003-9.23,0.526-13.801,1.249
			C1245.021,444.575,1237.634,446.271,1230.383,448.47z"/>
		<path style="fill:#333333;" d="M1256.16,719.524c-4.428-0.357-8.9-0.168-13.283,0.56c-3.379,2.515-7.08,4.596-10.985,6.175
			c-1.134,0.458-2.328,0.903-3.165,1.795c-0.837,0.892-1.176,2.392-0.394,3.332c0.683,0.822,1.893,0.91,2.962,0.922
			c8.185,0.086,16.378-0.61,24.43-2.077c0.483-0.088,0.996-0.194,1.344-0.54c0.279-0.276,0.409-0.666,0.511-1.045
			C1258.403,725.586,1257.873,722.189,1256.16,719.524z"/>
		<path style="fill:#333333;" d="M1310.93,717.909c-4.787,0.552-9.505,1.694-14.015,3.391c-3.065,3.387-6.566,6.38-10.388,8.882
			c-1.11,0.726-2.287,1.451-2.99,2.576c-0.703,1.125-0.748,2.792,0.282,3.628c0.9,0.731,2.205,0.57,3.345,0.357
			c8.726-1.631,17.297-4.096,25.555-7.352c0.495-0.195,1.019-0.416,1.317-0.857c0.238-0.353,0.296-0.794,0.324-1.219
			C1314.592,723.887,1313.314,720.383,1310.93,717.909z"/>
		<path style="fill:#EADDD0;" d="M1305.558,608.213c-1.535-33.933,1.688-68.541,1.408-102.684
			c1.009-11.835-0.627-23.89-4.786-35.016c-0.258-0.69-0.538-1.397-1.052-1.926c-1.595-1.642-4.323-0.769-6.44,0.104
			c-20.295,8.365-44.266,6.395-62.769-5.415c-3.655,5.567-4.704,12.397-5.606,18.995c-1.458,10.667-3.055,21.314-3.447,32.028
			c-0.001,0.02-0.003,0.041-0.004,0.061l0.002,0c-0.083,2.301-0.13,4.604-0.086,6.912c0.255,13.355,2.833,26.514,4.847,39.677
			c1.314,8.587,2.47,17.233,2.58,25.933c0.09,7.12-0.909,13.628,0.684,20.599c3.923,17.167,3.933,35.87,5.592,53.41
			c1.776,18.783,3.531,37.569,4.983,56.38c0.058,0.749,0.115,1.498,0.172,2.247c0.947,0.253,10.068,1.938,10.068-1.809
			c1.16-36.512,7.669-71.379,8.829-107.891c0.488-15.364,1.008-30.953,4.903-45.592c1.605,0.161,3.211,0.321,4.816,0.482
			c8.823,48.317,17.645,96.634,26.468,144.951c0.777,4.255-1.153,9.305,1.652,12.046c2.804,2.741,10.913,1.513,11.742-2.727
			C1307.526,682.059,1307.229,645.152,1305.558,608.213z"/>
		<path style="fill:#EADDD0;" d="M1300.324,408.854c-2.18-15.3-4.231-30.202-3.982-45.711c-1.567-3.411-3.471-6.723-4.361-10.442
			c-0.932-3.896-0.911-7.949-0.519-11.921c0.205-2.079,0.479-4.175,0.865-6.226c0.215-1.143,0.898-2.657,0.454-3.751
			c-8.875,6.056-20.39,7.991-30.678,5.709c-1.458-0.323-2.976-0.799-4.235-1.666c-0.89-0.612-1.721-2.414-2.609-2.739
			c-2.428-0.889-4.321,3.754-4.857,5.471c-10.449,33.459-21.031,67.958-18.746,103.101c0.503,7.74,2.072,16.256,7.949,20.925
			c0.25-3.871,4.522-5.773,8.11-6.636c15.111-3.636,30.889-4.171,46.19-1.566c2.956,0.503,6.227,1.471,8.488,3.36
			C1303.208,440.754,1302.587,424.733,1300.324,408.854z"/>
		<path style="fill:#4D4D4D;" d="M1323.232,602.347c-1.036-19.33-3.324-38.532-6.843-57.3c-3.101-16.537-3.337-30.16-5.578-46.958
			c-1.866-13.988-6.272-30.832-6.858-45.031c-0.842-20.395-1.803-40.784-2.762-61.174c-0.48-10.208-0.96-20.417-1.425-30.626
			c-0.227-4.987-0.451-9.975-0.669-14.962c-0.198-4.531,0.508-10.499-0.839-14.742c-2.629,0.695-5.47,0.539-8.135-0.008
			c0.647,0.133-4.886,22.106-5.517,24.082c-1.262,3.955-2.768,7.84-4.651,11.545c-1.173,2.307-3.31,6.823-5.388,8.362
			c-1.738,1.286-4.947,0.823-7.01,0.384c-5.2-1.106-9.952-4.67-12.073-9.6c-1.405-3.266-1.721-6.884-1.925-10.433
			c-0.277-4.813-0.38-9.636-0.309-14.456c0.051-3.456,0.286-7.18,2.46-9.868c-0.306,0.379-4.547-0.056-5.235-0.021
			c-1.317,0.065-3.584-0.166-4.624,0.797c-1.889,1.748-2.508,7.368-3.15,9.807c-1.921,7.298-3.24,14.738-4.347,22.198
			c-2.222,14.978-4.962,29.94-7.136,44.891c-2.294,15.775-2.038,32.321-3.179,48.233c-2.323,32.385-5.232,64.751-9.901,96.892
			c-0.7,4.82-1.44,9.634-2.222,14.441c-4.186,25.708-9.996,51.029-15.266,76.52c-1.067,5.16-0.646,7.464,5.02,7.926
			c5.953,0.485,12.505-0.804,18.462-1.227c12.583-0.894,25.165-1.788,37.748-2.681c10.075-0.716,20.151-1.431,30.226-2.147
			c7.748-0.55,16.624-0.68,24.218-2.583c8.228-2.062,7.571-8.574,7.55-19.207C1323.858,617.709,1323.644,610.018,1323.232,602.347z"
			/>
		<path style="fill:#66767F;" d="M1200.65,645.32c5.27-25.491,11.08-50.812,15.266-76.52c0.783-4.807,1.522-9.621,2.223-14.441
			c0.735-5.058,1.356-10.131,2.008-15.2c0.156-0.483,0.285-0.976,0.446-1.457c0.712-2.133,4.703-14.633,6.432-7.036
			c1.334,5.863,0.468,14.811,3.988,20.002c2.184,3.222,7.287,5.085,10.276,1.272c4.545-5.796,3.973-12.883,4.237-19.891
			c0.18-4.77,0.241-9.563,0.726-14.316c0.018-0.179,2.894-18.276,5.815-14.767c4.44,5.334,2.272,17.353,1.655,23.621
			c-0.911,9.25-2.398,18.405-3.839,27.583c-0.765,4.869-1.84,11.105,0.119,15.77c1.936,4.611,6.095,6.448,10.159,2.383
			c1.642-1.642,4.857-14.558,9.72-9.03c2.431,2.763,3.549,6.229,4.978,9.555c5.293,12.325,14.029,5.884,16.867-4.407
			c2.569-9.313,3.971-19.238,7.666-28.2c4.848-11.757,7.595,6.798,8.642,11.336c1.637,7.102,4.605,20.732,12.58,20.946
			c1.201,9.88,2.085,19.833,2.621,29.823c0.411,7.671,0.625,15.363,0.641,23.055c0.022,10.633,0.678,17.145-7.549,19.207
			c-7.593,1.903-16.469,2.032-24.218,2.583c-10.075,0.715-20.151,1.431-30.226,2.147c-12.583,0.893-25.165,1.788-37.748,2.682
			c-5.957,0.423-12.51,1.711-18.462,1.227C1200.004,652.784,1199.583,650.48,1200.65,645.32z"/>
		<g>
			<path style="fill:#EADDD0;" d="M1261.344,274.344c-2.033,0.747-3.625,2.349-5.026,4.001c-6.403,7.556-10.24,17.249-10.743,27.141
				c-0.121,2.372-0.048,4.799,0.723,7.046c0.829,2.417,2.42,4.494,4.108,6.413c3.946,4.484,8.577,8.364,13.684,11.462
				c0.88,0.534,1.811,1.057,2.836,1.153c1.26,0.118,2.479-0.424,3.62-0.973c3.133-1.507,6.192-3.168,9.163-4.974
				c2.69-1.635,5.387-3.468,7.077-6.123c2.03-3.188,2.352-7.14,2.527-10.915c0.129-2.788,0.208-5.579,0.237-8.37
				c0.021-2.014,0.015-4.043-0.371-6.02c-0.81-4.15-3.272-7.846-6.355-10.74c-3.083-2.894-6.774-5.057-10.525-7.007
				C1268.899,274.669,1264.942,273.022,1261.344,274.344z"/>
			<g>
				<path style="fill:#333333;" d="M1250.581,289.557c-0.953,0.743-1.717,1.724-2.146,3.315c-0.521,1.934-0.416,3.976-0.272,5.974
					c0.388,5.38,1.048,10.822,3.101,15.811c0.899,2.184,3.276,6.036,2.47,8.508c-0.955,2.929-4.4-1.095-5.842-2.584
					c-4.106-4.239-6.768-9.768-8.262-15.434c-1.697-6.439-2.038-13.288-0.517-19.771c1.521-6.482,4.962-12.573,10.046-16.874
					c6.823-5.773,16.385-7.982,25.156-6.264c8.771,1.718,16.646,7.2,21.724,14.554c1.766,2.558,3.228,5.373,3.893,8.409
					c0.574,2.624,0.541,5.349,0.234,8.017c-1.281,11.147-7.515,21.633-16.696,28.084c1.428-8.097,1.31-16.464-0.347-24.518
					c-0.22-1.069-0.481-2.165-1.126-3.046c-0.619-0.846-1.538-1.418-2.456-1.926c-2.978-1.648-6.195-2.849-9.099-4.626
					c-2.903-1.777-5.562-4.279-6.551-7.535c-2.531,2.81-5.566,5.152-8.711,7.233
					C1253.544,287.969,1251.886,288.541,1250.581,289.557z"/>
				<path style="fill:#333333;" d="M1301.683,261.793c-1.014,6.365-5.651,12.025-11.693,14.27c-6.042,2.245-13.25,0.988-18.175-3.17
					c-2.128-7.869-3.889-17.357,1.719-23.272c3.376-3.561,8.515-4.692,13.328-5.649c2.753-0.547,5.728-1.071,8.268,0.122
					c2.28,1.071,3.759,3.339,4.778,5.642C1301.574,253.504,1302.331,257.726,1301.683,261.793z"/>
			</g>
		</g>
		<g>
			<g>
				<g>
					<path style="fill:#628CA3;" d="M1205.745,511.014c-1.713,23.385-2.499,46.875-2.357,70.357c0.021,3.403,0.17,7.156,2.049,9.617
						c1.788,2.342,4.6,2.793,7.178,3.094c26.581,3.101,53.275,4.676,79.971,4.72c11.737-19.043,9.603-45.636,8.624-69.646
						c-0.511-12.548-0.55-25.125-0.115-37.677c-28.493-2.488-57.193-1.273-85.486,3.62c-1.667,0.288-3.376,0.607-4.842,1.642
						C1206.993,499.404,1206.14,505.618,1205.745,511.014z"/>
				</g>
				<g>
					<path style="fill:#CCCCCC;" d="M1270.587,509.802c2.84-8.362,3.591-15.398,2.293-21.51
						c-1.593-7.501-7.619-14.708-14.555-13.316c-6.725,1.367-9.698,8.982-12.322,15.695c-1.687,4.318-3.43,8.786-6.001,11.437
						l3.3,4.999c3.435-3.547,5.429-8.653,7.359-13.591c2.371-6.071,4.419-11.314,8.496-12.142c3.963-0.816,7.698,3.79,8.716,8.583
						c0.989,4.663,0.318,10.326-2.055,17.315L1270.587,509.802z"/>
				</g>
			</g>
			<path style="fill:#F6F6AF;" d="M1219.859,536.244c4.003-5.268,8.225-10.167,12.756-14.803c0.714-0.731,1.785-0.854,2.487,0
				c5.024,6.122,10.162,12.1,15.368,18.004c3.677-6.43,7.349-12.864,11.043-19.28c0.578-1.005,1.84-1.375,2.61-0.397
				c3.383,4.299,6.803,8.552,10.263,12.764c5.489,6.682,12.503-7.366,16.064-12.121c0.952-1.272,2.406,0.552,1.549,1.828
				c-3.37,5.02-8.867,18.281-15.104,17.414c-4.272-0.594-10.19-10.204-13.773-15.287c-3.629,6.424-7.273,12.838-10.914,19.253
				c-0.622,1.097-1.855,1.345-2.692,0.409c-4.923-5.505-9.766-11.099-14.534-16.791c-2.596-3.1-10.949,9.846-12.577,12.01
				C1220.862,541.297,1218.313,538.278,1219.859,536.244z"/>
			<path style="fill:#F6F6AF;" d="M1217.964,573.768c4.898-4.456,11.668-13.343,18.191-10.142c3.617,1.775,7.156,5.723,10.383,8.365
				c3.46,2.833,9.505-9.975,10.687-12.136c0.642-1.174,1.819-1.251,2.693-0.409c4.595,4.419,9.363,8.266,14.451,11.835
				c2.577,1.807,10.297-9.387,12.102-11.244c1.164-1.196,2.86,0.76,1.707,2.014c-3.934,4.28-7.541,8.766-10.906,13.676
				c-0.424,0.618-1.217,0.583-1.758,0.268c-5.861-3.424-11.229-7.576-16.395-12.238c-2.824,4.955-5.992,9.396-9.736,13.518
				c-0.545,0.601-1.464,0.858-2.123,0.323c-3.327-2.702-6.654-5.405-9.98-8.107c-5.937-4.822-13.344,4.186-17.49,7.958
				C1217.942,579.128,1216.146,575.421,1217.964,573.768z"/>
		</g>
		<g>
			<g>
				<path style="fill:#898764;" d="M1320.447,603.627c-28.578,1.128-57.155,2.255-85.733,3.383
					c1.441-34.01,1.25-68.089-0.573-102.081c22.59-2.725,45.361-3.949,68.113-3.663
					C1309.264,535.209,1315.332,569.347,1320.447,603.627z"/>
			</g>
			<g>
				<path style="fill:#898764;" d="M1255.374,520.639c-0.988,0-1.894-0.654-2.171-1.651c-1.989-7.156-3.453-14.521-4.349-21.889
					c-0.146-1.204-0.419-3.448,0.841-5.284c0.764-1.112,1.842-1.74,2.795-2.206c6.833-3.345,15.293-2.717,21.559,1.588
					c6.266,4.309,9.876,11.989,9.199,19.561c-0.11,1.24-1.19,2.156-2.447,2.046c-1.24-0.11-2.156-1.207-2.045-2.446
					c0.527-5.888-2.391-12.095-7.263-15.444c-4.871-3.349-11.711-3.853-17.021-1.255c-0.236,0.115-0.864,0.423-1.06,0.709
					c-0.296,0.431-0.152,1.616-0.083,2.186c0.869,7.145,2.288,14.288,4.217,21.228c0.334,1.2-0.369,2.442-1.569,2.777
					C1255.776,520.613,1255.573,520.639,1255.374,520.639z"/>
			</g>
		</g>
		<g>
			<path style="fill:#EADDD0;" d="M1297.34,407.049c0.571,0.27,1.2,0.378,1.86,0.384c2.069-0.499,3.958-1.449,5.336-3.139
				c2.588-3.174,3.158-7.791,3.538-11.728c0.545-5.657,0.401-11.548,1.161-17.236c-0.017-3.585,0.448-7.247,1.066-10.743
				c1.772-10.029,5.396-24.624-5.692-30.728c-3.135-1.726-7.271,0.095-9.311,3.035c-2.04,2.94-2.519,6.654-2.939,10.209
				c-1.796,15.207,0.161,31.043,1.667,46.312C1294.37,396.89,1293.688,405.324,1297.34,407.049z"/>
			<path style="fill:#EADDD0;" d="M1261.923,491.023c3.881,0.16,10.584-5.846,8.154-8.869c0.786,0.978,2.131,2.044,3.126,1.279
				c0.621-0.477,0.638-1.386,0.636-2.169c-0.01-3.352,0.661-6.703,1.961-9.793c0.119-0.283,0.234-0.569,0.369-0.848
				c3.828-7.936,7.108-16.12,10.865-24.088c3.762-7.977,8.223-15.311,11.477-23.517c0.949-2.393,1.898-4.786,2.821-7.189
				c0.963-2.505,1.898-5.021,2.805-7.548c1.068-2.973,3.27-7.816,2.718-11.081c-0.58-3.432-4.953-6.658-8.359-6.008
				c-5.339,1.019-6.254,8.371-7.903,12.513c-2.28,5.728-4.565,11.454-6.848,17.181c-4.273,5.741-6.266,15.72-8.93,22.405
				c-2.859,7.174-5.693,13.705-7.419,21.225c-0.885,3.856-1.783,7.751-3.523,11.303c-1.254,2.56-2.941,4.933-3.758,7.664
				C1258.483,488.944,1259.768,490.935,1261.923,491.023z"/>
		</g>
		<path style="fill:#D1E4E8;" d="M1273.75,499.493c4.594,11.561,7.789,22.695,7.901,36.917c0.146,18.594,1.678,37.081,1.24,55.704
			c-0.046,1.967-0.135,4.015-0.658,5.694c-0.419,1.345-1.079,2.327-1.751,3.189c-2.18,2.797-4.66,4.686-7.23,5.507
			c-2.785,0.89-5.63,0.534-8.446,0.175c-13.458-1.715-26.915-3.431-40.373-5.146c-0.401-0.051-0.839-0.132-1.127-0.682
			c-0.274-0.521-0.338-1.325-0.38-2.069c-0.903-16.259,3.262-34.028,4.628-50.169c2.67-31.546-1.702-64.696,27.299-58.441
			c0.692,0.149,1.433,0.346,1.921,1.044c1.539,2.2-0.926,5.322-2.876,6.759c-5.943,4.38-10.424,12.428-11.986,21.526
			c-1.138,6.633-0.537,14.398,3.051,19.046c2.969,3.846,7.268,4.771,11.289,5.519c5.34,0.994,10.681,1.989,16.021,2.983
			c0.611-14.006,1.038-29.074-4.378-40.914c-1.586-3.468-3.69-6.732-4.1-10.802s2.12-8.958,4.936-7.714
			C1270.52,491.712,1272.213,495.626,1273.75,499.493z"/>
	</g>
	<g>
		<g>
			<g>
				<g>
					<path style="fill:#666666;" d="M1204.382,337.495c0.485,0.785,0.982,1.65,0.712,2.654c-0.309,1.149-1.514,2.115-2.627,2.957
						c-2.981,2.246-5.885,4.783-8.972,6.717c-3.358-3.546-5.774-8.137-8.429-12.11c-2.835-4.243-5.584-8.499-8.25-12.771
						c-2.571-4.12-5.066-8.257-7.485-12.412c-2.238-3.842-5.136-7.664-6.616-11.924c1.438-1.167,4.95-1.106,6.678-1.374
						c2.573-0.4,5.174-0.805,7.803-1.214c0.715-0.111,1.456-0.222,2.065-0.048c0.809,0.231,1.255,0.921,1.665,1.582
						C1188.603,311.971,1196.421,324.616,1204.382,337.495z"/>
					<path style="fill:#F2F2F2;" d="M1201.401,336.623c0.407,0.683,0.828,1.432,0.716,2.234c-0.128,0.917-0.906,1.612-1.629,2.214
						c-1.936,1.604-3.793,3.451-5.829,4.791c-2.688-3.158-4.805-7.118-7.053-10.611c-2.414-3.751-4.782-7.528-7.104-11.334
						c-2.253-3.692-4.464-7.412-6.634-11.161c-2.018-3.486-4.534-7.035-6.051-10.849c0.958-0.872,3.577-0.485,4.835-0.553
						c1.871-0.101,3.759-0.203,5.665-0.307c0.518-0.028,1.054-0.053,1.52,0.154c0.618,0.275,1.01,0.911,1.371,1.518
						C1187.933,314.01,1194.664,325.312,1201.401,336.623z"/>
				</g>
				<path style="opacity:0.56;fill:#FBB03B;" d="M1184.413,311.644c-2.583,1.636-5.621,2.501-8.796,2.502
					c4.589,8.668,9.625,17.098,15.066,25.22c2.35-2.377,4.699-4.754,7.049-7.13c-3.243-7.224-7.354-14.089-12.162-20.307
					c-0.148-0.191-0.312-0.393-0.518-0.458C1184.816,311.396,1184.603,311.524,1184.413,311.644z"/>
			</g>
			<path style="fill:#4D4D4D;" d="M1163.861,281.468c0.143,2.167,0.317,4.331,0.483,6.496c0.07,0.914,1.513,0.889,1.419-0.013
				c-0.226-2.165-0.444-4.331-0.692-6.494C1164.983,280.697,1163.809,280.68,1163.861,281.468z"/>
			<path style="fill:#4D4D4D;" d="M1159.832,286.724c-0.287-0.438-0.573-0.876-0.86-1.314c-0.035-0.053-0.079-0.083-0.12-0.121
				c-0.27-0.489-0.498-1-0.68-1.537c-0.236-0.697-1.3-0.402-1.103,0.315c0.165,0.603,0.38,1.176,0.645,1.724
				c0.006,0.104,0.032,0.211,0.106,0.32c0.293,0.434,0.586,0.868,0.88,1.303C1159.201,288.084,1160.308,287.452,1159.832,286.724z"
				/>
			<path style="fill:#4D4D4D;" d="M1157.364,290.485c-2.391,0.014-4.778,0.671-6.957,1.618c-0.679,0.295-0.411,1.404,0.325,1.141
				c2.181-0.781,4.349-1.126,6.645-1.363C1158.258,291.789,1158.278,290.479,1157.364,290.485z"/>
		</g>
		<g>
			<path style="fill:#E6E6E6;" d="M1188.129,315.574c-2.519,0.697-5.548,1.265-9.188,1.663c2.892,6.66,6.146,13.217,9.653,19.454
				c2.049-2.269,3.845-4.258,5.431-6.014C1192.197,325.403,1190.237,320.39,1188.129,315.574z"/>
			<path style="fill:#736357;" d="M1176.392,316.666c-0.088,0.186-0.009,0.41,0.07,0.613c0.309,0.789,0.619,1.581,0.93,2.375
				c4.67-1.393,8.395-2.654,11.412-3.815c-0.247-0.573-0.494-1.146-0.74-1.716c-3.018,0.601-6.621,1.319-10.999,2.192
				C1176.799,316.367,1176.498,316.443,1176.392,316.666z"/>
			<path style="fill:#517267;" d="M1185.513,330.762c-0.888-2.276-1.857-4.483-2.908-6.63c2.85-1.318,5.149-2.841,6.93-4.48
				c0.828,1.442,1.539,2.968,2.123,4.561C1189.832,325.998,1187.797,328.154,1185.513,330.762z"/>
		</g>
	</g>
</g>
</svg>
